<?xml version="1.0" standalone="no"?>
<!DOCTYPE svg PUBLIC "-//W3C//DTD SVG 1.1//EN" "http://www.w3.org/Graphics/SVG/1.1/DTD/svg11.dtd" >
<svg xmlns="http://www.w3.org/2000/svg" xmlns:xlink="http://www.w3.org/1999/xlink" version="1.1">
<metadata></metadata>
<defs>
<font id="r-futura_stdbold_italic" horiz-adv-x="1404" >
<font-face units-per-em="2048" ascent="1690" descent="-358" />
<missing-glyph horiz-adv-x="702" />
<glyph horiz-adv-x="0" />
<glyph horiz-adv-x="0" />
<glyph unicode="&#xd;" horiz-adv-x="512" />
<glyph unicode=" "  horiz-adv-x="702" />
<glyph unicode="&#x09;" horiz-adv-x="702" />
<glyph unicode="&#xa0;" horiz-adv-x="702" />
<glyph unicode="!" horiz-adv-x="786" d="M184 199q8 49 34 93t63.5 76.5t85 51t96.5 18.5t90 -18.5t68.5 -51t39 -76.5t3.5 -93t-34 -93.5t-63 -76t-84 -51t-96 -19.5t-90 19.5t-68.5 51t-40 76t-4.5 93.5zM285 524l159 1020h387l-159 -1020h-387z" />
<glyph unicode="&#x22;" horiz-adv-x="1024" d="M289 866h237l162 678h-348zM772 866h238l161 678h-348z" />
<glyph unicode="#" d="M195 354h186l-123 -354h217l123 354h207l-123 -354h217l123 354h242l36 232h-192l90 254h201l37 231h-164l145 416h-215l-145 -416h-207l145 416h-217l-145 -416h-240l-37 -231h197l-90 -254h-232zM680 586l90 254h213l-94 -254h-209z" />
<glyph unicode="$" d="M168 178l217 309q59 -66 151.5 -119t190.5 -53q33 0 68.5 9.5t66.5 28t53.5 47t28.5 65.5q6 43 -16.5 70.5t-64.5 47t-97 37t-113 39.5q-55 23 -108 53.5t-91 77t-55.5 112t-3.5 159.5q14 90 58.5 175t109 150.5t148.5 107.5t178 48l39 248h190l-39 -248 q96 -10 188.5 -37.5t166.5 -81.5l-199 -297q-47 45 -110.5 73t-135.5 28q-68 0 -125 -26.5t-67 -88.5q-6 -35 11 -61.5t46 -45t61.5 -30.5t57.5 -23q84 -29 158.5 -62.5t128 -83.5t78 -123t8.5 -179q-33 -215 -168.5 -333t-341.5 -167l-39 -256h-191l37 244q-57 0 -123.5 13 t-132 38t-123 58.5t-96.5 76.5z" />
<glyph unicode="%" horiz-adv-x="1996" d="M227 1190q14 92 59.5 161.5t110 118t145.5 72t167 23.5t158.5 -23.5t122.5 -72t72.5 -118t8.5 -161.5q-14 -94 -58 -165t-108.5 -119t-145.5 -72.5t-169 -24.5t-162 24.5t-123 72.5t-70.5 119t-7.5 165zM449 0l1140 1544h201l-1141 -1544h-200zM475 1186q-12 -72 31 -122 t115 -50t131 50t71 122q10 72 -32.5 123t-114.5 51t-131.5 -51.5t-69.5 -122.5zM1171 360q14 92 59.5 162t110 118t145.5 71.5t167 23.5t158.5 -23.5t123 -71.5t73 -117.5t7.5 -162.5q-14 -94 -58 -164.5t-109.5 -118.5t-146.5 -72.5t-169 -24.5t-161 24.5t-122 72.5 t-70.5 118.5t-7.5 164.5zM1419 356q-12 -72 31 -122t115 -50t131 50.5t71 121.5q10 72 -32.5 123t-114.5 51t-131 -51t-70 -123z" />
<glyph unicode="&#x26;" horiz-adv-x="1736" d="M141 401q14 86 49 153t87.5 117t119 89t144.5 71l41 17l-27 45q-14 25 -29.5 52.5t-27 59t-15.5 70.5t4 86q16 100 68.5 179t127.5 133.5t167 83t184 28.5t175 -28.5t141.5 -82t87 -132t12.5 -177.5q-12 -72 -43 -128t-77 -100t-103.5 -78t-122.5 -64l164 -205 q66 51 125 104.5t112 114.5l193 -217l-228 -209l-22 -18l289 -365h-502l-111 143q-129 -78 -272 -131t-285 -53q-100 0 -185 29.5t-144.5 86t-86 138.5t-10.5 188zM567 461q-6 -35 6.5 -61.5t34 -44t51 -27t60.5 -9.5q57 0 114.5 17.5t110.5 46.5l-203 262 q-27 -14 -55.5 -33.5t-53 -42t-43 -49t-22.5 -59.5zM872 1186q-8 -57 25 -110.5t64 -94.5q57 29 109 77t63 111q10 59 -20 101.5t-91 42.5q-53 0 -96 -35t-54 -92z" />
<glyph unicode="'" horiz-adv-x="512" d="M274 866h238l162 678h-348z" />
<glyph unicode="(" horiz-adv-x="720" d="M166 311.5q6 145.5 27 274.5q20 127 60 265t98.5 274.5t134 262.5t167.5 230l203 -127q-80 -100 -142.5 -214t-109.5 -233.5t-79.5 -241.5t-51.5 -241q-16 -111 -22.5 -233.5t3 -245.5t36 -238.5t73.5 -208.5l-244 -127q-63 104 -99 237.5t-48 277t-6 289z" />
<glyph unicode=")" horiz-adv-x="720" d="M43 -365q76 92 138.5 208t110.5 239t82 246t50 233q18 119 24.5 241t-3 241.5t-36 233.5t-73.5 214l244 127q59 -104 95 -230t51 -262.5t11 -274.5t-24 -265q-20 -129 -59.5 -274.5t-97.5 -289t-135 -276.5t-175 -238z" />
<glyph unicode="*" horiz-adv-x="989" d="M317 1081l68 -155l190 110l-45 -205h185l24 207l162 -116l117 153l-176 107l211 102l-68 156l-201 -115l45 219h-184l-22 -213l-160 113l-119 -156l174 -104z" />
<glyph unicode="+" d="M238 373h370l-59 -373h307l59 373h371l49 307h-370l57 371h-307l-58 -371h-370z" />
<glyph unicode="," horiz-adv-x="702" d="M0 -289h240l483 680h-350z" />
<glyph unicode="-" horiz-adv-x="802" d="M188 504h586l49 307h-585z" />
<glyph unicode="." horiz-adv-x="702" d="M143 199q8 49 34 93t64 76.5t85 51t96 18.5t90 -18.5t68.5 -51t39 -76.5t3.5 -93t-34 -93.5t-63 -76t-84 -51t-96 -19.5t-90 19.5t-68.5 51t-40 76t-4.5 93.5z" />
<glyph unicode="/" horiz-adv-x="1185" d="M25 -190h292l1082 1890h-293z" />
<glyph unicode="0" d="M159.5 473.5q-14.5 149.5 10.5 298.5q25 152 86 300.5t159.5 267t233.5 192.5t307 74t285 -74t174.5 -192.5t75.5 -267t-10 -300.5q-25 -150 -86.5 -299t-159.5 -268t-234.5 -192.5t-308.5 -73.5t-284.5 73.5t-173 192.5t-75 268.5zM558 636q-3 -83 14.5 -159t58.5 -130 t119 -54t136 54t98 130t64.5 159t32.5 138t10.5 137t-14 158t-57.5 129t-119 53t-136 -53t-99 -129t-64.5 -158t-32.5 -137q-8 -55 -11 -138z" />
<glyph unicode="1" d="M520 1204h221l-190 -1204h401l244 1544h-623z" />
<glyph unicode="2" d="M68 0l739 686q80 74 149.5 173t85.5 206q6 37 0 73t-24.5 64.5t-48 46t-70.5 17.5q-82 0 -134 -55.5t-65 -133.5q-2 -16 -3 -32.5t-1 -32.5h-442q27 133 87 242.5t150.5 187.5t206 121t252.5 43q121 0 223.5 -39t173 -110t102.5 -172t11 -228q-12 -82 -39.5 -149.5 t-69.5 -126t-96.5 -112t-121.5 -106.5l-277 -223h506l-53 -340h-1241z" />
<glyph unicode="3" d="M145.5 397.5q-6.5 53.5 4.5 104.5h409q-16 -92 34 -155.5t146 -63.5q92 0 162 56t86 150q6 43 -5 81t-35.5 66t-60.5 44t-79 16q-18 0 -36.5 -4t-35.5 -8l43 268h41q78 0 134.5 45t68.5 125q10 72 -28 114t-105 42q-78 0 -130.5 -51t-62.5 -127h-372q31 117 91 211 t144 159.5t190.5 100.5t227.5 35q104 0 189 -30t142.5 -86t83 -140t7.5 -193q-14 -92 -66.5 -181t-144.5 -136q59 -16 100 -57.5t63.5 -94.5t30 -115.5t-3.5 -121.5q-20 -127 -85.5 -222.5t-160 -160t-208 -97t-228.5 -32.5q-133 0 -243.5 38.5t-188.5 135.5 q-29 35 -54.5 81t-41.5 98t-22.5 105.5z" />
<glyph unicode="4" d="M84 319h750l-52 -319h373l51 319h187l47 308h-187l146 917h-527l-747 -969zM516 627l455 594h4l-94 -594h-365z" />
<glyph unicode="5" d="M125 78l119 379q78 -80 180 -129t223 -49q47 0 94 16t86 46t66 72t35 93q12 70 -10.5 120t-65.5 81.5t-101.5 47t-117.5 15.5q-78 0 -155 -15.5t-150 -47.5l266 837h803l-54 -340h-534l-53 -176l127 10q10 2 20 2h21q111 0 196.5 -44t141 -118.5t78 -176t3.5 -216.5 q-20 -123 -88.5 -231.5t-177.5 -185.5q-104 -74 -229 -101.5t-242 -27.5q-133 0 -256 33.5t-225 105.5z" />
<glyph unicode="6" d="M125 496q14 84 47 165.5t79 159.5t102.5 150.5t117.5 138.5l399 434h455l-520 -522l4 -4q55 23 108.5 35t112.5 12q115 0 199 -45t136 -120t71.5 -173t3.5 -205q-23 -141 -94.5 -250.5t-174 -183.5t-228.5 -111.5t-259 -37.5q-113 0 -226.5 30.5t-191.5 102.5 q-82 78 -121 190.5t-20 233.5zM518 510q-8 -53 5.5 -99t43 -81t72.5 -55.5t94 -20.5q53 0 101.5 20.5t87.5 55.5t64.5 81t33.5 99t-3 98t-39 80t-70 54.5t-95 19.5q-51 0 -101 -19.5t-90 -54.5t-68 -80t-36 -98z" />
<glyph unicode="7" d="M86 0h440l1131 1544h-1268l-53 -340h645z" />
<glyph unicode="8" d="M176 406q25 154 125 256t248 149v4q-100 35 -154.5 131t-34.5 219q18 111 76 194t140.5 137t182 82t197.5 28t189.5 -28t156 -82t97.5 -137t14 -194q-20 -123 -103 -219t-196 -131v-4q131 -47 198.5 -149.5t43.5 -255.5q-18 -119 -87 -207t-164 -146.5t-203.5 -86 t-209.5 -27.5q-100 0 -199.5 27.5t-176 86t-117.5 146.5t-23 207zM590 457q-12 -78 33 -133.5t122 -55.5q78 0 139.5 55.5t73.5 133.5q14 80 -30.5 136t-122.5 56t-139.5 -56t-75.5 -136zM715 1153q-10 -72 30.5 -123t112.5 -51t129 51t68 123q12 72 -29 123t-113 51 t-129 -51t-69 -123z" />
<glyph unicode="9" d="M209 1022q23 141 94.5 250.5t174 183.5t229.5 112t258 38q113 0 227.5 -31t191.5 -102q82 -76 120 -190t20 -236q-12 -84 -46 -166t-80 -160t-102.5 -150.5t-117.5 -138.5l-398 -432h-456l522 520l-2 4q-57 -23 -110.5 -35t-115.5 -12q-113 0 -197.5 45t-137 121 t-71.5 174t-3 205zM629 1034q-8 -53 3 -99t38.5 -81t69.5 -54.5t96 -19.5q53 0 103 19.5t90 54.5t67.5 81t36.5 99q8 53 -4.5 99.5t-42 81t-72.5 54t-96 19.5t-101.5 -19.5t-87.5 -54t-65.5 -81t-34.5 -99.5z" />
<glyph unicode=":" horiz-adv-x="702" d="M143 199q8 49 34 93t64 76.5t85 51t96 18.5t90 -18.5t68.5 -51t39 -76.5t3.5 -93t-34 -93.5t-63 -76t-84 -51t-96 -19.5t-90 19.5t-68.5 51t-40 76t-4.5 93.5zM254 889q8 49 33.5 93t62.5 77t84 51t96 18t90.5 -18t69 -51t39.5 -77t4 -93t-33.5 -93t-63.5 -76t-85 -51.5 t-96 -19.5t-90 19.5t-68 51.5t-39 76t-4 93z" />
<glyph unicode=";" horiz-adv-x="702" d="M-29 -289l373 680h350l-483 -680h-240zM348 889q8 49 34 93t62.5 77t84 51t96.5 18t90 -18t68.5 -51t40 -77t3.5 -93q-8 -49 -33.5 -93t-63.5 -76t-85 -51.5t-96 -19.5t-90 19.5t-67.5 51.5t-39 76t-4.5 93z" />
<glyph unicode="&#x3c;" d="M266 403l942 -372l49 307l-530 186v4l590 187l49 307l-1061 -373z" />
<glyph unicode="=" d="M199 127h1048l49 307h-1048zM276 618h1049l49 308h-1048z" />
<glyph unicode="&#x3e;" d="M207 31l1061 372l39 246l-942 373l-50 -307l533 -187v-4l-592 -186z" />
<glyph unicode="?" horiz-adv-x="1218" d="M205 1104q20 115 80.5 205t147.5 151.5t193.5 93t217.5 31.5q98 0 185 -30.5t153 -96.5t100.5 -159t17.5 -195q-14 -86 -54 -156.5t-98 -126t-132 -95.5t-156 -64l-22 -146h-375l63 397q45 -10 84 -10q43 0 92.5 12.5t92.5 38t73.5 63.5t38.5 89q10 63 -25.5 108.5 t-101.5 45.5q-72 0 -114.5 -45.5t-53.5 -110.5h-407zM367 199q8 49 33.5 93t63.5 76.5t85 51t96 18.5t90 -18.5t68.5 -51t39 -76.5t3.5 -93t-34 -93.5t-62.5 -76t-84 -51t-96.5 -19.5t-90 19.5t-68.5 51t-40 76t-3.5 93.5z" />
<glyph unicode="@" horiz-adv-x="1515" d="M133 772q29 174 113 322.5t206.5 258t275.5 171t316 61.5q135 0 250 -43t203 -135q90 -92 133 -212t21 -267q-20 -129 -71.5 -242t-125.5 -194q-68 -74 -154 -127.5t-190 -53.5q-43 2 -73.5 36t-35.5 83q-47 -47 -117.5 -83t-162.5 -36q-68 0 -125 30t-97 82t-56.5 120.5 t-4.5 148.5q14 94 58.5 183.5t110 158t149.5 110.5t178 42q78 0 137 -31t94 -96l37 108h195l-187 -532q-6 -18 -15 -42t-12 -44.5t1 -34.5t24 -14h6q29 4 67 34.5t75 80t68.5 111.5t45.5 130q29 129 3.5 229.5t-90 169t-162 103.5t-213.5 35q-129 0 -244 -46.5t-206 -129 t-151.5 -196.5t-80.5 -249q-23 -141 5.5 -256t99.5 -195.5t177.5 -124.5t237.5 -44q129 0 227 25.5t152 55.5l147 -135q-117 -55 -262 -97t-311 -42t-301.5 61.5t-225.5 170t-129 257t-10 324.5zM688 725q-12 -76 18.5 -132t106.5 -56q47 0 85 20.5t66.5 53t48 72.5t29.5 79 q25 88 -8 143.5t-108 55.5q-43 0 -83 -20.5t-73 -54.5t-54.5 -76t-27.5 -85z" />
<glyph unicode="A" horiz-adv-x="1599" d="M-8 0h426l149 268h553l58 -268h428l-338 1544h-439zM727 575l244 492h4l86 -492h-334z" />
<glyph unicode="B" horiz-adv-x="1386" d="M131 0l244 1544h573q102 0 184 -21.5t134 -68.5t74 -124q11 -41 12 -91q0 -44 -9 -96q-16 -104 -66 -186.5t-153 -129.5v-4q162 -23 220 -127q40 -71 41 -169q0 -45 -9 -97q-18 -121 -79.5 -204t-147.5 -133t-189.5 -71.5t-209.5 -21.5h-619zM582 307h51h24q45 0 97.5 3 t98.5 19.5t81 49.5t43 92q4 21 4 38q-1 32 -13 54q-18 33 -52.5 50.5t-79.5 21.5t-93 4h-69h-41zM682 938h45q41 0 80 5t71.5 20.5t56 45t32.5 78.5q3 17 3 32q0 31 -12 51q-16 30 -46.5 45.5t-71.5 18.5t-82 3h-29z" />
<glyph unicode="C" horiz-adv-x="1351" d="M176 770q27 168 114 316.5t214 259t286.5 175t329.5 64.5q98 0 183.5 -20.5t171.5 -57.5l-78 -481q-47 84 -134 127t-192 43q-92 0 -173 -33t-144.5 -91t-105.5 -136t-56 -168q-6 -40 -6 -78q0 -48 10 -91q18 -77 64.5 -132t118 -87t165.5 -32q98 0 197.5 44t175.5 120 l-78 -481q-104 -31 -187 -51.5t-178 -20.5q-162 0 -301 58.5t-243 168.5q-111 118 -147 264q-20 81 -20 170q0 72 13 150z" />
<glyph unicode="D" horiz-adv-x="1540" d="M131 0l244 1544h569q162 0 295 -59.5t223 -163.5q90 -105 130 -245q25 -88 25 -184q0 -58 -9 -120q-27 -162 -112 -303t-208 -245.5t-275.5 -164t-312.5 -59.5h-569zM586 340h90q90 0 175 25.5t153.5 78t117.5 134t68 194.5q7 46 7 87q1 53 -11 97q-20 80 -69.5 135.5 t-126.5 84t-173 28.5h-94z" />
<glyph unicode="E" horiz-adv-x="1126" d="M131 0h879l53 340h-477l43 266h452l54 340h-453l41 258h477l53 340h-878z" />
<glyph unicode="F" horiz-adv-x="1110" d="M131 0h401l97 606h440l53 340h-440l41 258h485l54 340h-887z" />
<glyph unicode="G" horiz-adv-x="1724" d="M174 764q31 188 116 342t212 262.5t290.5 167.5t350.5 59q240 0 401.5 -107.5t227.5 -324.5l-406 -159q-25 111 -98.5 178t-196.5 67q-98 0 -181 -43t-144.5 -112.5t-100.5 -156.5t-53 -175q-8 -48 -8 -96q0 -41 6 -81q12 -87 54 -155t111.5 -109.5t168.5 -41.5 q131 0 231 66.5t133 201.5h-327l51 315h796q-14 -84 -32.5 -162.5t-47 -154.5t-70.5 -148.5t-106 -144.5q-139 -160 -314 -231.5t-370 -71.5q-182 0 -323.5 59.5t-233.5 167t-129 256.5q-21 84 -21 178q0 74 13 154z" />
<glyph unicode="H" horiz-adv-x="1644" d="M131 0h401l101 633h579l-100 -633h401l244 1544h-401l-94 -596h-580l94 596h-401z" />
<glyph unicode="I" horiz-adv-x="663" d="M131 0h401l244 1544h-401z" />
<glyph unicode="J" horiz-adv-x="1001" d="M-2 186l270 244q29 -47 65 -89t77 -42q45 0 71.5 23.5t43 58.5t23.5 74t13 71l160 1018h401l-164 -1042q-18 -123 -66 -222.5t-123 -171t-177.5 -110.5t-231.5 -39t-219 60.5t-143 166.5z" />
<glyph unicode="K" horiz-adv-x="1552" d="M131 0h401l107 670h4l412 -670h520l-541 813l729 731h-497l-586 -637h-4l100 637h-401z" />
<glyph unicode="L" horiz-adv-x="1013" d="M131 0h883l53 340h-481l190 1204h-401z" />
<glyph unicode="M" horiz-adv-x="2013" d="M39 0h399l271 889h4l213 -889h159l512 889h5l-29 -889h401l11 1544h-400l-461 -825l-184 825h-395z" />
<glyph unicode="N" horiz-adv-x="1804" d="M131 0h401l150 946h4l586 -946h401l244 1544h-401l-150 -944h-4l-586 944h-401z" />
<glyph unicode="O" horiz-adv-x="1816" d="M180 801q29 176 122 321.5t228.5 251t299 163.5t329.5 58t311.5 -58t248 -163.5t150.5 -251.5q30 -91 30 -193q0 -62 -11 -128q-31 -186 -119 -343t-220 -270.5t-298 -176t-352 -62.5t-332.5 62.5t-242.5 176.5q-98 114 -136 270q-22 88 -21 185q0 76 13 158zM598 799 q-7 -43 -7 -83q1 -54 13 -102q22 -84 70.5 -145t122 -96t164.5 -35q90 0 175 35t153.5 96t116.5 145t64 185q4 28 4 56q0 49 -14 97q-22 74 -73.5 130.5t-125 90t-163.5 33.5t-175 -33.5t-153 -90t-114 -130t-58 -153.5z" />
<glyph unicode="P" horiz-adv-x="1353" d="M131 0l244 1544h614q125 0 223.5 -29.5t163 -91t90.5 -157.5q14 -52 15 -114q0 -54 -11 -116q-43 -272 -204.5 -398t-423.5 -126h-228l-82 -512h-401zM666 836h67q55 0 107.5 3t95.5 20.5t73.5 56t41.5 108.5q5 30 5 55q0 36 -10 59q-18 40 -55 58t-88 21.5t-110 3.5h-68 z" />
<glyph unicode="Q" horiz-adv-x="1816" d="M180 801q29 176 122 321.5t228.5 251t299 163.5t329.5 58q180 0 326.5 -58t245 -166.5t140.5 -261.5q24 -88 24 -188q0 -73 -13 -153q-23 -154 -95.5 -288t-189.5 -255l220 -264l-377 -57l-101 145q-98 -53 -206.5 -76.5t-233.5 -23.5q-186 0 -332.5 62.5t-243 176 t-135.5 270.5q-21 87 -21 185q0 76 13 158zM598 799q-7 -43 -7 -83q0 -53 13 -102q21 -84 71 -145t123.5 -96t164.5 -35q66 0 127 20l-209 246l385 47l92 -112q43 49 69.5 108.5t36.5 118.5q6 34 6 68q0 50 -13 98q-21 80 -70.5 141.5t-123 97t-163.5 35.5t-175 -33.5 t-154 -90t-115 -130t-58 -153.5z" />
<glyph unicode="R" horiz-adv-x="1392" d="M131 0l244 1544h600q115 0 209 -27.5t156 -86.5q64 -58 90 -148q16 -54 15 -119q0 -44 -7 -94q-12 -80 -46 -152.5t-86.5 -131t-122 -98.5t-153.5 -54l385 -633h-500l-284 594h-4l-95 -594h-401zM668 852h39q49 0 100 6t94 26.5t74 58.5t41 101q3 21 3 40q-1 36 -13 62 q-20 38 -56.5 58.5t-84.5 26.5t-97 6h-39z" />
<glyph unicode="S" horiz-adv-x="1261" d="M82 135l223 324q66 -66 146.5 -113t185.5 -47q35 0 71.5 9t67.5 27.5t52.5 48.5t27.5 71q1 10 1 19q1 30 -15 52q-20 28 -55 49t-75 34.5t-71 21.5q-90 27 -162.5 56.5t-120.5 76.5q-48 46 -66 118q-9 35 -9 81q0 47 10 104q18 117 73.5 213t136.5 163.5t184.5 104.5 t219.5 37q117 0 243 -34t220 -93l-209 -311q-49 47 -112.5 74.5t-137.5 27.5q-27 0 -59.5 -8t-60 -24.5t-48 -40t-24.5 -56.5q-6 -33 8 -57.5t39 -41.5t53.5 -28.5t52.5 -19.5l99 -31q78 -25 141.5 -58.5t107.5 -82.5t62 -118q10 -37 10 -80q0 -39 -8 -83 q-18 -117 -69.5 -227.5t-155.5 -188.5t-224 -111.5t-237 -33.5q-147 0 -278.5 46t-237.5 130z" />
<glyph unicode="T" horiz-adv-x="1091" d="M203 1204h332l-191 -1204h401l191 1204h332l53 340h-1065z" />
<glyph unicode="U" horiz-adv-x="1593" d="M208 385q-2 29 -2 59q0 42 4 84q7 74 19 148l138 868h401l-127 -813q-13 -77 -19 -151q-2 -20 -1 -39q1 -51 13 -95q18 -60 67 -97.5t145 -37.5t156.5 38t97.5 97.5t55.5 134t30.5 150.5l127 813h401l-137 -868q-12 -74 -26.5 -147.5t-42 -143.5t-69.5 -134.5 t-110 -119.5q-55 -47 -121.5 -80t-136.5 -53.5t-141.5 -29.5t-138.5 -9q-68 0 -136.5 9t-133 29.5t-120 53.5t-96.5 80q-49 55 -70.5 119.5t-26.5 134.5z" />
<glyph unicode="V" horiz-adv-x="1558" d="M213 1544l405 -1544h312l903 1544h-436l-523 -938l-225 938h-436z" />
<glyph unicode="W" horiz-adv-x="2287" d="M213 1544l217 -1544h408l444 895h4l129 -895h410l737 1544h-418l-448 -997h-4l-146 997h-319l-482 -997h-4l-110 997h-418z" />
<glyph unicode="X" horiz-adv-x="1615" d="M-16 0h485l434 504l244 -504h483l-440 825l606 719h-493l-297 -399l-175 399h-493l381 -719z" />
<glyph unicode="Y" horiz-adv-x="1462" d="M205 1544l442 -803l-117 -741h402l117 741l696 803h-481l-355 -420l-223 420h-481z" />
<glyph unicode="Z" horiz-adv-x="1447" d="M23 0h1323l53 340h-647l917 1204h-1278l-53 -340h606z" />
<glyph unicode="[" horiz-adv-x="716" d="M29 -492h503l35 218h-219l264 1675h219l35 217h-504z" />
<glyph unicode="\" horiz-adv-x="1185" d="M324 1700l516 -1700h290l-512 1700h-294z" />
<glyph unicode="]" horiz-adv-x="716" d="M29 -492h503l334 2110h-504l-34 -217h219l-264 -1675h-220z" />
<glyph unicode="^" d="M342 834l213 -138l344 551l172 -551l254 138l-246 772h-245z" />
<glyph unicode="_" horiz-adv-x="1024" d="M-41 -256h1024l16 102h-1024z" />
<glyph unicode="`" horiz-adv-x="823" d="M393 1516l301 -310l187 121l-234 352z" />
<glyph unicode="a" horiz-adv-x="1396" d="M131 526q18 113 72.5 214.5t135.5 178t185.5 121.5t220.5 45q92 0 174 -33.5t130 -103.5l16 103h373l-166 -1051h-373l19 117h-5q-61 -78 -155 -115t-187 -37q-117 0 -207 45t-148 122q-58 78 -80 180q-12 57 -13 116q0 48 8 98zM516 524q-4 -24 -4 -46q0 -70 39 -122 q51 -68 166 -67q115 0 188.5 67.5t89.5 167.5q4 23 4 44q1 69 -39 123q-52 71 -167 71q-57 0 -104.5 -19.5t-83.5 -51.5t-58.5 -75t-30.5 -92z" />
<glyph unicode="b" horiz-adv-x="1396" d="M111 0l268 1700h373l-119 -752q72 70 164 103.5t184 33.5q117 0 207 -45t148 -122q58 -76 80 -178q12 -55 12 -113q0 -49 -9 -101q-18 -113 -73.5 -215t-137.5 -179t-187.5 -122t-221.5 -45q-92 0 -173 37t-120 115h-4l-19 -117h-372zM555 524q-4 -24 -4 -46 q0 -70 39 -122q51 -68 166 -67q115 0 188.5 67.5t89.5 167.5q4 23 4 44q0 69 -40 123q-52 71 -167 71q-57 0 -104 -19.5t-83 -51.5t-58.5 -75t-30.5 -92z" />
<glyph unicode="c" horiz-adv-x="989" d="M129 514q20 127 81.5 232.5t153 180t206 116.5t237.5 42q135 0 235 -61l-49 -315q-37 31 -82 52t-98 21t-103.5 -19.5t-90 -54t-67.5 -80.5t-36 -102q-4 -26 -4 -50q0 -80 48 -136q62 -72 177 -72q49 0 102.5 18.5t94.5 53.5l-49 -315q-66 -31 -135.5 -45.5t-137.5 -14.5 q-117 0 -214 41t-163.5 115t-94.5 174q-17 61 -18 130q0 43 7 89z" />
<glyph unicode="d" horiz-adv-x="1396" d="M145 526q18 113 72.5 214.5t135.5 178t185.5 121.5t221.5 45q92 0 174 -33.5t129 -103.5l119 752h372l-268 -1700h-373l19 117h-4q-61 -78 -155.5 -115t-186.5 -37q-117 0 -207 45t-149 122q-58 78 -80 180q-12 57 -13 116q0 48 8 98zM530 524q-4 -24 -4 -46 q0 -70 39 -122q51 -68 166 -67q115 0 188.5 67.5t90.5 167.5q4 23 4 44q0 69 -40 123q-52 71 -167 71q-57 0 -104.5 -19.5t-83 -51.5t-58 -75t-31.5 -92z" />
<glyph unicode="e" horiz-adv-x="1249" d="M129 524q20 131 79.5 235.5t147.5 176.5t201 110.5t242 38.5q137 0 237.5 -40.5t162 -116.5t83.5 -184q11 -53 12 -113q0 -61 -12 -129l-6 -39h-784q-5 -31 -5 -58q-1 -73 35 -117q48 -60 166 -59q59 0 106.5 21.5t86.5 75.5h358q-35 -90 -97.5 -158t-141 -113 t-170 -67.5t-183.5 -22.5q-131 0 -236.5 37t-175 107.5t-97.5 174.5q-17 61 -17 134q0 50 8 106zM530 678h433q-2 76 -55.5 121t-129.5 45q-82 0 -149.5 -42t-98.5 -124z" />
<glyph unicode="f" horiz-adv-x="794" d="M145 743l50 308h131l22 133q8 55 18.5 103t27 92t45 87t73.5 86q82 82 184.5 125t208.5 43q43 0 81 -8t73 -29l-51 -321q-29 14 -58.5 24.5t-66.5 10.5q-72 0 -107 -43t-51 -133l-27 -170h260l-49 -308h-260l-117 -743h-372l116 743h-131z" />
<glyph unicode="g" horiz-adv-x="1386" d="M49 -123h418q10 -57 59 -80.5t101 -23.5q76 0 126 23.5t82.5 63.5t51 95t28.5 119l9 49q-86 -72 -170 -107.5t-189 -35.5q-115 0 -204 40.5t-145 113.5t-78 171q-13 54 -13 114q0 47 8 97q18 115 73.5 218.5t138.5 181t189.5 123.5t227.5 46q92 0 168 -33.5t119 -111.5h4 l16 111h373l-150 -949q-27 -168 -86 -286.5t-149 -194.5t-209 -110.5t-264 -34.5q-90 0 -186.5 23.5t-175.5 72.5t-128 125q-45 70 -45 164v16zM520 532q-4 -24 -4 -45q0 -71 40 -123q52 -67 167 -67t187.5 67.5t88.5 167.5q4 23 4 45q0 68 -39 122q-50 71 -165 71 q-57 0 -104.5 -19.5t-84.5 -51t-59.5 -74.5t-30.5 -93z" />
<glyph unicode="h" horiz-adv-x="1353" d="M123 0l268 1700h373l-123 -782h4q78 86 165 126.5t198 40.5q200 -1 278 -121q55 -86 56 -213q0 -51 -9 -108l-102 -643h-373l86 539q6 47 8 91v12q0 38 -10 68q-12 36 -42 57t-85 21t-96 -21.5t-68.5 -57t-45 -79.5t-23.5 -91l-86 -539h-373z" />
<glyph unicode="i" horiz-adv-x="618" d="M123 0l166 1051h373l-166 -1051h-373zM330 1454q6 43 29.5 81t56.5 66.5t73.5 45t83.5 16.5q85 1 137 -61q40 -48 41 -112q0 -17 -3 -36q-6 -43 -29 -81t-55.5 -66.5t-73.5 -45t-84 -16.5q-86 -1 -138 61q-41 49 -41 114q0 17 3 34z" />
<glyph unicode="j" horiz-adv-x="618" d="M39 -524l250 1575h373l-250 -1575h-373zM330 1454q6 43 29.5 81t56.5 66.5t73.5 45t83.5 16.5q86 0 137 -61q41 -49 41 -112q0 -18 -3 -36q-6 -43 -29 -81t-55.5 -66.5t-73.5 -45t-84 -16.5q-86 0 -138 61q-41 50 -41 114q0 17 3 34z" />
<glyph unicode="k" horiz-adv-x="1409" d="M123 0h373l67 428l340 -428h522l-469 565l603 486h-510l-447 -379l162 1028h-373z" />
<glyph unicode="l" horiz-adv-x="618" d="M123 0h373l268 1700h-373z" />
<glyph unicode="m" horiz-adv-x="2025" d="M123 0l166 1051h373l-21 -131h4q80 88 168 126.5t191 38.5q115 0 199.5 -48t125.5 -152q72 98 176.5 149t212.5 51q100 0 164 -30.5t96 -86.5q33 -56 40 -132q2 -26 3 -52q0 -54 -10 -114l-106 -670h-373l80 502q6 41 12 91q3 23 3 45q0 25 -4 48q-7 43 -33.5 72.5 t-86.5 29.5q-63 0 -104 -27.5t-64.5 -69.5t-36 -92t-18.5 -97l-80 -502h-373l80 502q7 43 13 95q3 23 2 44q0 28 -4 52q-8 44 -38 74t-92 30q-61 0 -100 -30t-61.5 -74t-33.5 -96t-18 -95l-79 -502h-373z" />
<glyph unicode="n" horiz-adv-x="1353" d="M123 0l166 1051h373l-21 -136h4q80 96 166 133t197 37q106 0 175.5 -31.5t108.5 -89.5q38 -57 48 -138q3 -29 4 -60q0 -55 -11 -117l-102 -649h-373l82 512q6 37 14 85q4 22 3 44q-1 24 -5 47q-8 43 -37.5 71.5t-99.5 28.5q-57 0 -97 -19t-67.5 -53t-44 -78t-24.5 -93 l-86 -545h-373z" />
<glyph unicode="o" horiz-adv-x="1355" d="M129 524q20 135 88 239.5t166 176.5t219 108.5t248 36.5t235.5 -36.5t184.5 -108.5t110 -176q22 -66 23 -145q0 -45 -8 -95q-20 -133 -89 -237.5t-167.5 -176t-219 -108.5t-247.5 -37q-125 0 -234.5 37t-184.5 108.5t-109 175.5q-22 66 -22 143q0 45 7 95zM522 524 q-4 -24 -3 -46q0 -70 38 -122q51 -68 166 -67q115 0 188.5 67.5t89.5 167.5q4 23 4 44q1 69 -39 123q-52 71 -167 71q-57 0 -104.5 -19.5t-83.5 -51.5t-58.5 -75t-30.5 -92z" />
<glyph unicode="p" horiz-adv-x="1396" d="M27 -524l249 1575h373l-18 -119h4q63 78 156.5 115.5t185.5 37.5q117 0 208 -46t148.5 -122.5t80.5 -178.5q12 -56 12 -115q0 -49 -9 -101q-18 -113 -72.5 -214t-135.5 -178t-185 -121t-221 -44q-92 0 -173 33t-130 102l-101 -624h-372zM555 524q-4 -24 -4 -46 q0 -70 39 -122q51 -67 166 -67t188.5 67.5t89.5 167.5q4 23 4 44q0 69 -40 123q-52 71 -167 71q-57 0 -104 -19.5t-83 -51.5t-58.5 -75t-30.5 -92z" />
<glyph unicode="q" horiz-adv-x="1396" d="M143 522q18 113 73.5 214.5t138.5 179t187.5 123.5t221.5 46q92 0 174 -37.5t119 -115.5h4l18 119h373l-250 -1575h-373l101 624q-70 -70 -163 -102.5t-185 -32.5q-117 0 -207 44t-147.5 121t-79.5 178q-13 57 -13 117q0 47 8 97zM530 524q-4 -24 -4 -46q0 -70 39 -122 q51 -67 166 -67t188.5 67.5t90.5 167.5q4 23 4 44q0 69 -40 123q-52 71 -167 71q-57 0 -104.5 -19.5t-83 -51.5t-58 -75t-31.5 -92z" />
<glyph unicode="r" horiz-adv-x="927" d="M123 0l166 1051h373l-27 -172h4q70 98 164 142t205 44h71l-55 -358q-35 23 -73 28.5t-81 5.5q-78 0 -131 -24.5t-89 -66.5t-56.5 -100t-30.5 -126l-67 -424h-373z" />
<glyph unicode="s" horiz-adv-x="1050" d="M68 86l176 260q51 -41 130 -73.5t148 -32.5q35 0 78 18t51 61q4 31 -13 48.5t-48 29t-72 19.5t-82 20q-43 12 -82 29.5t-66.5 49.5t-39.5 80q-7 26 -7 59q0 27 5 59q16 96 67.5 166.5t123 116.5t158.5 67.5t173 21.5q90 0 175 -15t161 -52l-164 -238q-39 23 -92 37 t-100 14q-16 0 -37 -4t-40.5 -12t-32.5 -21.5t-17 -33.5q-4 -27 12 -43.5t40.5 -25.5t53.5 -14t47 -9q63 -12 115.5 -36t87.5 -60q35 -38 50 -90q8 -29 8 -64q0 -29 -5 -62q-16 -104 -71.5 -178t-133 -121t-170 -69.5t-184.5 -22.5q-113 0 -215 31t-188 90z" />
<glyph unicode="t" horiz-adv-x="737" d="M154 743h120l-116 -743h372l117 743h211l49 308h-211l52 315h-373l-51 -315h-121z" />
<glyph unicode="u" horiz-adv-x="1349" d="M182 418l101 633h372l-88 -562q-7 -44 -7 -82v-9q1 -42 16.5 -72.5t49 -47t91.5 -16.5q57 0 96 16.5t64.5 47t40 72.5t22.5 91l88 562h373l-101 -633q-20 -129 -76.5 -216t-140.5 -139.5t-189.5 -75t-223.5 -22.5q-119 0 -217.5 22.5t-164.5 74.5q-66 53 -96 140 q-18 52 -18 119q0 45 8 97z" />
<glyph unicode="v" horiz-adv-x="1275" d="M135 1051l385 -1051h238l715 1051h-418l-334 -539l-168 539h-418z" />
<glyph unicode="w" horiz-adv-x="2039" d="M135 1051l383 -1051h242l352 575l168 -575h242l714 1051h-411l-355 -570l-174 570h-221l-354 -570l-172 570h-414z" />
<glyph unicode="x" horiz-adv-x="1458" d="M-31 0h490l319 311l221 -311h490l-434 569l510 482h-482l-223 -217l-153 217h-474l351 -482z" />
<glyph unicode="y" horiz-adv-x="1339" d="M35 -524h418l1091 1575h-424l-358 -539l-197 539h-430l365 -908z" />
<glyph unicode="z" horiz-adv-x="1144" d="M16 0h1065l49 309h-442l608 742h-1048l-49 -310h428z" />
<glyph unicode="{" horiz-adv-x="720" d="M147 465l33 213q61 0 105.5 18.5t56.5 89.5l82 519q12 82 48 141t78 97t85 56.5t70 18.5h198l-39 -246h-51q-35 0 -56.5 -11t-32.5 -27.5t-15 -38t-9 -44.5l-73 -460q-10 -66 -38 -107t-62.5 -63.5t-70.5 -32.5t-61 -15v-4q23 -2 55.5 -10t60.5 -31.5t42 -69.5t2 -128 l-74 -455q-2 -23 -4 -44t4 -38.5t23.5 -28t52.5 -10.5h51l-39 -246h-198q-27 0 -64 18.5t-67.5 56.5t-47 96.5t-4.5 138.5l82 518q6 45 -1 70.5t-23.5 39t-36 16.5t-37.5 3h-25z" />
<glyph unicode="|" horiz-adv-x="1017" d="M496 -625h280v2499h-280v-2499z" />
<glyph unicode="}" horiz-adv-x="720" d="M-4 -492l39 246h51q35 0 56.5 10.5t32.5 28t16.5 39t7.5 43.5l73 455q12 82 41 128t64 69.5t69.5 31.5t59.5 10v4q-23 4 -54.5 14.5t-59 33t-43 63.5t-5.5 107l74 460q4 23 5 44.5t-5 38t-23.5 27.5t-52.5 11h-51l39 246h198q29 0 65 -18.5t66.5 -56.5t47 -97.5 t4.5 -140.5l-82 -519q-6 -39 3 -60t26.5 -31.5t39 -13.5t37.5 -3h19l-33 -213q-74 0 -113 -24.5t-51 -104.5l-82 -518q-12 -80 -48 -138.5t-78 -96.5t-84 -56.5t-70 -18.5h-199z" />
<glyph unicode="~" d="M178 487q39 41 84 95.5t97.5 105.5t109.5 86t121 35q63 0 126.5 -35t117.5 -80q43 -39 100 -70.5t104 -31.5q20 0 43 19.5t44.5 46t39 56.5t27.5 50l203 -199q-35 -45 -79 -100t-96.5 -104.5t-111.5 -82t-123 -32.5q-76 0 -132 33.5t-103 64.5q-63 41 -113.5 80t-97.5 39 q-20 0 -42 -17.5t-43.5 -44t-41 -56.5t-35.5 -54z" />
<glyph unicode="&#xa1;" horiz-adv-x="786" d="M123 -498l160 1020h387l-160 -1020h-387zM289 850q8 49 33.5 93t62.5 77t84 51.5t96 18.5t90 -18.5t69 -51.5t40 -77t4 -93t-33.5 -93t-63.5 -76t-85 -51.5t-97 -19.5q-49 0 -90 19.5t-67.5 51.5t-38.5 76t-4 93z" />
<glyph unicode="&#xa2;" d="M412 772q18 115 71.5 213t134 171t183 119t217.5 56l31 191h190l-33 -203l113 -35l-53 -334q-31 35 -72 56.5t-94 21.5q-55 0 -105.5 -18.5t-90.5 -51t-66.5 -78.5t-36.5 -102q-8 -51 3 -97t38.5 -81t69.5 -54.5t96 -19.5q53 0 107 18.5t97 59.5l-53 -334 q-31 -10 -61.5 -19t-63.5 -13l-33 -218h-190l31 203q-106 4 -193.5 50t-146 121t-83 173.5t-7.5 204.5z" />
<glyph unicode="&#xa3;" d="M53 0q23 66 63 130.5t93 115.5t117.5 83.5t136.5 32.5q41 66 37 130.5t-33 121.5h-330l25 156h221q-29 57 -36 124t3 138q16 111 75.5 212.5t152.5 178.5q104 86 219.5 118t236.5 32q152 0 254.5 -35t158.5 -105.5t71.5 -180t-7.5 -261.5h-397l10 72q12 78 -32.5 136 t-122.5 58q-94 0 -154.5 -64.5t-75.5 -152.5q-10 -76 1.5 -143.5t41.5 -126.5h320l-25 -156h-291q4 -25 3 -60.5t-7 -74.5t-16 -75.5t-25 -63.5l23 -8q29 -10 65.5 -22.5t76.5 -23t79 -17.5t70 -7q47 0 79.5 26.5t41.5 73.5h249q-20 -84 -57 -156.5t-91 -124.5t-127 -83 t-165 -31q-76 0 -139.5 18.5t-132.5 39.5q-53 16 -125 33.5t-127 17.5q-39 0 -82 -17.5t-60 -58.5h-266z" />
<glyph unicode="&#xa4;" d="M150 311l157 135q-39 63 -53 147.5t2 180.5t56 186.5t100 151.5l-113 137l147 129l115 -137q72 49 168 78t193 29q94 0 177 -29t134 -78l160 137l106 -127l-147 -129q39 -66 55 -157t0 -187t-60 -183t-106 -146l113 -136l-144 -133l-116 135q-70 -53 -163 -81.5 t-190 -28.5q-100 0 -185 28.5t-142 83.5l-158 -135zM561 768q-18 -117 48.5 -186.5t181.5 -69.5q57 0 108 18.5t92 51t70 81t37 105.5q10 57 -3.5 106.5t-43 86t-76 58t-103.5 21.5t-109 -21.5t-94 -58t-70 -86t-38 -106.5z" />
<glyph unicode="&#xa5;" d="M197 586h409l-92 -586h377l92 586h406l24 155h-405l143 172h291l24 156h-186l391 475h-454l-336 -420l-205 420h-455l242 -475h-189l-24 -156h291l88 -172h-408z" />
<glyph unicode="&#xa6;" horiz-adv-x="1017" d="M496 436v-872h280v872h-280zM496 813h280v875h-280v-875z" />
<glyph unicode="&#xa7;" d="M121 6h375q-8 -41 4 -74.5t36.5 -58.5t59.5 -39t72 -14q63 0 115.5 35.5t62.5 101.5q6 37 -7.5 62.5t-36 45t-50 34t-52.5 26.5l-299 158q-98 53 -152 133t-34 205q16 100 79.5 186t149.5 147q-39 43 -52 112t-3 128q16 98 67.5 171t125 122t161.5 73.5t177 24.5 q92 0 174 -20.5t141 -66.5t89.5 -118t18.5 -174h-321q-4 53 -36 88t-89 35q-47 0 -85 -27.5t-46 -76.5q-6 -39 8 -67t40 -48t56.5 -35.5t57.5 -30.5l209 -114q59 -31 108 -63.5t83 -74.5t48.5 -98.5t1.5 -136.5q-16 -98 -76.5 -180t-146.5 -141q47 -47 60.5 -121t3.5 -146 q-18 -111 -77 -193.5t-143 -138t-184 -82t-201 -26.5q-106 0 -205.5 29.5t-171 89t-106.5 148.5t-10 210zM543 707q-6 -33 5 -56.5t30.5 -41t45 -31t48.5 -25.5l315 -170q27 18 46.5 50t23.5 61q6 31 -5.5 54t-29.5 41.5t-43 32t-47 25.5l-309 170q-33 -16 -54.5 -46 t-25.5 -64z" />
<glyph unicode="&#xa8;" horiz-adv-x="1236" d="M381 1438q6 41 28.5 77.5t54.5 64.5t70.5 43t81.5 15q84 0 133.5 -58t34.5 -142q-6 -43 -27.5 -79t-53 -63.5t-70.5 -43t-80 -15.5q-86 0 -136 57.5t-36 143.5zM905 1438q6 41 28.5 77.5t54.5 64.5t71 43t82 15q84 0 133 -58t35 -142q-6 -43 -27.5 -79t-53.5 -63.5 t-71 -43t-80 -15.5q-86 0 -136 57.5t-36 143.5z" />
<glyph unicode="&#xa9;" horiz-adv-x="1638" d="M131 770q27 170 114 318.5t214 259t284.5 174t327.5 63.5t307.5 -63.5t229.5 -174t132 -259t13 -318.5q-27 -168 -114 -315.5t-214 -258t-284.5 -174t-327.5 -63.5t-307 63.5t-229.5 174t-132.5 258t-13 315.5zM324 770q-20 -135 8 -248.5t98 -195.5t175.5 -128 t238.5 -46q131 0 250.5 46t216 128t163 195.5t87.5 248.5q23 137 -7 251t-101 196.5t-176.5 129t-236.5 46.5q-133 0 -253.5 -46.5t-216 -129t-160 -196.5t-86.5 -251zM526 778q16 102 60.5 187.5t112 149t155.5 98t193 34.5q147 0 240 -81t95 -226h-184q-2 76 -52 113 t-126 37q-61 0 -111.5 -26t-89.5 -68t-63.5 -97t-34.5 -117q-8 -57 0 -113.5t34.5 -100.5t69.5 -71.5t103 -27.5q72 0 137 42t82 116h184q-20 -74 -63 -132.5t-100.5 -99.5t-125 -62.5t-139.5 -21.5q-102 0 -179 37t-126 99.5t-67.5 147.5t-4.5 183z" />
<glyph unicode="&#xaa;" horiz-adv-x="837" d="M221 1249q10 68 45 129.5t87.5 107.5t120 72.5t142.5 26.5q59 0 112.5 -20.5t84.5 -61.5l10 62h242l-100 -631h-242l12 70h-4q-39 -47 -99.5 -69t-119.5 -22q-76 0 -135.5 28t-97 74t-53 106.5t-5.5 127.5zM471 1249q-10 -59 28.5 -101t104.5 -42t117 42t61 101 t-28.5 101.5t-104.5 42.5t-117 -42t-61 -102z" />
<glyph unicode="&#xab;" horiz-adv-x="1234" d="M158 655l272 -503l234 147l-207 356l315 363l-182 141zM668 655l272 -503l234 147l-207 356l315 363l-182 141z" />
<glyph unicode="&#xac;" d="M276 618h742l-53 -329h307l102 637h-1048z" />
<glyph unicode="&#xad;" horiz-adv-x="802" d="M188 504h586l49 307h-585z" />
<glyph unicode="&#xae;" horiz-adv-x="1638" d="M131 770q27 170 114 318.5t214 259t284.5 174t327.5 63.5t307.5 -63.5t229.5 -174t132 -259t13 -318.5q-27 -168 -114 -315.5t-214 -258t-284.5 -174t-327.5 -63.5t-307 63.5t-229.5 174t-132.5 258t-13 315.5zM324 770q-20 -135 8 -248.5t98 -195.5t175.5 -128 t238.5 -46q131 0 250.5 46t216 128t163 195.5t87.5 248.5q23 137 -7 251t-101 196.5t-176.5 129t-236.5 46.5q-133 0 -253.5 -46.5t-216 -129t-160 -196.5t-86.5 -251zM553 358l133 844h410q74 0 132 -9t97 -37t54.5 -78t2.5 -134q-18 -117 -84.5 -169t-181.5 -60l150 -357 h-205l-133 357h-131l-56 -357h-188zM817 842h225q72 0 114 23.5t54 103.5q6 33 -9 50t-41.5 25.5t-60.5 9.5t-65 1h-182z" />
<glyph unicode="&#xaf;" horiz-adv-x="1234" d="M362 1321h926l35 219h-926z" />
<glyph unicode="&#xb0;" horiz-adv-x="819" d="M305 1276q8 63 41 119.5t81 98.5t108.5 66.5t123.5 24.5t115.5 -24.5t87.5 -66.5t51.5 -98.5t6.5 -119.5t-44 -118.5t-83.5 -96.5t-108.5 -65.5t-123 -24.5q-63 0 -115.5 24.5t-87 65.5t-49 96t-4.5 119zM479 1278q-10 -55 24 -94t89 -39t99 39t54 94q8 53 -24.5 93 t-89.5 40q-53 0 -99.5 -40t-52.5 -93z" />
<glyph unicode="&#xb1;" d="M178 0h1049l49 307h-1049zM295 741h371l-45 -290h307l45 290h370l50 308h-371l47 290h-307l-47 -290h-371z" />
<glyph unicode="&#xb2;" horiz-adv-x="843" d="M109 643l477 412q49 43 94 102.5t55 124.5q8 43 -18.5 81t-77.5 38q-70 0 -99.5 -45t-29.5 -107h-287q31 160 148.5 258.5t298.5 98.5q80 0 146.5 -22.5t112.5 -65.5t67.5 -104.5t9.5 -137.5q-16 -100 -68.5 -164.5t-140.5 -130.5l-179 -135h328l-31 -203h-806z" />
<glyph unicode="&#xb3;" horiz-adv-x="843" d="M158 944h266q-10 -55 23.5 -92t95.5 -37q59 0 104 33t55 90q8 53 -28.5 88t-89.5 35q-12 0 -23.5 -2t-23.5 -4l24 159h27q51 0 87 28t44 75q6 41 -18.5 66.5t-69.5 25.5q-49 0 -83 -30.5t-40 -75.5h-242q39 145 151.5 224t268.5 79q68 0 124 -17.5t94 -52.5t54.5 -84 t6.5 -115q-8 -55 -42 -108t-94 -82q39 -8 66 -32.5t42 -57.5t20.5 -71t-1.5 -73q-12 -76 -54 -132t-102.5 -95t-134 -58.5t-147.5 -19.5q-86 0 -158.5 23.5t-123.5 81.5q-41 41 -65.5 106.5t-12.5 124.5z" />
<glyph unicode="&#xb4;" horiz-adv-x="823" d="M365 1327l145 -121l399 310l-200 163z" />
<glyph unicode="&#xb5;" horiz-adv-x="1349" d="M33 -524l250 1575h372l-88 -562q-8 -49 -7 -91t16.5 -72.5t49 -47t91.5 -16.5q57 0 96 16.5t64.5 47t40 72.5t22.5 91l88 562h373l-101 -633q-20 -133 -81.5 -221t-141.5 -139.5t-167 -72t-158 -20.5q-98 0 -160 33t-92 68l-94 -590h-373z" />
<glyph unicode="&#xb6;" d="M262 1034q4 92 52 184.5t122 164t165 116.5t181 45h772l-28 -186h-135l-271 -1706h-207l271 1704h-191l-270 -1704h-207l150 942q-88 8 -164 33.5t-131.5 76t-85 131t-23.5 199.5z" />
<glyph unicode="&#xb7;" horiz-adv-x="702" d="M197 524q8 49 33.5 93.5t62.5 77t84 51t96 18.5t90 -18.5t68.5 -51t40 -77t4.5 -93.5t-34 -93t-63.5 -75.5t-85 -51t-96.5 -19.5t-90 19.5t-68.5 51t-39 75.5t-2.5 93z" />
<glyph unicode="&#xb8;" horiz-adv-x="778" d="M92 -385l144 -100l356 292l-182 132z" />
<glyph unicode="&#xb9;" horiz-adv-x="843" d="M408 1366h143l-115 -723h260l146 926h-404z" />
<glyph unicode="&#xba;" horiz-adv-x="839" d="M209 1249q12 80 55 142.5t106.5 105.5t141.5 65.5t160 22.5t152.5 -22.5t120.5 -65.5t73.5 -105.5t11.5 -142.5t-56 -142.5t-107.5 -105.5t-141.5 -65.5t-160 -22.5t-152.5 22.5t-120.5 65.5t-72.5 105.5t-10.5 142.5zM465 1249q-10 -59 27.5 -100t103.5 -41t117 41 t61 100t-28.5 100.5t-104.5 41.5t-116 -41t-60 -101z" />
<glyph unicode="&#xbb;" horiz-adv-x="1234" d="M156 299l188 -147l432 503l-272 504l-228 -141l201 -363zM666 299l188 -147l432 503l-272 504l-228 -141l201 -363z" />
<glyph unicode="&#xbc;" horiz-adv-x="2107" d="M418 1341h143l-115 -723h261l145 926h-403zM424 0h201l1140 1544h-200zM1083 193h488l-31 -193h242l30 193h121l29 184h-121l88 549h-342l-479 -580zM1362 375l291 356h4l-58 -356h-237z" />
<glyph unicode="&#xbd;" horiz-adv-x="2107" d="M367 0l1140 1544h201l-1141 -1544h-200zM418 1341l31 203h403l-145 -926h-261l115 723h-143zM1096 0l477 412q49 43 94 102t55 125q8 43 -17.5 81t-76.5 38q-70 0 -100.5 -45t-30.5 -107h-287q16 84 56.5 149.5t99.5 111.5t133 71t158 25q80 0 146.5 -22.5t112.5 -66 t67.5 -104.5t9.5 -137q-16 -100 -68.5 -164.5t-140.5 -130.5l-176 -135h327l-32 -203h-807z" />
<glyph unicode="&#xbe;" horiz-adv-x="2107" d="M242 883h266q-8 -55 24 -92q33 -37 95 -37q59 0 104 32.5t55 90.5q8 53 -28.5 87.5t-89.5 34.5q-12 0 -23.5 -2t-23.5 -4l24 160h27q51 0 87 27.5t44 74.5q6 41 -18.5 67t-69.5 26q-49 0 -82 -31t-41 -76h-242q18 74 58.5 131.5t96.5 95t123.5 57t141.5 19.5 q68 0 124 -17.5t94 -52t55.5 -84t7.5 -114.5q-10 -55 -44 -108.5t-94 -82.5q39 -8 66 -32.5t42 -57t20.5 -70.5t-1.5 -73q-12 -76 -54 -132t-102.5 -95t-134 -58.5t-147.5 -19.5q-86 0 -157.5 23.5t-125.5 80.5q-39 41 -64.5 106.5t-12.5 125.5zM600 0l1141 1544h201 l-1141 -1544h-201zM1186 193l24 153l480 580h342l-88 -549h120l-28 -184h-121l-31 -193h-242l31 193h-487zM1464 375h238l57 356h-4z" />
<glyph unicode="&#xbf;" horiz-adv-x="1218" d="M82 -59q14 86 54 156.5t98.5 126t133 95t156.5 64.5l23 145h375l-64 -397q-45 10 -84 10q-43 0 -92 -12t-92 -37.5t-74 -63.5t-39 -89q-10 -63 25 -108.5t100 -45.5q72 0 115 45t53 111h408q-18 -117 -80 -207t-150 -150.5t-193.5 -92.5t-213.5 -32q-98 0 -185.5 31 t-152.5 96q-66 66 -101.5 159t-19.5 196zM539 850q8 49 33.5 93t62.5 77t84 51.5t96 18.5t90 -18.5t68.5 -51.5t40 -77t4.5 -93t-34 -93t-63.5 -76t-85 -51.5t-96.5 -19.5t-90 19.5t-67.5 51.5t-39 76t-3.5 93z" />
<glyph unicode="&#xc0;" horiz-adv-x="1599" d="M-8 0h426l149 268h553l58 -268h428l-338 1544h-439zM727 575l244 492h4l86 -492h-334zM811 1948l301 -310l184 121l-233 352z" />
<glyph unicode="&#xc1;" horiz-adv-x="1599" d="M-8 0h426l149 268h553l58 -268h428l-338 1544h-439zM727 575l244 492h4l86 -492h-334zM862 1759l148 -121l399 310l-203 163z" />
<glyph unicode="&#xc2;" horiz-adv-x="1599" d="M-8 0h426l149 268h553l58 -268h428l-338 1544h-439zM635 1794l123 -172l332 227l258 -227l186 172l-399 336zM727 575l244 492h4l86 -492h-334z" />
<glyph unicode="&#xc3;" horiz-adv-x="1599" d="M-8 0l837 1544h439l338 -1544h-428l-58 268h-553l-149 -268h-426zM662 1694l2 22q8 51 30.5 103.5t57 95.5t82 70.5t104.5 27.5q39 0 83 -11t87 -23.5t82 -23.5t70 -11q39 0 58 20.5t36 52.5h174q-12 -55 -39 -112.5t-67 -104.5t-93 -76.5t-119 -29.5q-39 0 -76.5 12 t-75.5 25.5t-74 25.5t-73 12t-52.5 -23t-29.5 -52h-167zM727 575h334l-86 492h-4z" />
<glyph unicode="&#xc4;" horiz-adv-x="1599" d="M-8 0l837 1544h439l338 -1544h-428l-58 268h-553l-149 -268h-426zM633 1870q6 41 27.5 78t53 64.5t70.5 43t82 15.5q84 0 133.5 -58.5t36.5 -142.5q-6 -43 -28.5 -79t-54 -63.5t-70.5 -43t-80 -15.5q-86 0 -135.5 57.5t-34.5 143.5zM727 575h334l-86 492h-4zM1157 1870 q6 41 27.5 78t53.5 64.5t71 43t82 15.5q84 0 133 -58.5t37 -142.5q-6 -43 -29 -79t-54.5 -63.5t-70.5 -43t-80 -15.5q-86 0 -135 57.5t-35 143.5z" />
<glyph unicode="&#xc5;" horiz-adv-x="1599" d="M-8 0l837 1544h439l338 -1544h-428l-58 268h-553l-149 -268h-426zM727 575h334l-86 492h-4zM776 1833q10 66 44 112t82 73.5t106.5 40t115.5 12.5t112.5 -11.5t96.5 -39t61.5 -72.5t10.5 -113q-10 -66 -45 -111t-83 -72.5t-105.5 -40t-114.5 -12.5t-111.5 11.5t-96.5 39 t-62.5 71.5t-10.5 112zM971 1835q-8 -49 27.5 -68.5t78.5 -19.5q41 0 83 19.5t50 68.5t-27.5 68.5t-76.5 19.5q-43 0 -85 -19.5t-50 -68.5z" />
<glyph unicode="&#xc6;" horiz-adv-x="2101" d="M-8 0h424l139 268h559l57 -268h930l-69 340h-508l-58 266h510l-75 340h-506l-54 258h508l-71 340h-947zM715 575l246 459l94 -459h-340z" />
<glyph unicode="&#xc7;" horiz-adv-x="1351" d="M176 770q27 168 114 316.5t214 259t286.5 175t329.5 64.5q98 0 183.5 -20.5t171.5 -57.5l-78 -481q-47 84 -134 127t-192 43q-92 0 -173 -33t-144.5 -91t-105.5 -136t-56 -168q-14 -92 4 -169t64.5 -132t118 -87t165.5 -32q98 0 197.5 44t175.5 120l-78 -481 q-104 -31 -187 -51.5t-178 -20.5q-162 0 -301 58.5t-243 168.5q-111 117 -147 263.5t-7 320.5zM430 -385l318 324l182 -132l-357 -292z" />
<glyph unicode="&#xc8;" horiz-adv-x="1126" d="M131 0h879l53 340h-477l43 266h452l54 340h-453l41 258h477l53 340h-878zM614 1948l301 -310l185 121l-234 352z" />
<glyph unicode="&#xc9;" horiz-adv-x="1126" d="M131 0h879l53 340h-477l43 266h452l54 340h-453l41 258h477l53 340h-878zM584 1759l147 -121l399 310l-202 163z" />
<glyph unicode="&#xca;" horiz-adv-x="1126" d="M131 0h879l53 340h-477l43 266h452l54 340h-453l41 258h477l53 340h-878zM397 1794l123 -172l332 227l258 -227l186 172l-399 336z" />
<glyph unicode="&#xcb;" horiz-adv-x="1126" d="M131 0l244 1544h878l-53 -340h-477l-41 -258h453l-54 -340h-452l-43 -266h477l-53 -340h-879zM395 1870q6 41 27.5 78t53.5 64.5t71 43t82 15.5q84 0 133 -58.5t37 -142.5q-6 -43 -28.5 -79t-54.5 -63.5t-71 -43t-80 -15.5q-86 0 -135 57.5t-35 143.5zM920 1870 q6 41 27.5 78t53 64.5t70.5 43t82 15.5q84 0 133 -58.5t37 -142.5q-6 -43 -28.5 -79t-54.5 -63.5t-71 -43t-79 -15.5q-86 0 -135.5 57.5t-34.5 143.5z" />
<glyph unicode="&#xcc;" horiz-adv-x="663" d="M131 0h401l244 1544h-401zM352 1948l301 -310l185 121l-234 352z" />
<glyph unicode="&#xcd;" horiz-adv-x="663" d="M131 0h401l244 1544h-401zM383 1759l147 -121l400 310l-203 163z" />
<glyph unicode="&#xce;" horiz-adv-x="663" d="M131 0h401l244 1544h-401zM197 1794l122 -172l332 227l258 -227l187 172l-400 336z" />
<glyph unicode="&#xcf;" horiz-adv-x="663" d="M131 0l244 1544h401l-244 -1544h-401zM164 1870q6 41 27.5 78t53 64.5t70.5 43t82 15.5q84 0 133.5 -58.5t36.5 -142.5q-6 -43 -28.5 -79t-54 -63.5t-70.5 -43t-80 -15.5q-86 0 -135 57.5t-35 143.5zM688 1870q6 41 27.5 78t53.5 64.5t71 43t82 15.5q84 0 133 -58.5 t37 -142.5q-6 -43 -29 -79t-54.5 -63.5t-70.5 -43t-80 -15.5q-86 0 -135 57.5t-35 143.5z" />
<glyph unicode="&#xd0;" horiz-adv-x="1540" d="M59 633l50 315h172l94 596h520q182 0 326.5 -57t238.5 -160.5t134 -245t14 -309.5q-27 -170 -114 -311.5t-215 -243.5t-288 -159.5t-336 -57.5h-524l100 633h-172zM586 340h90q90 0 175 25.5t153.5 78t117.5 134t68 194.5q16 104 -4.5 184t-69.5 135.5t-126 84t-173 28.5 h-94l-41 -256h225l-49 -315h-225z" />
<glyph unicode="&#xd1;" horiz-adv-x="1804" d="M131 0l244 1544h401l586 -944h4l150 944h401l-244 -1544h-401l-586 946h-4l-150 -946h-401zM764 1694l2 22q8 51 30.5 103.5t57.5 95.5t82 70.5t104 27.5q39 0 83 -11t87 -23.5t82 -23.5t70 -11q39 0 58.5 20.5t35.5 52.5h174q-12 -55 -38.5 -112.5t-66.5 -104.5 t-93.5 -76.5t-118.5 -29.5q-39 0 -77 12t-76 25.5t-73.5 25.5t-72.5 12t-52.5 -23t-29.5 -52h-168z" />
<glyph unicode="&#xd2;" horiz-adv-x="1816" d="M180 801q29 176 122 321.5t228.5 251t299 163.5t329.5 58t311.5 -58t248 -163.5t150.5 -251t19 -321.5q-31 -186 -119 -343t-220 -270.5t-298 -176t-352 -62.5t-332.5 62.5t-243 176t-135 270t-8.5 343.5zM598 799q-16 -100 5.5 -184.5t70.5 -145.5t122.5 -96t164.5 -35 q90 0 175 35t153.5 96t116.5 145t64 185q12 80 -10 153.5t-73.5 130t-125 90t-163.5 33.5t-175 -33.5t-153 -90t-114 -130t-58 -153.5zM920 1948l251 163l234 -352l-184 -121z" />
<glyph unicode="&#xd3;" horiz-adv-x="1816" d="M180 801q29 176 122 321.5t228.5 251t299 163.5t329.5 58t311.5 -58t248 -163.5t150.5 -251t19 -321.5q-31 -186 -119 -343t-220 -270.5t-298 -176t-352 -62.5t-332.5 62.5t-243 176t-135 270t-8.5 343.5zM598 799q-16 -100 5.5 -184.5t70.5 -145.5t122.5 -96t164.5 -35 q90 0 175 35t153.5 96t116.5 145t64 185q12 80 -10 153.5t-73.5 130t-125 90t-163.5 33.5t-175 -33.5t-153 -90t-114 -130t-58 -153.5zM971 1759l344 352l203 -163l-400 -310z" />
<glyph unicode="&#xd4;" horiz-adv-x="1816" d="M180 801q29 176 122 321.5t228.5 251t299 163.5t329.5 58t311.5 -58t248 -163.5t150.5 -251t19 -321.5q-31 -186 -119 -343t-220 -270.5t-298 -176t-352 -62.5t-332.5 62.5t-243 176t-135 270t-8.5 343.5zM598 799q-16 -100 5.5 -184.5t70.5 -145.5t122.5 -96t164.5 -35 q90 0 175 35t153.5 96t116.5 145t64 185q12 80 -10 153.5t-73.5 130t-125 90t-163.5 33.5t-175 -33.5t-153 -90t-114 -130t-58 -153.5zM743 1794l500 336l399 -336l-186 -172l-258 227l-332 -227z" />
<glyph unicode="&#xd5;" horiz-adv-x="1816" d="M180 801q29 176 122 321.5t228.5 251t299 163.5t329.5 58t311.5 -58t248 -163.5t150.5 -251t19 -321.5q-31 -186 -119 -343t-220 -270.5t-298 -176t-352 -62.5t-332.5 62.5t-243 176t-135 270t-8.5 343.5zM598 799q-16 -100 5.5 -184.5t70.5 -145.5t122.5 -96t164.5 -35 q90 0 175 35t153.5 96t116.5 145t64 185q12 80 -10 153.5t-73.5 130t-125 90t-163.5 33.5t-175 -33.5t-153 -90t-114 -130t-58 -153.5zM770 1694l2 22q8 51 30.5 103.5t57.5 95.5t82 70.5t105 27.5q39 0 83 -11t87 -23.5t81.5 -23.5t69.5 -11q39 0 58.5 20.5t35.5 52.5h174 q-12 -55 -38.5 -112.5t-66.5 -104.5t-93.5 -76.5t-118.5 -29.5q-39 0 -77 12t-76 25.5t-73.5 25.5t-72.5 12t-52.5 -23t-29.5 -52h-168z" />
<glyph unicode="&#xd6;" horiz-adv-x="1816" d="M180 801q29 176 122 321.5t228.5 251t299 163.5t329.5 58t311.5 -58t248 -163.5t150.5 -251t19 -321.5q-31 -186 -119 -343t-220 -270.5t-298 -176t-352 -62.5t-332.5 62.5t-243 176t-135 270t-8.5 343.5zM598 799q-16 -100 5.5 -184.5t70.5 -145.5t122.5 -96t164.5 -35 q90 0 175 35t153.5 96t116.5 145t64 185q12 80 -10 153.5t-73.5 130t-125 90t-163.5 33.5t-175 -33.5t-153 -90t-114 -130t-58 -153.5zM741 1870q6 41 28 78t53.5 64.5t70.5 43t82 15.5q84 0 133 -58.5t37 -142.5q-6 -43 -28.5 -79t-54.5 -63.5t-71 -43t-80 -15.5 q-86 0 -135 57.5t-35 143.5zM1266 1870q6 41 27.5 78t53 64.5t70.5 43t82 15.5q84 0 133 -58.5t37 -142.5q-6 -43 -28.5 -79t-54.5 -63.5t-70.5 -43t-79.5 -15.5q-86 0 -135.5 57.5t-34.5 143.5z" />
<glyph unicode="&#xd7;" d="M213 217l182 -217l357 307l258 -307l252 217l-258 307l352 310l-182 217l-355 -312l-258 312l-252 -217l262 -310z" />
<glyph unicode="&#xd8;" horiz-adv-x="1816" d="M55 82l213 182q-66 109 -89 243t1 294q29 176 122 321.5t228.5 251t299 163.5t329.5 58q141 0 265 -41t223 -118l225 190l133 -164l-213 -182q66 -96 92.5 -217t3.5 -262q-31 -186 -119 -343t-220 -270.5t-298 -176t-352 -62.5q-147 0 -271 40t-218 117l-220 -188z M598 799q-22 -134 25 -236l686 584q-43 29 -97.5 44t-113.5 15q-90 0 -175 -33.5t-153 -90t-114 -130t-58 -153.5zM754 397q88 -59 207 -59q90 0 175 35t153.5 96t116.5 145t64 185q17 102 -24 186z" />
<glyph unicode="&#xd9;" horiz-adv-x="1593" d="M208 385q-5 70 2 143.5t19 147.5l138 868h401l-127 -813q-12 -76 -18.5 -150.5t11 -134t67 -97.5t145.5 -38t156.5 38t97.5 97.5t55.5 134t30.5 150.5l127 813h401l-137 -868q-12 -74 -26.5 -147.5t-42 -143.5t-69.5 -134.5t-110 -119.5q-55 -47 -121.5 -80t-136.5 -53.5 t-141.5 -29.5t-138.5 -9q-68 0 -136.5 9t-133 29.5t-120 53.5t-96.5 80q-49 55 -70.5 119.5t-26.5 134.5zM807 1948l252 163l233 -352l-184 -121z" />
<glyph unicode="&#xda;" horiz-adv-x="1593" d="M208 385q-5 70 2 143.5t19 147.5l138 868h401l-127 -813q-12 -76 -18.5 -150.5t11 -134t67 -97.5t145.5 -38t156.5 38t97.5 97.5t55.5 134t30.5 150.5l127 813h401l-137 -868q-12 -74 -26.5 -147.5t-42 -143.5t-69.5 -134.5t-110 -119.5q-55 -47 -121.5 -80t-136.5 -53.5 t-141.5 -29.5t-138.5 -9q-68 0 -136.5 9t-133 29.5t-120 53.5t-96.5 80q-49 55 -70.5 119.5t-26.5 134.5zM858 1759l344 352l203 -163l-399 -310z" />
<glyph unicode="&#xdb;" horiz-adv-x="1593" d="M208 385q-5 70 2 143.5t19 147.5l138 868h401l-127 -813q-12 -76 -18.5 -150.5t11 -134t67 -97.5t145.5 -38t156.5 38t97.5 97.5t55.5 134t30.5 150.5l127 813h401l-137 -868q-12 -74 -26.5 -147.5t-42 -143.5t-69.5 -134.5t-110 -119.5q-55 -47 -121.5 -80t-136.5 -53.5 t-141.5 -29.5t-138.5 -9q-68 0 -136.5 9t-133 29.5t-120 53.5t-96.5 80q-49 55 -70.5 119.5t-26.5 134.5zM631 1794l499 336l400 -336l-187 -172l-258 227l-331 -227z" />
<glyph unicode="&#xdc;" horiz-adv-x="1593" d="M208 385q-5 70 2 143.5t19 147.5l138 868h401l-127 -813q-12 -76 -18.5 -150.5t11 -134t67 -97.5t145.5 -38t156.5 38t97.5 97.5t55.5 134t30.5 150.5l127 813h401l-137 -868q-12 -74 -26.5 -147.5t-42 -143.5t-69.5 -134.5t-110 -119.5q-55 -47 -121.5 -80t-136.5 -53.5 t-141.5 -29.5t-138.5 -9q-68 0 -136.5 9t-133 29.5t-120 53.5t-96.5 80q-49 55 -70.5 119.5t-26.5 134.5zM629 1870q6 41 27.5 78t53 64.5t70.5 43t82 15.5q84 0 133 -58.5t37 -142.5q-6 -43 -28.5 -79t-54 -63.5t-70.5 -43t-80 -15.5q-86 0 -135.5 57.5t-34.5 143.5z M1153 1870q6 41 27.5 78t53.5 64.5t70.5 43t81.5 15.5q84 0 133.5 -58.5t36.5 -142.5q-6 -43 -28.5 -79t-54 -63.5t-70.5 -43t-80 -15.5q-86 0 -135 57.5t-35 143.5z" />
<glyph unicode="&#xdd;" horiz-adv-x="1462" d="M205 1544l442 -803l-117 -741h402l117 741l696 803h-481l-355 -420l-223 420h-481zM834 1759l147 -121l399 310l-202 163z" />
<glyph unicode="&#xde;" horiz-adv-x="1353" d="M131 0l244 1544h401l-39 -246h213q125 0 223.5 -29.5t163 -91t91 -157.5t4.5 -229q-43 -272 -205 -398.5t-424 -126.5h-228l-43 -266h-401zM627 590h67q55 0 107.5 3t95.5 20.5t73.5 56.5t41.5 108q12 74 -5.5 114t-54.5 58.5t-88 21.5t-110 3h-68z" />
<glyph unicode="&#xdf;" horiz-adv-x="1333" d="M113 608l47 297h106l47 301q16 104 55.5 204.5t133.5 174.5q92 74 204.5 104.5t221.5 30.5q104 0 192 -28.5t148.5 -85t88 -141.5t9.5 -197q-16 -111 -75.5 -183.5t-157.5 -138.5q72 -31 122 -67.5t80.5 -89t38.5 -120t-6 -159.5q-8 -53 -27.5 -110.5t-48 -113 t-66.5 -103.5t-85 -83q-100 -78 -225 -106.5t-238 -28.5h-80l51 318q119 0 207 62.5t109 184.5q16 113 -47.5 181.5t-169.5 68.5h-21l47 297q88 0 151.5 35t78.5 131q12 72 -24 114t-108 42q-55 0 -89.5 -20.5t-55 -53.5t-31 -75t-16.5 -85l-184 -1165h-373l96 608h-106z " />
<glyph unicode="&#xe0;" horiz-adv-x="1396" d="M131 526q18 113 72.5 214.5t135.5 178t185.5 121.5t220.5 45q92 0 174 -33.5t130 -103.5l16 103h373l-166 -1051h-373l19 117h-5q-61 -78 -155 -115t-187 -37q-117 0 -207 45t-148 122t-80.5 179.5t-4.5 214.5zM516 524q-16 -100 35 -167.5t166 -67.5t188.5 67.5 t89.5 167.5q16 96 -35.5 167t-166.5 71q-57 0 -104.5 -19.5t-83.5 -51.5t-58.5 -75t-30.5 -92zM680 1516l254 163l233 -352l-186 -121z" />
<glyph unicode="&#xe1;" horiz-adv-x="1396" d="M131 526q18 113 72.5 214.5t135.5 178t185.5 121.5t220.5 45q92 0 174 -33.5t130 -103.5l16 103h373l-166 -1051h-373l19 117h-5q-61 -78 -155 -115t-187 -37q-117 0 -207 45t-148 122t-80.5 179.5t-4.5 214.5zM516 524q-16 -100 35 -167.5t166 -67.5t188.5 67.5 t89.5 167.5q16 96 -35.5 167t-166.5 71q-57 0 -104.5 -19.5t-83.5 -51.5t-58.5 -75t-30.5 -92zM692 1327l344 352l201 -163l-399 -310z" />
<glyph unicode="&#xe2;" horiz-adv-x="1396" d="M131 526q18 113 72.5 214.5t135.5 178t185.5 121.5t220.5 45q92 0 174 -33.5t130 -103.5l16 103h373l-166 -1051h-373l19 117h-5q-61 -78 -155 -115t-187 -37q-117 0 -207 45t-148 122t-80.5 179.5t-4.5 214.5zM463 1362l500 336l399 -336l-184 -172l-258 227l-332 -227z M516 524q-16 -100 35 -167.5t166 -67.5t188.5 67.5t89.5 167.5q16 96 -35.5 167t-166.5 71q-57 0 -104.5 -19.5t-83.5 -51.5t-58.5 -75t-30.5 -92z" />
<glyph unicode="&#xe3;" horiz-adv-x="1396" d="M131 526q18 113 72.5 214.5t135.5 178t185.5 121.5t220.5 45q92 0 174 -33.5t130 -103.5l16 103h373l-166 -1051h-373l19 117h-5q-61 -78 -155 -115t-187 -37q-117 0 -207 45t-148 122t-80.5 179.5t-4.5 214.5zM494 1262v22q8 51 30.5 103.5t57 95.5t82 70.5t104.5 27.5 q39 0 83 -11t87 -23.5t83 -24t71 -11.5q39 0 57 20.5t37 53.5h174q-14 -55 -41 -112.5t-67 -104.5t-92 -76.5t-118 -29.5q-39 0 -77.5 12t-75.5 25.5t-74 25.5t-74 12t-51 -23t-28 -52h-168zM516 524q-16 -100 35 -167.5t166 -67.5t188.5 67.5t89.5 167.5q16 96 -35.5 167 t-166.5 71q-57 0 -104.5 -19.5t-83.5 -51.5t-58.5 -75t-30.5 -92z" />
<glyph unicode="&#xe4;" horiz-adv-x="1396" d="M131 526q18 113 72.5 214.5t135.5 178t185.5 121.5t220.5 45q92 0 174 -33.5t130 -103.5l16 103h373l-166 -1051h-373l19 117h-5q-61 -78 -155 -115t-187 -37q-117 0 -207 45t-148 122t-80.5 179.5t-4.5 214.5zM461 1438q6 41 28.5 77.5t54 64.5t70.5 43t82 15 q84 0 133.5 -58t34.5 -142q-6 -43 -27.5 -79t-53 -63.5t-70.5 -43t-80 -15.5q-86 0 -136.5 57.5t-35.5 143.5zM516 524q-16 -100 35 -167.5t166 -67.5t188.5 67.5t89.5 167.5q16 96 -35.5 167t-166.5 71q-57 0 -104.5 -19.5t-83.5 -51.5t-58.5 -75t-30.5 -92zM985 1438 q6 41 28.5 77.5t54.5 64.5t71 43t82 15q84 0 133 -58t35 -142q-6 -43 -28 -79t-53.5 -63.5t-70.5 -43t-80 -15.5q-86 0 -136 57.5t-36 143.5z" />
<glyph unicode="&#xe5;" horiz-adv-x="1396" d="M131 526q18 113 72.5 214.5t135.5 178t185.5 121.5t220.5 45q92 0 174 -33.5t130 -103.5l16 103h373l-166 -1051h-373l19 117h-5q-61 -78 -155 -115t-187 -37q-117 0 -207 45t-148 122t-80.5 179.5t-4.5 214.5zM516 524q-16 -100 35 -167.5t166 -67.5t188.5 67.5 t89.5 167.5q16 96 -35.5 167t-166.5 71q-57 0 -104.5 -19.5t-83.5 -51.5t-58.5 -75t-30.5 -92zM612 1432q10 66 44 111.5t82 73.5t107 40t116 12t112 -11t96 -39t61.5 -73t10.5 -112q-10 -66 -45 -111t-83 -72.5t-105.5 -40t-114.5 -12.5t-111.5 11.5t-96.5 39t-62.5 71.5 t-10.5 112zM807 1434q-8 -49 27.5 -68.5t78.5 -19.5q41 0 83 19t51 69q8 49 -28 68.5t-77 19.5q-43 0 -85 -19.5t-50 -68.5z" />
<glyph unicode="&#xe6;" horiz-adv-x="1925" d="M90 303q16 94 63.5 160.5t114 108.5t148.5 61.5t164 19.5q76 0 138 -12t128 -41l6 31q8 55 -7.5 90t-48 56.5t-75.5 29.5t-90 8q-78 0 -151.5 -17.5t-149.5 -39.5l43 278q78 20 156.5 34.5t156.5 14.5q55 0 112.5 -9t107.5 -30.5t89 -57.5t58 -89q39 47 89 83t106.5 58.5 t114.5 33.5t114 11q137 0 237.5 -40.5t161.5 -116.5t83.5 -183.5t0.5 -242.5l-6 -39h-785q-18 -115 31 -174.5t166 -59.5q59 0 106.5 21.5t86.5 75.5h358q-35 -90 -97.5 -158t-141.5 -113t-170 -67.5t-183 -22.5q-61 0 -122.5 10.5t-116 34t-94.5 63.5t-56 99 q-92 -98 -214 -152.5t-245 -54.5q-76 0 -150.5 20.5t-131 61.5t-87 105.5t-18.5 150.5zM459 334q-6 -33 7 -54.5t35.5 -35t51.5 -18.5t55 -5q23 0 55.5 5t64.5 18.5t55.5 35t29.5 52.5q6 35 -12.5 57.5t-47 34.5t-61 17t-59.5 5q-25 0 -53.5 -6t-54 -19t-44 -34.5 t-22.5 -52.5zM1214 678h433q-2 76 -55.5 121t-129.5 45q-82 0 -149.5 -42t-98.5 -124z" />
<glyph unicode="&#xe7;" horiz-adv-x="989" d="M129 514q20 127 81.5 232.5t153 180t206 116.5t237.5 42q135 0 235 -61l-49 -315q-37 31 -82 52t-98 21t-103.5 -19.5t-90 -54t-67.5 -80.5t-36 -102q-18 -115 43.5 -186.5t177.5 -71.5q49 0 102.5 18.5t94.5 53.5l-49 -315q-66 -31 -135.5 -45.5t-137.5 -14.5 q-117 0 -214 41t-163.5 115t-95 174t-10.5 219zM199 -385l317 324l182 -132l-356 -292z" />
<glyph unicode="&#xe8;" horiz-adv-x="1249" d="M129 524q20 131 79.5 235.5t147.5 176.5t201 110.5t242 38.5q137 0 237.5 -40.5t162 -116.5t84 -183.5t-0.5 -242.5l-6 -39h-784q-18 -115 30.5 -174.5t165.5 -59.5q59 0 106.5 21.5t86.5 75.5h358q-35 -90 -97.5 -158t-141 -113t-170 -67.5t-183.5 -22.5 q-131 0 -236.5 37t-175 107.5t-98 175t-8.5 239.5zM530 678h433q-2 76 -55.5 121t-129.5 45q-82 0 -149.5 -42t-98.5 -124zM555 1516l254 163l233 -352l-186 -121z" />
<glyph unicode="&#xe9;" horiz-adv-x="1249" d="M129 524q20 131 79.5 235.5t147.5 176.5t201 110.5t242 38.5q137 0 237.5 -40.5t162 -116.5t84 -183.5t-0.5 -242.5l-6 -39h-784q-18 -115 30.5 -174.5t165.5 -59.5q59 0 106.5 21.5t86.5 75.5h358q-35 -90 -97.5 -158t-141 -113t-170 -67.5t-183.5 -22.5 q-131 0 -236.5 37t-175 107.5t-98 175t-8.5 239.5zM530 678h433q-2 76 -55.5 121t-129.5 45q-82 0 -149.5 -42t-98.5 -124zM629 1327l344 352l201 -163l-400 -310z" />
<glyph unicode="&#xea;" horiz-adv-x="1249" d="M129 524q20 131 79.5 235.5t147.5 176.5t201 110.5t242 38.5q137 0 237.5 -40.5t162 -116.5t84 -183.5t-0.5 -242.5l-6 -39h-784q-18 -115 30.5 -174.5t165.5 -59.5q59 0 106.5 21.5t86.5 75.5h358q-35 -90 -97.5 -158t-141 -113t-170 -67.5t-183.5 -22.5 q-131 0 -236.5 37t-175 107.5t-98 175t-8.5 239.5zM389 1362l500 336l399 -336l-184 -172l-258 227l-332 -227zM530 678h433q-2 76 -55.5 121t-129.5 45q-82 0 -149.5 -42t-98.5 -124z" />
<glyph unicode="&#xeb;" horiz-adv-x="1249" d="M129 524q20 131 79.5 235.5t147.5 176.5t201 110.5t242 38.5q137 0 237.5 -40.5t162 -116.5t84 -183.5t-0.5 -242.5l-6 -39h-784q-18 -115 30.5 -174.5t165.5 -59.5q59 0 106.5 21.5t86.5 75.5h358q-35 -90 -97.5 -158t-141 -113t-170 -67.5t-183.5 -22.5 q-131 0 -236.5 37t-175 107.5t-98 175t-8.5 239.5zM387 1438q6 41 28.5 77.5t54.5 64.5t71 43t82 15q84 0 133 -58t35 -142q-6 -43 -28 -79t-53.5 -63.5t-70.5 -43t-80 -15.5q-86 0 -136 57.5t-36 143.5zM530 678h433q-2 76 -55.5 121t-129.5 45q-82 0 -149.5 -42 t-98.5 -124zM911 1438q6 41 29 77.5t54.5 64.5t70.5 43t82 15q84 0 133 -58t35 -142q-6 -43 -27.5 -79t-53.5 -63.5t-71 -43t-80 -15.5q-86 0 -136 57.5t-36 143.5z" />
<glyph unicode="&#xec;" horiz-adv-x="618" d="M123 0h373l166 1051h-373zM260 1516l301 -310l187 121l-234 352z" />
<glyph unicode="&#xed;" horiz-adv-x="618" d="M123 0h373l166 1051h-373zM293 1327l145 -121l400 310l-201 163z" />
<glyph unicode="&#xee;" horiz-adv-x="618" d="M74 1362l125 -172l331 227l258 -227l185 172l-400 336zM123 0h373l166 1051h-373z" />
<glyph unicode="&#xef;" horiz-adv-x="618" d="M72 1438q6 41 28.5 77.5t54 64.5t70.5 43t82 15q84 0 133 -58t35 -142q-6 -43 -27.5 -79t-53.5 -63.5t-70.5 -43t-79.5 -15.5q-86 0 -136.5 57.5t-35.5 143.5zM123 0l166 1051h373l-166 -1051h-373zM596 1438q6 41 28.5 77.5t54.5 64.5t70.5 43t81.5 15q84 0 133.5 -58 t34.5 -142q-6 -43 -27.5 -79t-53 -63.5t-70.5 -43t-80 -15.5q-86 0 -136 57.5t-36 143.5z" />
<glyph unicode="&#xf0;" horiz-adv-x="1355" d="M127 522q20 127 86 227.5t156 170t195.5 105.5t207.5 36q39 0 66.5 -4t52.5 -8q-41 61 -90 120.5t-105 108.5l-288 -141l-113 145l242 119q-100 72 -211 123l249 213q76 -37 125.5 -63.5t81 -45t52 -33t38.5 -28.5l283 137l109 -150l-230 -112q84 -82 162 -167 t132 -184.5t78 -217t1 -265.5q-27 -170 -101.5 -291.5t-177 -199.5t-224.5 -115t-245 -37q-98 0 -201.5 32t-185.5 99.5t-125 173t-20 252.5zM522 524q-16 -100 35 -167.5t166 -67.5t188.5 67.5t89.5 167.5q16 96 -35.5 167t-166.5 71q-57 0 -104.5 -19.5t-83.5 -51.5 t-58.5 -75t-30.5 -92z" />
<glyph unicode="&#xf1;" horiz-adv-x="1353" d="M123 0l166 1051h373l-21 -136h4q80 96 166 133t197 37q106 0 175.5 -31.5t108.5 -89t48.5 -138.5t-7.5 -177l-102 -649h-373l82 512q6 37 13.5 85t-1 91t-38 71.5t-99.5 28.5q-57 0 -97 -19t-67.5 -53t-44 -78t-24.5 -93l-86 -545h-373zM471 1262v22q8 51 30.5 103.5 t57.5 95.5t82 70.5t104 27.5q39 0 83 -11t87 -23.5t83 -24t71 -11.5q39 0 57.5 20.5t36.5 53.5h174q-14 -55 -40.5 -112.5t-66.5 -104.5t-92.5 -76.5t-117.5 -29.5q-39 0 -78 12t-76 25.5t-73.5 25.5t-73.5 12t-51.5 -23t-28.5 -52h-168z" />
<glyph unicode="&#xf2;" horiz-adv-x="1355" d="M129 524q20 135 88 239.5t166 176.5t219 108.5t248 36.5t235.5 -36.5t184.5 -108.5t110.5 -176.5t14.5 -239.5q-20 -133 -89 -237.5t-167.5 -176t-219 -108.5t-247.5 -37q-125 0 -234.5 37t-184.5 108.5t-109.5 175t-14.5 238.5zM522 524q-16 -100 35 -167.5t166 -67.5 t188.5 67.5t89.5 167.5q16 96 -35.5 167t-166.5 71q-57 0 -104.5 -19.5t-83.5 -51.5t-58.5 -75t-30.5 -92zM608 1516l254 163l234 -352l-187 -121z" />
<glyph unicode="&#xf3;" horiz-adv-x="1355" d="M129 524q20 135 88 239.5t166 176.5t219 108.5t248 36.5t235.5 -36.5t184.5 -108.5t110.5 -176.5t14.5 -239.5q-20 -133 -89 -237.5t-167.5 -176t-219 -108.5t-247.5 -37q-125 0 -234.5 37t-184.5 108.5t-109.5 175t-14.5 238.5zM522 524q-16 -100 35 -167.5t166 -67.5 t188.5 67.5t89.5 167.5q16 96 -35.5 167t-166.5 71q-57 0 -104.5 -19.5t-83.5 -51.5t-58.5 -75t-30.5 -92zM682 1327l344 352l201 -163l-400 -310z" />
<glyph unicode="&#xf4;" horiz-adv-x="1355" d="M129 524q20 135 88 239.5t166 176.5t219 108.5t248 36.5t235.5 -36.5t184.5 -108.5t110.5 -176.5t14.5 -239.5q-20 -133 -89 -237.5t-167.5 -176t-219 -108.5t-247.5 -37q-125 0 -234.5 37t-184.5 108.5t-109.5 175t-14.5 238.5zM442 1362l500 336l399 -336l-184 -172 l-258 227l-332 -227zM522 524q-16 -100 35 -167.5t166 -67.5t188.5 67.5t89.5 167.5q16 96 -35.5 167t-166.5 71q-57 0 -104.5 -19.5t-83.5 -51.5t-58.5 -75t-30.5 -92z" />
<glyph unicode="&#xf5;" horiz-adv-x="1355" d="M129 524q20 135 88 239.5t166 176.5t219 108.5t248 36.5t235.5 -36.5t184.5 -108.5t110.5 -176.5t14.5 -239.5q-20 -133 -89 -237.5t-167.5 -176t-219 -108.5t-247.5 -37q-125 0 -234.5 37t-184.5 108.5t-109.5 175t-14.5 238.5zM473 1262v22q8 51 30.5 103.5t57.5 95.5 t82 70.5t105 27.5q39 0 82.5 -11t87 -23.5t83 -24t70.5 -11.5q39 0 57.5 20.5t36.5 53.5h174q-14 -55 -40.5 -112.5t-66.5 -104.5t-92.5 -76.5t-117.5 -29.5q-39 0 -78 12t-76 25.5t-73.5 25.5t-73.5 12t-51.5 -23t-28.5 -52h-168zM522 524q-16 -100 35 -167.5t166 -67.5 t188.5 67.5t89.5 167.5q16 96 -35.5 167t-166.5 71q-57 0 -104.5 -19.5t-83.5 -51.5t-58.5 -75t-30.5 -92z" />
<glyph unicode="&#xf6;" horiz-adv-x="1355" d="M129 524q20 135 88 239.5t166 176.5t219 108.5t248 36.5t235.5 -36.5t184.5 -108.5t110.5 -176.5t14.5 -239.5q-20 -133 -89 -237.5t-167.5 -176t-219 -108.5t-247.5 -37q-125 0 -234.5 37t-184.5 108.5t-109.5 175t-14.5 238.5zM440 1438q6 41 29 77.5t54.5 64.5 t70.5 43t82 15q84 0 133 -58t35 -142q-6 -43 -27.5 -79t-53.5 -63.5t-71 -43t-80 -15.5q-86 0 -136 57.5t-36 143.5zM522 524q-16 -100 35 -167.5t166 -67.5t188.5 67.5t89.5 167.5q16 96 -35.5 167t-166.5 71q-57 0 -104.5 -19.5t-83.5 -51.5t-58.5 -75t-30.5 -92z M965 1438q6 41 28.5 77.5t54 64.5t70.5 43t82 15q84 0 133 -58t35 -142q-6 -43 -27.5 -79t-53.5 -63.5t-70.5 -43t-79.5 -15.5q-86 0 -136.5 57.5t-35.5 143.5z" />
<glyph unicode="&#xf7;" d="M238 373l49 307h1048l-49 -307h-1048zM573 113q10 61 59.5 104t110.5 43t98.5 -43t26.5 -104q-10 -61 -60 -104.5t-112 -43.5q-61 0 -97 43t-26 105zM705 940q10 61 59 104t110 43t98.5 -43t26.5 -104q-10 -61 -60 -104t-112 -43q-61 0 -97 43t-25 104z" />
<glyph unicode="&#xf8;" horiz-adv-x="1355" d="M49 33l156 133q-53 70 -73.5 159t-2.5 199q20 135 88 239.5t166 176.5t219 108.5t248 36.5q193 0 334 -81l168 143l123 -127l-158 -135q51 -70 72.5 -160t5.5 -201q-20 -133 -89 -237.5t-167.5 -176t-219 -108.5t-247.5 -37q-94 0 -178 20.5t-154 61.5l-168 -143z M522 438l363 310q-18 6 -40 10t-46 4q-57 0 -104.5 -19.5t-83.5 -51.5t-58.5 -75t-30.5 -92q-10 -47 0 -86zM637 303q37 -14 86 -14q115 0 188.5 67.5t89.5 167.5q6 49 -2 88z" />
<glyph unicode="&#xf9;" horiz-adv-x="1349" d="M182 418l101 633h372l-88 -562q-8 -49 -7 -91t16.5 -72.5t49 -47t91.5 -16.5q57 0 96 16.5t64.5 47t40 72.5t22.5 91l88 562h373l-101 -633q-20 -129 -76.5 -216t-140.5 -139.5t-189.5 -75t-223.5 -22.5q-119 0 -217.5 22.5t-165 75t-96 139.5t-9.5 216zM596 1516 l254 163l233 -352l-186 -121z" />
<glyph unicode="&#xfa;" horiz-adv-x="1349" d="M182 418l101 633h372l-88 -562q-8 -49 -7 -91t16.5 -72.5t49 -47t91.5 -16.5q57 0 96 16.5t64.5 47t40 72.5t22.5 91l88 562h373l-101 -633q-20 -129 -76.5 -216t-140.5 -139.5t-189.5 -75t-223.5 -22.5q-119 0 -217.5 22.5t-165 75t-96 139.5t-9.5 216zM690 1327 l344 352l201 -163l-399 -310z" />
<glyph unicode="&#xfb;" horiz-adv-x="1349" d="M182 418l101 633h372l-88 -562q-8 -49 -7 -91t16.5 -72.5t49 -47t91.5 -16.5q57 0 96 16.5t64.5 47t40 72.5t22.5 91l88 562h373l-101 -633q-20 -129 -76.5 -216t-140.5 -139.5t-189.5 -75t-223.5 -22.5q-119 0 -217.5 22.5t-165 75t-96 139.5t-9.5 216zM440 1362 l500 336l399 -336l-184 -172l-258 227l-332 -227z" />
<glyph unicode="&#xfc;" horiz-adv-x="1349" d="M182 418l101 633h372l-88 -562q-8 -49 -7 -91t16.5 -72.5t49 -47t91.5 -16.5q57 0 96 16.5t64.5 47t40 72.5t22.5 91l88 562h373l-101 -633q-20 -129 -76.5 -216t-140.5 -139.5t-189.5 -75t-223.5 -22.5q-119 0 -217.5 22.5t-165 75t-96 139.5t-9.5 216zM438 1438 q6 41 28.5 77.5t54.5 64.5t71 43t82 15q84 0 133 -58t35 -142q-6 -43 -27.5 -79t-53.5 -63.5t-71 -43t-80 -15.5q-86 0 -136 57.5t-36 143.5zM963 1438q6 41 28.5 77.5t54 64.5t70.5 43t82 15q84 0 133 -58t35 -142q-6 -43 -27.5 -79t-53.5 -63.5t-70.5 -43t-79.5 -15.5 q-86 0 -136.5 57.5t-35.5 143.5z" />
<glyph unicode="&#xfd;" horiz-adv-x="1339" d="M35 -524h418l1091 1575h-424l-358 -539l-197 539h-430l365 -908zM705 1327l145 -121l399 310l-200 163z" />
<glyph unicode="&#xfe;" horiz-adv-x="1396" d="M27 -524l352 2224h373l-121 -768h4q63 78 156.5 115.5t185.5 37.5q117 0 208 -46t148.5 -122.5t80 -179t3.5 -215.5q-18 -113 -72.5 -214t-135.5 -178t-185 -121t-221 -44q-92 0 -173 33t-130 102l-101 -624h-372zM555 524q-16 -100 35 -167.5t166 -67.5t188.5 67.5 t89.5 167.5q16 96 -36 167t-167 71q-57 0 -104 -19.5t-83 -51.5t-58.5 -75t-30.5 -92z" />
<glyph unicode="&#xff;" horiz-adv-x="1339" d="M35 -524l465 667l-365 908h430l197 -539l358 539h424l-1091 -1575h-418zM463 1438q6 41 28.5 77.5t54.5 64.5t70.5 43t81.5 15q84 0 133.5 -58t34.5 -142q-6 -43 -27.5 -79t-53 -63.5t-70.5 -43t-80 -15.5q-86 0 -136 57.5t-36 143.5zM987 1438q6 41 28.5 77.5t54.5 64.5 t71 43t82 15q84 0 133 -58t35 -142q-6 -43 -28 -79t-53.5 -63.5t-70.5 -43t-80 -15.5q-86 0 -136 57.5t-36 143.5z" />
<glyph unicode="&#x152;" horiz-adv-x="2334" d="M176 772q27 164 114 313.5t215 263t284.5 180t322.5 66.5q299 0 461 -192l22 141h869l-54 -340h-468l-41 -258h436l-53 -340h-437l-43 -266h469l-53 -340h-868l26 170q-123 -115 -250 -168t-276 -53q-166 0 -302 66.5t-228.5 180t-132 263t-13.5 313.5zM594 772 q-14 -88 7.5 -168t70.5 -138t122.5 -93t161.5 -35q90 0 174 35t152 93t114 138t60 168q14 90 -7.5 169t-70.5 138.5t-121.5 93t-162.5 33.5q-88 0 -173 -33.5t-153 -93t-114 -138.5t-60 -169z" />
<glyph unicode="&#x153;" horiz-adv-x="2093" d="M127 524q20 133 82.5 236.5t155 176.5t209 110.5t243.5 37.5q131 0 227.5 -32.5t178.5 -124.5q41 45 92 75.5t106.5 49t112.5 25.5t113 7q137 0 237.5 -40.5t161.5 -116.5t84 -183.5t0 -242.5l-6 -39h-785q-18 -115 31 -174.5t166 -59.5q59 0 106.5 21.5t86.5 75.5h358 q-35 -90 -97.5 -158t-141.5 -113t-170 -67.5t-183 -22.5q-141 0 -240.5 40t-156.5 142q-106 -102 -212 -142t-243 -40q-129 0 -233.5 37t-175 107.5t-99.5 175t-8 239.5zM520 524q-8 -49 3.5 -92t39 -74.5t68.5 -50t90 -18.5t95 18.5t84 50t64.5 74.5t34.5 92t-4 92 t-39.5 75t-68.5 51.5t-90 19.5t-95.5 -19.5t-84 -51.5t-63.5 -75t-34 -92zM1372 678h432q-2 76 -55 121t-129 45q-82 0 -149.5 -42t-98.5 -124z" />
<glyph unicode="&#x178;" horiz-adv-x="1462" d="M205 1544h481l223 -420l355 420h481l-696 -803l-117 -741h-402l117 741zM584 1870q6 41 27.5 78t53 64.5t70.5 43t82 15.5q84 0 133 -58.5t37 -142.5q-6 -43 -28.5 -79t-54.5 -63.5t-70.5 -43t-79.5 -15.5q-86 0 -135.5 57.5t-34.5 143.5zM1108 1870q6 41 27.5 78 t53.5 64.5t70.5 43t81.5 15.5q84 0 133.5 -58.5t36.5 -142.5q-6 -43 -28.5 -79t-54 -63.5t-70.5 -43t-80 -15.5q-86 0 -135 57.5t-35 143.5z" />
<glyph unicode="&#x2c6;" horiz-adv-x="1208" d="M369 1362l125 -172l331 227l258 -227l185 172l-400 336z" />
<glyph unicode="&#x2dc;" horiz-adv-x="1124" d="M356 1262v22q8 51 31 103.5t57.5 95.5t81.5 70.5t105 27.5q39 0 83 -11t87 -23.5t83 -24t70 -11.5q39 0 57.5 20.5t37.5 53.5h174q-14 -55 -41 -112.5t-67 -104.5t-92 -76.5t-118 -29.5q-39 0 -78 12t-75.5 25.5t-73.5 25.5t-74 12t-51.5 -23t-28.5 -52h-168z" />
<glyph unicode="&#x2000;" horiz-adv-x="1065" />
<glyph unicode="&#x2001;" horiz-adv-x="2130" />
<glyph unicode="&#x2002;" horiz-adv-x="1065" />
<glyph unicode="&#x2003;" horiz-adv-x="2130" />
<glyph unicode="&#x2004;" horiz-adv-x="710" />
<glyph unicode="&#x2005;" horiz-adv-x="532" />
<glyph unicode="&#x2006;" horiz-adv-x="355" />
<glyph unicode="&#x2007;" horiz-adv-x="355" />
<glyph unicode="&#x2008;" horiz-adv-x="266" />
<glyph unicode="&#x2009;" horiz-adv-x="426" />
<glyph unicode="&#x200a;" horiz-adv-x="118" />
<glyph unicode="&#x2010;" horiz-adv-x="802" d="M188 504h586l49 307h-585z" />
<glyph unicode="&#x2011;" horiz-adv-x="802" d="M188 504h586l49 307h-585z" />
<glyph unicode="&#x2012;" horiz-adv-x="802" d="M188 504h586l49 307h-585z" />
<glyph unicode="&#x2013;" horiz-adv-x="1024" d="M80 504h1024l49 307h-1024z" />
<glyph unicode="&#x2014;" horiz-adv-x="2048" d="M346 504h1516l49 307h-1516z" />
<glyph unicode="&#x2018;" horiz-adv-x="761" d="M176 866h348l373 678h-238z" />
<glyph unicode="&#x2019;" horiz-adv-x="761" d="M246 866h237l484 678h-349z" />
<glyph unicode="&#x201a;" horiz-adv-x="692" d="M-6 -287h237l484 678h-348z" />
<glyph unicode="&#x201c;" horiz-adv-x="1286" d="M176 866h348l373 678h-238zM700 866h349l372 678h-237z" />
<glyph unicode="&#x201d;" horiz-adv-x="1286" d="M246 866h237l484 678h-349zM770 866h238l483 678h-348z" />
<glyph unicode="&#x201e;" horiz-adv-x="1216" d="M-6 -287h237l484 678h-348zM518 -287h238l483 678h-348z" />
<glyph unicode="&#x2022;" d="M440 772q12 80 53.5 150.5t100.5 123t136 83t159 30.5q84 0 149.5 -30.5t108.5 -83t60.5 -123t4.5 -150.5q-12 -80 -53 -149.5t-100.5 -121.5t-134 -83t-158.5 -31q-82 0 -148.5 31t-110.5 83t-61.5 121.5t-5.5 149.5z" />
<glyph unicode="&#x2026;" horiz-adv-x="2048" d="M133 199q8 49 34 93t63.5 76.5t85 51t96.5 18.5t90 -18.5t68.5 -51t39 -76.5t2.5 -93q-8 -49 -33.5 -93.5t-62.5 -76t-84 -51t-96 -19.5t-90 19.5t-68.5 51t-40 76t-4.5 93.5zM815 199q8 49 33.5 93t63.5 76.5t85.5 51t96.5 18.5t90 -18.5t68.5 -51t39 -76.5t2.5 -93 q-8 -49 -33.5 -93.5t-62.5 -76t-84 -51t-96 -19.5t-90 19.5t-69 51t-40 76t-4 93.5zM1497 199q8 49 33.5 93t63.5 76.5t85.5 51t96.5 18.5t90 -18.5t68.5 -51t39 -76.5t2.5 -93q-8 -49 -33.5 -93.5t-62.5 -76t-84 -51t-96 -19.5t-90 19.5t-69 51t-40 76t-4 93.5z" />
<glyph unicode="&#x202f;" horiz-adv-x="426" />
<glyph unicode="&#x2030;" horiz-adv-x="2990" d="M227 1190q14 92 59.5 161.5t110 118t145.5 72t167 23.5t158.5 -23.5t122.5 -72t72.5 -118t8.5 -161.5q-14 -94 -58 -165t-108.5 -119t-145.5 -72.5t-169 -24.5t-162 24.5t-123 72.5t-70.5 119t-7.5 165zM449 0l1140 1544h201l-1141 -1544h-200zM475 1186q-12 -72 31 -122 t115 -50t131 50t71 122q10 72 -32.5 123t-114.5 51t-131.5 -51.5t-69.5 -122.5zM1171 360q14 92 59.5 162t110 118t145.5 71.5t167 23.5t158.5 -23.5t123 -71.5t73 -117.5t7.5 -162.5q-14 -94 -58 -164.5t-109.5 -118.5t-146.5 -72.5t-169 -24.5t-161 24.5t-122 72.5 t-70.5 118.5t-7.5 164.5zM1419 356q-12 -72 31 -122t115 -50t131 50.5t71 121.5q10 72 -32.5 123t-114.5 51t-131 -51t-70 -123zM2165 360q14 92 59 162t109.5 118t145.5 71.5t167 23.5t158.5 -23.5t123 -71.5t73 -117.5t8.5 -162.5q-14 -94 -58.5 -164.5t-110 -118.5 t-146.5 -72.5t-169 -24.5t-160.5 24.5t-122 72.5t-71 118.5t-6.5 164.5zM2413 356q-12 -72 30.5 -122t114.5 -50t131 50.5t72 121.5q10 72 -33 123t-115 51t-131 -51t-69 -123z" />
<glyph unicode="&#x2039;" horiz-adv-x="724" d="M158 655l272 -503l234 147l-207 356l315 363l-182 141z" />
<glyph unicode="&#x203a;" horiz-adv-x="724" d="M156 299l188 -147l432 503l-272 504l-228 -141l201 -363z" />
<glyph unicode="&#x205f;" horiz-adv-x="532" />
<glyph unicode="&#x20ac;" d="M117 489l110 209h97q0 10 2 27.5t5 36t6 36t7 27.5h-174l111 209h114q43 125 108.5 229.5t159 180.5t215 118t279.5 42q143 0 238.5 -29.5t130.5 -58.5l-51 -322q-35 41 -110 72.5t-198 31.5q-158 0 -250 -69.5t-137 -194.5h586l-111 -209h-534q-2 -10 -5 -25.5t-7 -31.5 q-6 -37 -7 -70h484l-111 -209h-375q4 -123 78 -185t223 -62q113 0 201 29.5t137 70.5l-49 -322q-43 -25 -143 -52t-254 -27q-573 0 -582 548h-194z" />
<glyph unicode="&#x2122;" horiz-adv-x="1925" d="M303 1384h252l-106 -667h198l107 667h252l24 160h-702zM999 717h181l106 667h4l133 -667h107l346 667h4l-106 -667h180l131 827h-291l-262 -489l-111 489h-291z" />
<glyph unicode="&#x25fc;" horiz-adv-x="1054" d="M0 0v1055h1055v-1055h-1055z" />
<glyph unicode="&#xfb01;" horiz-adv-x="1390" d="M133 743l49 308h131l23 133q8 55 18.5 103t26.5 92t45 87t74 86q82 82 184 125t209 43q43 0 81 -8t73 -29l-52 -321q-29 14 -58.5 24.5t-66.5 10.5q-72 0 -106.5 -43t-50.5 -133l-27 -170h260l-49 -308h-260l-117 -743h-373l117 743h-131zM895 0l166 1051h373l-166 -1051 h-373zM1102 1454q6 43 29.5 81t56.5 66.5t74 45t84 16.5q86 0 137 -61.5t37 -147.5q-6 -43 -29 -81t-55.5 -66.5t-73.5 -45t-84 -16.5q-86 0 -137 61.5t-39 147.5z" />
<glyph unicode="&#xfb02;" horiz-adv-x="1413" d="M133 743l49 308h131l23 133q8 55 18.5 103t26.5 92t45 87t74 86q82 82 184 125t209 43q43 0 81 -8t73 -29l-52 -321q-29 14 -58.5 24.5t-66.5 10.5q-72 0 -106.5 -43t-50.5 -133l-27 -170h260l-49 -308h-260l-117 -743h-373l117 743h-131zM918 0l268 1700h373l-269 -1700 h-372z" />
<glyph horiz-adv-x="837" d="M221 1249q10 68 45 129.5t87.5 107.5t120 72.5t142.5 26.5q59 0 112.5 -20.5t84.5 -61.5l10 62h242l-100 -631h-242l12 70h-4q-39 -47 -99.5 -69t-119.5 -22q-76 0 -135.5 28t-97 74t-53 106.5t-5.5 127.5zM471 1249q-10 -59 28.5 -101t104.5 -42t117 42t61 101 t-28.5 101.5t-104.5 42.5t-117 -42t-61 -102z" />
<glyph horiz-adv-x="839" d="M209 1249q12 80 55 142.5t106.5 105.5t141.5 65.5t160 22.5t152.5 -22.5t120.5 -65.5t73.5 -105.5t11.5 -142.5t-56 -142.5t-107.5 -105.5t-141.5 -65.5t-160 -22.5t-152.5 22.5t-120.5 65.5t-72.5 105.5t-10.5 142.5zM465 1249q-10 -59 27.5 -100t103.5 -41t117 41 t61 100t-28.5 100.5t-104.5 41.5t-116 -41t-60 -101z" />
</font>
</defs>
</svg>
