<?xml version="1.0" standalone="no"?>
<!DOCTYPE svg PUBLIC "-//W3C//DTD SVG 1.1//EN" "http://www.w3.org/Graphics/SVG/1.1/DTD/svg11.dtd" >
<svg xmlns="http://www.w3.org/2000/svg" xmlns:xlink="http://www.w3.org/1999/xlink" version="1.1">
<metadata></metadata>
<defs>
<font id="r-futura_stdmedium_oblique" horiz-adv-x="1183" >
<font-face units-per-em="2048" ascent="1690" descent="-358" />
<missing-glyph horiz-adv-x="591" />
<glyph horiz-adv-x="0" />
<glyph horiz-adv-x="0" />
<glyph unicode="&#xd;" horiz-adv-x="512" />
<glyph unicode=" "  horiz-adv-x="591" />
<glyph unicode="&#x09;" horiz-adv-x="591" />
<glyph unicode="&#xa0;" horiz-adv-x="591" />
<glyph unicode="!" horiz-adv-x="657" d="M225 86q8 47 48 83t89 36t79 -36t22 -83q-8 -49 -49 -84t-90 -35t-78 35t-21 84zM295 356l186 1188h185l-187 -1188h-184z" />
<glyph unicode="&#x22;" horiz-adv-x="899" d="M358 872h127l144 672h-201zM688 872h127l143 672h-200z" />
<glyph unicode="#" d="M119 430h205l-144 -430h154l149 430h252l-143 -430h156l145 430h240l26 164h-207l105 315h219l27 164h-189l135 397h-162l-135 -397h-254l138 397h-158l-137 -397h-244l-27 -164h215l-104 -315h-236zM541 594l104 315h252l-104 -315h-252z" />
<glyph unicode="$" d="M166 397l190 39q4 -131 58.5 -201.5t187.5 -87.5l98 615l-67 37q-55 31 -104.5 64.5t-82 77.5t-47 100.5t-2.5 132.5t52 146.5t98.5 125.5t131 90t150.5 41l29 184h103l-29 -184q115 -10 193.5 -71.5t119.5 -166.5l-178 -92q-23 61 -61.5 96t-102.5 56l-76 -481 q72 -33 137.5 -76t112.5 -99.5t68.5 -129t7.5 -167.5q-14 -82 -58 -163.5t-108.5 -147t-144.5 -110.5t-166 -58l-31 -194h-102l30 194q-90 2 -164.5 36t-129 92.5t-84 136t-29.5 165.5zM578 1188q-14 -90 34.5 -140t120.5 -81l68 432q-82 -12 -146.5 -70.5t-76.5 -140.5z M707 160q49 10 93 36.5t78.5 63.5t57 83t31.5 95q8 53 -3.5 94t-36 74t-59 59.5t-73.5 49.5z" />
<glyph unicode="%" horiz-adv-x="1449" d="M229 18l1151 1559l84 -53l-1149 -1557zM229 1225q12 74 51 138t95.5 111.5t126 75t143.5 27.5t134.5 -27.5t102.5 -75t61.5 -112t6.5 -137.5q-12 -74 -51 -137.5t-96.5 -110.5t-127 -75t-140.5 -28q-72 0 -133.5 28t-103.5 75t-61.5 110.5t-7.5 137.5zM352 1225 q-8 -47 5.5 -88t41 -72t67.5 -49.5t87 -18.5t93 18.5t84 49.5t63.5 72t33.5 88t-5 89t-40.5 72.5t-68.5 49t-88 18.5t-93.5 -18.5t-83 -49t-62.5 -72.5t-34 -89zM748 317q12 74 51 138.5t95 111.5t125.5 75t143.5 28t134.5 -28t102.5 -75t61.5 -111.5t6.5 -138.5 q-12 -74 -51 -137t-96 -110t-128 -75t-142 -28q-72 0 -133.5 28t-102.5 75t-60.5 110.5t-6.5 136.5zM870 317q-8 -47 5.5 -88t41 -71.5t67.5 -49t87 -18.5t93 18.5t84 49t63.5 71.5t34.5 88q6 47 -6.5 89.5t-40 73t-68.5 49t-88 18.5t-93 -18.5t-84 -49t-63.5 -72.5 t-32.5 -90z" />
<glyph unicode="&#x26;" horiz-adv-x="1417" d="M176 422q12 74 42 132t75 106.5t100.5 90.5t116.5 80l108 70q-55 70 -94 155t-22 183q12 80 49 142.5t92 106.5t124 66.5t144 22.5q72 0 132.5 -21.5t103.5 -63.5t62.5 -101.5t7.5 -135.5q-10 -66 -44 -121t-82.5 -102t-104.5 -87t-112 -75l261 -389l213 209l104 -127 l-225 -221l223 -342h-238l-135 209q-104 -104 -234 -173t-268 -69q-96 0 -177 34t-135 94.5t-78.5 143.5t-8.5 183zM356 424q-8 -55 7.5 -106.5t49 -91.5t82 -63.5t103.5 -23.5q53 0 104.5 18.5t100.5 48.5t94 65.5t88 72.5l-276 418l-21 -12q-45 -27 -99 -61t-103.5 -75 t-85 -88t-44.5 -102zM686 1262q-10 -59 11.5 -104.5t50.5 -88.5l40 -65l27 16q33 23 70 47.5t68.5 52t54 61t28.5 76.5q14 82 -30.5 125t-122.5 43q-70 0 -128.5 -45t-68.5 -118z" />
<glyph unicode="'" horiz-adv-x="567" d="M358 872h127l144 672h-201z" />
<glyph unicode="(" horiz-adv-x="598" d="M182 105.5q-4 134.5 5.5 268.5t29.5 257q18 125 52 259t80 268t107.5 261t135.5 238l133 -113q-63 -100 -114.5 -213.5t-91.5 -231.5t-67.5 -237t-45.5 -231q-18 -113 -27.5 -231.5t-7.5 -236.5t17 -231.5t48 -214.5l-170 -112q-39 111 -59.5 238.5t-24.5 262z" />
<glyph unicode=")" horiz-adv-x="598" d="M72 -283q66 100 117 214t90.5 232t67.5 236.5t46 231.5t27.5 231.5t7.5 236.5t-18.5 231.5t-49.5 213.5l170 113q39 -111 59.5 -238t24.5 -261t-5 -268t-27 -259q-20 -123 -53 -257t-80.5 -268.5t-108.5 -262.5t-135 -238z" />
<glyph unicode="*" horiz-adv-x="884" d="M307 1124l51 -116l195 100l-33 -199h142l32 197l150 -102l90 118l-158 103l191 102l-54 121l-182 -98l31 194h-141l-31 -201l-166 101l-82 -117l156 -102z" />
<glyph unicode="+" d="M137 436h436l-69 -436h176l70 436h436l26 176h-436l70 437h-176l-70 -437h-436z" />
<glyph unicode="," horiz-adv-x="591" d="M59 -319l107 -48l358 547l-149 64z" />
<glyph unicode="-" horiz-adv-x="679" d="M209 580h448l25 153h-449z" />
<glyph unicode="." horiz-adv-x="591" d="M193 86q8 47 48 83t89 36t78.5 -36t21.5 -83q-8 -49 -49 -84t-90 -35t-78 35t-20 84z" />
<glyph unicode="/" horiz-adv-x="1128" d="M35 -193l135 -65l1165 1970l-137 66z" />
<glyph unicode="0" d="M163 513q-5 140 13 259t68.5 259t133.5 262t198.5 203t265.5 81t239.5 -81t134 -203t50.5 -262t-13 -259q-18 -119 -69 -259t-134 -261t-198.5 -203t-265.5 -82t-239 82t-134 203t-50 261zM347 584.5q-1 -109.5 23.5 -207.5t82 -168t161.5 -70t183.5 70t135.5 168 t90 207.5t46 189.5t13 189.5t-23.5 210t-82 170t-161.5 69.5t-183 -69.5t-135.5 -170t-90 -210t-46.5 -189.5q-12 -80 -13 -189.5z" />
<glyph unicode="1" d="M469 1368h268l-217 -1368h185l243 1544h-346z" />
<glyph unicode="2" d="M92 0l807 829q57 59 113.5 129t68.5 148q10 61 -7 114.5t-53 93.5t-87 63.5t-111 23.5q-59 0 -114.5 -22.5t-101.5 -60.5t-78.5 -89t-47.5 -111h-192q29 102 81 187.5t123.5 145.5t163 93t195.5 33q98 0 181 -35t140.5 -96.5t83 -146.5t9.5 -185q-14 -86 -57.5 -169 t-106.5 -148l-606 -621h622l-28 -176h-998z" />
<glyph unicode="3" d="M168 381h186q-2 -57 18.5 -102.5t55.5 -77t83 -49t103 -17.5q66 0 123.5 23.5t103.5 64.5t76.5 96.5t40.5 118.5q23 141 -46.5 221t-200.5 80q-8 0 -15.5 -1t-15.5 -1l25 160q61 0 118.5 12.5t103.5 42t77.5 76.5t44.5 117q18 117 -46.5 190.5t-181.5 73.5 q-104 0 -182 -60.5t-109 -160.5h-190q59 193 190.5 291t323.5 98q92 0 169 -28.5t129 -82t75.5 -131.5t7.5 -174q-18 -115 -80.5 -204t-171.5 -144q104 -53 141 -155.5t17 -227.5q-16 -109 -68.5 -194.5t-128.5 -145t-171 -91.5t-200 -32q-90 0 -168.5 29t-134 83t-84 131 t-18.5 171z" />
<glyph unicode="4" d="M49 225h762l-35 -225h185l34 225h176l27 168h-176l192 1217zM399 393l537 637h4l-102 -637h-439z" />
<glyph unicode="5" d="M98 238l166 135q10 -49 40 -91t72 -73t92 -48.5t101 -17.5q78 0 151 30t131 82t98 120.5t52 146.5q12 74 -6 140.5t-61 116.5t-105.5 80t-136.5 30q-82 0 -166 -36t-145 -101h-37l363 792h618l-27 -176h-485l-147 -317l110 6q113 0 197 -44t137 -119t72.5 -173t3.5 -205 q-18 -123 -80 -223t-151 -173t-199.5 -113t-229.5 -40q-72 0 -138 18.5t-122.5 53.5t-99.5 85t-68 114z" />
<glyph unicode="6" d="M156 461q18 117 83.5 216t147.5 191l639 709l125 -94l-500 -557l2 -4q37 16 77 26t81 10q96 0 171 -40.5t124 -108.5t69.5 -155t6.5 -179q-16 -106 -71.5 -198.5t-136.5 -161t-180.5 -108.5t-203.5 -40q-100 0 -186.5 39t-146.5 105.5t-89 156.5t-12 193zM340 465 q-10 -68 6 -126t55 -103.5t94 -71t121 -25.5t128.5 25.5t114.5 68.5t88 100.5t46 121.5q12 72 -6 133t-57 105t-94.5 68.5t-116.5 24.5q-63 0 -127 -26.5t-116 -70.5t-89 -102.5t-47 -121.5z" />
<glyph unicode="7" d="M106 59l134 -92l1212 1577h-1112l-27 -176h799z" />
<glyph unicode="8" d="M176 430q20 125 98 227.5t205 143.5q-88 53 -127 142t-20 204q14 94 61 173t116 136t155 89t178 32t167.5 -32t126 -89t73 -136t8.5 -173q-18 -115 -86 -204t-173 -142q115 -41 160 -143.5t25 -227.5q-16 -106 -68.5 -192t-128.5 -146.5t-169 -92.5t-191 -32t-181 32 t-139.5 92.5t-81 146.5t-8.5 192zM360 430q-8 -57 8.5 -110.5t52.5 -93.5t86 -63.5t107 -23.5t114.5 23.5t106 63.5t82 93.5t41.5 110.5q10 61 -6 114.5t-51 92.5t-85 61.5t-109 22.5q-57 0 -116 -22.5t-106 -61.5t-80.5 -92t-44.5 -115zM512 1147q-8 -45 7.5 -92t46 -85 t73.5 -61.5t92 -23.5t99.5 23.5t93.5 61.5t73.5 85t38.5 92q8 55 -5 103t-44 85t-75 57.5t-97 20.5q-51 0 -102 -20.5t-93 -57.5t-71 -85t-37 -103z" />
<glyph unicode="9" d="M276 1069q16 106 71.5 198.5t135.5 161t179.5 108.5t203.5 40q100 0 186.5 -39t148 -105.5t90 -156.5t12.5 -193q-18 -117 -84 -216t-150 -191l-639 -709l-123 96l500 555l-4 5q-37 -16 -75 -22.5t-79 -6.5q-96 0 -172 40t-125 105.5t-69.5 151.5t-6.5 178zM463 1081 q-12 -70 7 -129t59 -102t95.5 -67.5t114.5 -24.5q74 0 138.5 26.5t114.5 71.5t83 103.5t43 121.5q10 61 -7 120t-53 104t-88 72.5t-116 27.5q-70 0 -135.5 -25.5t-119.5 -69.5t-90 -103.5t-46 -125.5z" />
<glyph unicode=":" horiz-adv-x="591" d="M193 86q8 47 48 83t89 36t78.5 -36t21.5 -83q-8 -49 -49 -84t-90 -35t-78 35t-20 84zM315 868q8 47 48.5 83t89.5 36t78.5 -36t21.5 -83q-8 -49 -48 -83.5t-89 -34.5t-79 34.5t-22 83.5z" />
<glyph unicode=";" horiz-adv-x="591" d="M43 -319l315 563l150 -64l-358 -547zM412 868q8 47 48 83t89 36t78.5 -36t21.5 -83q-8 -49 -48 -83.5t-89 -34.5t-79 34.5t-21 83.5z" />
<glyph unicode="&#x3c;" d="M139 453l981 -424l31 192l-737 303l833 303l31 193l-1116 -424z" />
<glyph unicode="=" d="M109 260h1048l29 176h-1049zM164 612h1048l29 176h-1048z" />
<glyph unicode="&#x3e;" d="M72 29l1116 424l22 143l-981 424l-30 -193l739 -303l-836 -303z" />
<glyph unicode="?" horiz-adv-x="927" d="M252 705q12 74 43 123t72 82.5t91 55t101 40.5q49 18 98.5 34.5t89 40t66.5 56t35 84.5q14 86 -32 134t-128 48q-72 0 -132 -52.5t-71 -123.5q-4 -16 -2 -32.5t4 -33.5h-192l6 68q8 76 48 139.5t98.5 109.5t131 72.5t144.5 26.5q78 0 140.5 -27.5t104.5 -76t60.5 -115 t5.5 -144.5q-10 -72 -50 -139t-101 -114q-57 -45 -131 -70t-142 -45q-57 -16 -109 -49t-63 -101q-10 -61 24 -104t95 -43q66 0 114 46t58 112h186q-8 -68 -44.5 -127.5t-90 -104.5t-119 -71.5t-131.5 -26.5q-68 0 -124 25.5t-94 69.5t-54 103.5t-6 129.5zM367 86q8 47 48 83 t89 36t78.5 -36t21.5 -83q-8 -49 -49 -84t-90 -35t-78 35t-20 84z" />
<glyph unicode="@" horiz-adv-x="1638" d="M197 772q27 172 110.5 319.5t206.5 255t275.5 169t316.5 61.5q135 0 251 -43t202 -135q92 -92 135 -210t20 -261q-20 -129 -71.5 -242t-124.5 -192q-68 -74 -155 -126.5t-189 -52.5q-41 2 -66 35t-25 92q-59 -53 -132.5 -90t-166.5 -37q-68 0 -125 30t-97 81t-56.5 119.5 t-3.5 148.5q14 92 57 180.5t108.5 157t149.5 109.5t178 41q78 0 139.5 -33t110.5 -113l49 127h146l-187 -526q-8 -27 -19 -57.5t-15.5 -57t3 -44t33.5 -17.5q35 0 79 32.5t85 88t74 126t45 146.5q20 129 -5.5 232.5t-89 176t-158.5 111.5t-212 39q-129 0 -248.5 -50 t-216 -137t-162 -204t-86.5 -250q-23 -141 10 -259t109 -203t185.5 -132t240.5 -47q129 0 230.5 24.5t167.5 73.5l133 -123q-59 -29 -119 -54t-127.5 -43.5t-147 -30t-180.5 -11.5q-166 0 -300 60.5t-225 168t-129 255t-11 321.5zM664 622q8 -42 29.5 -75t56 -52.5 t81.5 -19.5q68 0 121.5 24.5t92 64.5t65.5 91.5t41 106.5q35 125 -13 192.5t-155 67.5q-61 0 -116.5 -27.5t-97.5 -72.5t-69.5 -101.5t-35.5 -111.5q-8 -45 0 -87z" />
<glyph unicode="A" horiz-adv-x="1439" d="M-16 0h206l238 387h709l114 -387h207l-483 1610zM537 563l372 625l176 -625h-548z" />
<glyph unicode="B" horiz-adv-x="1095" d="M131 0l244 1544h188q109 0 208 -17.5t171 -64.5t106 -129q22 -52 22 -123q0 -41 -7 -90q-6 -43 -24.5 -87t-46 -84t-63.5 -71.5t-79 -50.5v-4q66 -12 117 -49t83 -91q32 -55 44 -119q7 -36 7 -72q0 -30 -5 -60q-18 -117 -76.5 -198.5t-141.5 -134t-183.5 -76 t-202.5 -23.5h-361zM350 172h148q68 0 134 11.5t122.5 42t97.5 83.5t53 135q4 24 4 46q-1 52 -21 88q-28 52 -80 80t-119.5 38.5t-133.5 10.5h-119zM461 860h49q68 0 130 9.5t111.5 37t83 78.5t46.5 133q5 33 5 61q0 41 -10 70q-18 49 -58 77t-98 37t-126 9h-53z" />
<glyph unicode="C" horiz-adv-x="1353" d="M182 764q27 172 115 320.5t217 258t289 172t330 62.5q102 0 197 -25.5t175 -78.5l-35 -224q-72 74 -173 113t-212 39q-129 0 -248.5 -50.5t-215 -136.5t-160 -200.5t-84.5 -243.5q-8 -53 -8 -105q-1 -69 15 -135q28 -114 95.5 -200t171 -136.5t232.5 -50.5 q115 0 226.5 41t209.5 119l-35 -227q-98 -53 -209.5 -81t-214.5 -28q-166 0 -302 61.5t-228 169.5q-92 106 -133 252q-25 89 -25 187q0 62 10 127z" />
<glyph unicode="D" horiz-adv-x="1361" d="M131 0l244 1544h319q178 0 327.5 -47t253 -142t149.5 -239q28 -87 28 -191q0 -68 -12 -145q-31 -197 -122 -344t-224 -243.5t-300 -144.5t-350 -48h-313zM352 176h68q147 0 284.5 30t249 99.5t189.5 184t104 282.5q11 68 11 126q0 90 -25 158q-41 114 -131 183.5t-218 99 t-276 29.5h-67z" />
<glyph unicode="E" horiz-adv-x="1067" d="M147 0h830l29 176h-637l92 584h618l27 176h-619l70 432h637l27 176h-830z" />
<glyph unicode="F" horiz-adv-x="970" d="M145 0h193l121 758h536l27 176h-537l70 434h555l27 176h-748z" />
<glyph unicode="G" horiz-adv-x="1597" d="M164 768q27 166 112.5 313.5t211.5 258t283 174t323 63.5q180 0 334.5 -78t246.5 -221l-155 -129q-66 115 -186 183.5t-261 68.5q-129 0 -250 -49t-217 -134t-161.5 -200t-86.5 -244q-7 -47 -7 -93q0 -72 17 -141q29 -114 95.5 -202t168 -141.5t226.5 -53.5 q90 0 185.5 36t176 98.5t140 146.5t78.5 178h-400l27 176h612l-10 -61q-25 -160 -99.5 -296t-187 -237.5t-257 -159t-306.5 -57.5t-294 64.5t-220 175t-126 255.5q-23 88 -23 181q0 62 10 125z" />
<glyph unicode="H" horiz-adv-x="1382" d="M131 0h193l116 741h736l-117 -741h192l244 1544h-192l-99 -622h-735l98 622h-192z" />
<glyph unicode="I" horiz-adv-x="475" d="M141 0h193l244 1544h-193z" />
<glyph unicode="J" horiz-adv-x="741" d="M-33 35l121 164q61 -51 145 -52q84 0 134.5 43t81 105.5t45 135.5t24.5 132l154 981h192l-153 -981q-18 -111 -50 -218t-90.5 -191t-148.5 -135.5t-225 -51.5q-68 0 -123.5 16.5t-106.5 51.5z" />
<glyph unicode="K" horiz-adv-x="1228" d="M147 0h193l102 645l90 74l467 -719h261l-572 850l803 694h-252l-760 -670l105 670h-193z" />
<glyph unicode="L" horiz-adv-x="788" d="M147 0h662l29 176h-469l215 1368h-193z" />
<glyph unicode="M" horiz-adv-x="1742" d="M27 0h198l342 1020h4l295 -1053l631 1053h4l19 -1020h198l-61 1610l-723 -1217l-338 1217z" />
<glyph unicode="N" horiz-adv-x="1607" d="M129 0h193l182 1151l966 -1214l254 1607h-192l-180 -1141l-967 1215z" />
<glyph unicode="O" horiz-adv-x="1695" d="M162 772q27 166 113.5 312.5t214.5 256t285 173t323 63.5t303 -63.5t230 -173.5t134 -256q25 -90 25 -186q0 -61 -10 -126q-27 -172 -115 -319.5t-215 -255t-283.5 -169t-324.5 -61.5t-305.5 61.5t-229.5 169.5q-92 106 -132 254q-24 88 -24 185q0 66 11 135zM354 772 q-8 -52 -8 -101q0 -75 18 -145q30 -114 101.5 -198t175.5 -132.5t229 -48.5t245 48.5t217.5 132.5t166 198.5t88.5 245.5q8 53 8 105q1 69 -15 135q-28 114 -96.5 199t-174 135.5t-240.5 50.5t-257 -50.5t-217 -135.5t-157.5 -198.5t-83.5 -240.5z" />
<glyph unicode="P" horiz-adv-x="1013" d="M147 0l244 1544h221q178 0 293 -29.5t179 -86.5q62 -58 80 -141q9 -42 10 -90q0 -47 -9 -99q-18 -123 -75.5 -208t-140.5 -139.5t-184 -79t-212 -24.5h-111l-102 -647h-193zM469 819h61q74 0 149 9.5t138.5 40t108.5 86t59 147.5q5 29 5 54q0 53 -20 90q-30 54 -87.5 82 t-130 36t-144.5 8h-51z" />
<glyph unicode="Q" horiz-adv-x="1695" d="M162 772q27 166 113.5 312.5t214.5 256t285 173t323 63.5t303 -63.5t230 -173t134 -256.5q25 -89 25 -186q0 -62 -10 -126q-27 -166 -114 -313.5t-218 -255.5l201 -236h-234l-110 137q-106 -66 -229.5 -101.5t-233.5 -35.5q-168 0 -305.5 61.5t-229.5 169t-132 254.5 q-24 89 -24 185q0 66 11 135zM354 772q-8 -52 -8 -101q0 -75 18 -145q31 -114 102 -198t175 -132.5t229 -48.5q72 0 158 21.5t164 67.5l-299 346h240l204 -242q51 41 93.5 92t74 108.5t53 117t29.5 114.5q8 53 8 105q0 70 -15 135q-28 114 -96.5 199t-174 135.5t-240.5 50.5 t-257 -50.5t-217 -135.5t-157.5 -198.5t-83.5 -240.5z" />
<glyph unicode="R" horiz-adv-x="1112" d="M147 0l244 1544h234q104 0 207.5 -9t189.5 -62q88 -57 125 -158q24 -67 24 -137q0 -36 -6 -74q-12 -82 -51 -157t-96 -132t-131 -95t-160 -48l381 -672h-234l-350 653h-80l-104 -653h-193zM469 813h61q74 0 149 9t138.5 40t108.5 86.5t59 147.5q4 28 4 53q-1 54 -21 92 q-30 55 -86.5 84t-129 38t-144.5 9h-51z" />
<glyph unicode="S" horiz-adv-x="1099" d="M129 399l201 41q-4 -26 -4 -51q0 -35 8 -67q14 -54 49 -93t86 -60.5t113 -21.5q61 0 117.5 25t101.5 66t74.5 95t39.5 116q4 24 4 46q0 33 -9 61q-15 46 -48 80t-77 59.5t-91 45.5l-98 45q-61 29 -116.5 64t-95.5 81q-40 47 -58 107q-10 35 -10 75q0 31 6 65 q14 94 64 167.5t122 125t158 79t174 27.5q129 0 221 -60.5t139 -173.5l-168 -92q-33 72 -85 109t-140 37q-45 0 -94 -15.5t-90 -44t-71 -68.5t-38 -91q-2 -13 -2 -25q0 -30 10 -55q14 -35 41 -61.5t63 -46t68 -34.5l105 -43q78 -33 141.5 -72.5t105.5 -94.5q42 -56 60 -128 q10 -39 9 -85q0 -39 -7 -84q-16 -104 -69.5 -193.5t-130.5 -153t-172 -99.5t-199 -36q-94 0 -170 33t-130.5 90t-82.5 137q-26 75 -25 160v12z" />
<glyph unicode="T" horiz-adv-x="933" d="M221 1368h367l-217 -1368h192l217 1368h367l27 176h-926z" />
<glyph unicode="U" horiz-adv-x="1370" d="M211 567l154 977h192l-143 -911q-13 -85 -12 -165v-18q2 -88 32.5 -155.5t97 -107.5t177.5 -40t189.5 40t131.5 107.5t84 156t45 182.5l144 911h192l-154 -977q-20 -127 -75.5 -236.5t-141.5 -190.5t-198.5 -127t-245.5 -46t-230.5 46t-157.5 127q-58 80 -80 190 q-11 55 -11 116q0 58 10 121z" />
<glyph unicode="V" horiz-adv-x="1310" d="M229 1544l416 -1626l926 1626h-211l-639 -1143l-281 1143h-211z" />
<glyph unicode="W" horiz-adv-x="2103" d="M219 1544l387 -1605l617 1132l256 -1132l895 1605h-209l-606 -1106l-256 1139l-617 -1139l-258 1106h-209z" />
<glyph unicode="X" horiz-adv-x="1175" d="M0 0h215l479 633l264 -633h216l-340 809l559 735h-219l-424 -563l-228 563h-219l311 -735z" />
<glyph unicode="Y" horiz-adv-x="1173" d="M231 1544l367 -872l-106 -672h192l107 672l641 872h-222l-483 -659l-274 659h-222z" />
<glyph unicode="Z" horiz-adv-x="1130" d="M18 0h1096l29 176h-783l998 1368h-985l-27 -176h672z" />
<glyph unicode="[" horiz-adv-x="636" d="M61 -395h390l28 172h-200l270 1708h201l26 172h-389z" />
<glyph unicode="\" horiz-adv-x="1128" d="M344 1778l547 -1778h172l-547 1778h-172z" />
<glyph unicode="]" horiz-adv-x="636" d="M59 -395h390l325 2052h-389l-27 -172h201l-270 -1708h-201z" />
<glyph unicode="^" d="M168 631h190l451 741l215 -741h193l-267 913h-229z" />
<glyph unicode="_" horiz-adv-x="1024" d="M-41 -256h1024l16 102h-1024z" />
<glyph unicode="`" horiz-adv-x="737" d="M379 1413l289 -305l98 55l-203 340z" />
<glyph unicode="a" horiz-adv-x="1138" d="M130 289q-7 45 -7 93q0 51 8 103q16 98 61.5 189.5t115 160t159.5 110.5t195 42q106 0 183 -51t120 -137h4l24 159h185l-152 -958h-184l24 150h-4q-70 -82 -161 -132.5t-195 -50.5q-111 0 -188.5 42t-125 114t-62.5 166zM313 479q-5 -33 -5 -65q0 -33 6 -65 q10 -62 40.5 -111.5t81.5 -78t125 -28.5q76 0 138.5 27.5t109.5 76t76.5 112t42.5 132.5q5 35 5 68t-5 65q-10 62 -43 109t-86.5 74.5t-126.5 27.5q-72 0 -132.5 -28.5t-107.5 -76.5t-77.5 -109.5t-41.5 -129.5z" />
<glyph unicode="b" horiz-adv-x="1138" d="M113 0l280 1778h185l-154 -979h4q72 86 163 137t200 51q104 0 181 -42t124 -111q48 -68 66 -159q10 -47 9 -97q0 -46 -8 -93q-16 -102 -62 -196t-116 -166t-162 -114t-202 -42q-102 0 -178 50.5t-117 132.5h-4l-25 -150h-184zM362 479q-5 -33 -5 -65q-1 -33 5 -65 q10 -62 41 -111.5t82 -78t125 -28.5q76 0 138.5 27.5t109.5 76t77 112t42 132.5q5 35 5 68t-5 65q-10 62 -43 109t-86 74.5t-127 27.5q-72 0 -132.5 -28.5t-107.5 -76.5t-77.5 -109.5t-41.5 -129.5z" />
<glyph unicode="c" horiz-adv-x="903" d="M127 471q18 111 73.5 206t136.5 163.5t183.5 107.5t212.5 39q66 0 130.5 -15t113.5 -48l-37 -238q-92 129 -254 129q-68 0 -130 -27.5t-112.5 -73.5t-85 -107.5t-45.5 -127.5q-5 -32 -5 -62q0 -39 8 -74q16 -62 53 -107.5t93 -71t130 -25.5q80 0 150.5 34t131.5 93 l-38 -235q-68 -35 -135.5 -49.5t-139.5 -14.5q-106 0 -193 39t-146.5 106.5t-85.5 159.5q-16 57 -15 119q0 39 6 80z" />
<glyph unicode="d" horiz-adv-x="1138" d="M129 289q-7 44 -7 89q0 52 9 107q16 98 61.5 189.5t115 160t158.5 110.5t193 42q109 0 186 -51t120 -137h4l153 979h185l-281 -1778h-184l24 150h-4q-70 -82 -162 -132.5t-194 -50.5q-111 0 -189.5 42t-126 114t-61.5 166zM313 479q-5 -33 -5 -65q0 -33 6 -65 q10 -62 40.5 -111.5t81.5 -78t125 -28.5q76 0 138.5 27.5t109.5 76t76.5 112t42.5 132.5q5 35 5 68t-5 65q-10 62 -43 109t-86.5 74.5t-126.5 27.5q-72 0 -132.5 -28.5t-107.5 -76.5t-77.5 -109.5t-41.5 -129.5z" />
<glyph unicode="e" horiz-adv-x="999" d="M127 471q18 111 62 205t114 163.5t163 108.5t210 39q115 0 192.5 -40t122.5 -108.5t57 -161.5q5 -39 6 -81q0 -57 -10 -119l-4 -28h-731q-3 -26 -4 -52q1 -34 7 -67q10 -58 40.5 -102t79.5 -70.5t115 -26.5q106 0 179 50t138 136l142 -88q-88 -125 -217.5 -193.5 t-270.5 -68.5q-111 0 -191.5 39t-130 106.5t-67.5 159.5q-10 49 -10 102q0 47 8 97zM340 588h537v7q-1 104 -57 167q-58 65 -169 65q-109 0 -192.5 -67.5t-118.5 -171.5z" />
<glyph unicode="f" horiz-adv-x="563" d="M164 0l125 786h-84l26 172h84l74 467q12 78 38 146.5t70 120t108.5 81t152.5 29.5h5q67 0 120 -24l-29 -187q-27 12 -57.5 25.5t-59.5 13.5q-49 0 -79.5 -27.5t-49 -67.5t-28 -85t-15.5 -80l-65 -412h254l-27 -172h-254l-125 -786h-184z" />
<glyph unicode="g" horiz-adv-x="1136" d="M76 -115h184q-5 -29 -5 -55q0 -90 53 -144q69 -71 196 -71q86 0 143.5 27.5t95 74.5t58 112t33.5 138l30 183h-4q-70 -82 -162 -132.5t-194 -50.5q-111 0 -189.5 42t-126 114t-61.5 166q-7 44 -7 89q0 53 9 107q16 98 61.5 189.5t115 160t158.5 110.5t193 42 q109 0 186 -51t118 -141h4l26 163h185l-150 -940q-18 -123 -55 -227t-101.5 -180t-162 -118t-236.5 -42q-100 0 -180 30t-132.5 86t-74.5 136q-14 48 -14 104q0 37 6 78zM311 479q-5 -33 -5 -65q0 -33 6 -65q10 -62 40.5 -111.5t81.5 -78t125 -28.5q76 0 138.5 27.5 t109.5 76t76.5 112t42.5 132.5q5 34 5 67t-5 66q-11 62 -43.5 109t-86 74.5t-126.5 27.5q-72 0 -132.5 -28.5t-107.5 -76.5t-77.5 -109.5t-41.5 -129.5z" />
<glyph unicode="h" horiz-adv-x="1071" d="M127 0l281 1778h184l-150 -949h4q55 78 140.5 118t173.5 40q102 0 162.5 -31.5t90 -88t33.5 -132.5q1 -14 0 -29q0 -63 -12 -135l-90 -571h-184l86 549q10 61 12 111v11q0 45 -14 77q-16 36 -54 55.5t-110 19.5q-88 0 -142.5 -35.5t-85 -91t-46 -123t-25.5 -133.5 l-70 -440h-184z" />
<glyph unicode="i" horiz-adv-x="520" d="M168 0l151 958h185l-152 -958h-184zM354 1397q10 53 52.5 91t95.5 38q52 0 84 -38q24 -29 24 -66q0 -12 -2 -25q-8 -53 -51 -89t-96 -36t-84 36q-25 28 -25 68q0 10 2 21z" />
<glyph unicode="j" horiz-adv-x="520" d="M82 -549l237 1507h185l-238 -1507h-184zM354 1397q10 53 52.5 91t95.5 38t84 -38q24 -29 24 -66q0 -12 -2 -25q-8 -53 -51 -89t-96 -36t-84 36q-25 28 -25 68q0 10 2 21z" />
<glyph unicode="k" horiz-adv-x="946" d="M139 0h185l59 373l74 63l272 -436h240l-363 561l473 397h-243l-418 -360l186 1180h-184z" />
<glyph unicode="l" horiz-adv-x="454" d="M135 0h184l281 1778h-184z" />
<glyph unicode="m" horiz-adv-x="1570" d="M121 0l151 958h185l-19 -120h4q49 63 124 106t153 43q94 0 154.5 -45t95.5 -125q57 78 143 124t178 46q94 0 150.5 -33.5t83 -91t28.5 -132.5q0 -11 1 -22q0 -65 -11 -135l-90 -573h-184l86 543q6 47 9 96q1 10 1 20q0 38 -10 70q-12 41 -42 67.5t-91 26.5 q-74 0 -122 -33.5t-77 -86t-44 -115t-26 -117.5l-73 -471h-185l80 508q8 46 14 102q2 20 2 40q0 33 -6 63q-10 47 -40.5 78.5t-94.5 31.5q-74 0 -122 -33.5t-77.5 -86t-45 -115t-25.5 -117.5l-74 -471h-184z" />
<glyph unicode="n" horiz-adv-x="1071" d="M127 0l152 958h184l-21 -129h4q55 78 140.5 118t173.5 40q102 0 162.5 -31.5t90 -88t33.5 -132.5q1 -14 0 -29q0 -63 -12 -135l-90 -571h-184l86 549q10 61 12 111v11q0 45 -14 77q-16 36 -54 55.5t-110 19.5q-88 0 -142.5 -35.5t-85 -91t-46 -123t-25.5 -133.5l-70 -440 h-184z" />
<glyph unicode="o" horiz-adv-x="1105" d="M117 477q16 109 70.5 202t134 161.5t180.5 107.5t207 39q109 0 195.5 -39t145 -107.5t82.5 -161.5q15 -56 15 -118q0 -41 -6 -84q-16 -109 -71.5 -202t-135.5 -161.5t-179.5 -107.5t-207.5 -39q-106 0 -193.5 39t-145.5 107.5t-83 162.5q-15 56 -15 116q0 41 7 85z M301 477q-4 -27 -4 -52q-1 -39 9 -76q16 -60 52.5 -106t93 -73t123.5 -27q68 0 132.5 27t115.5 73t87 106.5t46 127.5q4 27 4 53q0 38 -9 76q-15 62 -52 107t-93 71.5t-124 26.5t-132.5 -26.5t-115.5 -71.5t-87 -106.5t-46 -129.5z" />
<glyph unicode="p" horiz-adv-x="1138" d="M27 -549l237 1507h185l-25 -159h4q72 86 163 137t200 51q104 0 181 -42t124 -110.5t66 -159.5q9 -47 9 -97q0 -46 -8 -93q-16 -102 -62 -196t-116 -166t-162 -114t-202 -42q-102 0 -178 50.5t-117 132.5h-4l-111 -699h-184zM362 479q-5 -33 -5 -65q0 -33 5 -65 q11 -62 41.5 -111.5t81.5 -78t125 -28.5q76 0 138.5 27.5t109.5 76t77 112t42 132.5q5 35 5 68t-5 65q-10 62 -43 109t-86 74.5t-127 27.5q-72 0 -132.5 -28.5t-107.5 -76.5t-77.5 -109.5t-41.5 -129.5z" />
<glyph unicode="q" horiz-adv-x="1138" d="M129 289q-7 44 -7 89q0 53 9 107q16 98 61.5 189.5t115 160t158.5 110.5t193 42q109 0 186 -51t120 -137h4l24 159h185l-238 -1507h-184l110 699h-4q-70 -82 -162 -132.5t-194 -50.5q-111 0 -189.5 42t-126 114t-61.5 166zM313 479q-5 -33 -5 -65q0 -33 6 -65 q10 -62 40.5 -111.5t81.5 -78t125 -28.5q76 0 138.5 27.5t109.5 76t76.5 112t42.5 132.5q5 35 5 68t-5 65q-10 62 -43 109t-86.5 74.5t-126.5 27.5q-72 0 -132.5 -28.5t-107.5 -76.5t-77.5 -109.5t-41.5 -129.5z" />
<glyph unicode="r" horiz-adv-x="718" d="M139 0l152 958h184l-24 -155h6q47 86 122.5 135t168.5 49q41 0 77.5 -12t67.5 -35l-111 -168q-23 23 -48 31t-58 8q-74 0 -124 -30.5t-81 -80t-47 -110t-27 -119.5l-73 -471h-185z" />
<glyph unicode="s" horiz-adv-x="786" d="M100 182l170 72q20 -53 54 -88t100 -35q59 0 108.5 37t59.5 98q6 39 -8.5 60.5t-42.5 44.5l-166 96q-37 23 -66.5 44t-50 49t-28.5 64q-4 18 -5 40q0 21 4 45q10 59 40 109t74 88t99.5 59.5t112.5 21.5q88 0 148.5 -45t87.5 -123l-162 -80q-10 35 -39 59.5t-70 24.5 q-39 0 -73.5 -26.5t-43.5 -67.5q-4 -31 11.5 -54.5t43 -44t65.5 -38t77 -35.5t75 -41.5t62.5 -56.5t38.5 -75q7 -23 7 -50q0 -23 -5 -49q-10 -68 -46 -126.5t-88 -101.5t-115.5 -66.5t-131.5 -23.5q-104 0 -189 56.5t-108 158.5z" />
<glyph unicode="t" horiz-adv-x="491" d="M154 0h184l125 786h180l27 172h-181l58 367h-185l-57 -367h-100l-27 -172h101z" />
<glyph unicode="u" horiz-adv-x="1048" d="M178 228q-4 31 -4 65q0 54 10 115l86 550h185l-84 -530q-9 -61 -9 -112t18 -90q18 -40 58.5 -63.5t108.5 -23.5t115 23.5t77.5 63.5t48 92.5t25.5 109.5l84 530h184l-86 -550q-16 -98 -53 -179.5t-95.5 -139.5t-140 -90t-188.5 -32q-106 0 -178 32t-112 90t-50 139z" />
<glyph unicode="v" horiz-adv-x="911" d="M125 958l324 -991l641 991h-207l-371 -598l-180 598h-207z" />
<glyph unicode="w" horiz-adv-x="1470" d="M119 958l330 -991l385 641l178 -641l645 991h-209l-375 -610l-176 664l-387 -664l-182 610h-209z" />
<glyph unicode="x" horiz-adv-x="1001" d="M-29 0h224l366 389l254 -389h215l-330 520l422 438h-223l-297 -309l-178 309h-217l274 -438z" />
<glyph unicode="y" horiz-adv-x="991" d="M-51 -549h209l1013 1507h-206l-398 -608l-227 608h-215l313 -794z" />
<glyph unicode="z" horiz-adv-x="1013" d="M4 0h981l27 172h-623l774 786h-897l-26 -172h538z" />
<glyph unicode="{" horiz-adv-x="684" d="M186 555l23 150q84 35 135 113.5t68 195.5l59 372q10 61 37 111.5t58.5 85.5t65.5 54.5t56 19.5h160l-27 -172h-82q-47 0 -61 -38t-23 -89l-59 -377q-14 -88 -45 -151.5t-63.5 -105.5t-62.5 -65.5t-40 -29.5q8 -6 30.5 -28.5t42 -64.5t31 -105.5t-3.5 -151.5l-61 -377 q-8 -51 -5 -89t50 -38h82l-29 -172h-160q-23 0 -49 19.5t-47.5 54t-32 85t-2.5 111.5l60 373q18 117 -7.5 195.5t-97.5 113.5z" />
<glyph unicode="|" horiz-adv-x="827" d="M465 -608h147v2435h-147v-2435z" />
<glyph unicode="}" horiz-adv-x="684" d="M35 -397l28 172h82q47 0 60.5 37.5t21.5 89.5l62 377q14 88 43.5 151.5t63.5 105.5t62.5 64.5t41.5 28.5q-8 6 -31 29.5t-42 65.5t-30.5 105.5t2.5 151.5l60 377q8 51 6 89t-49 38h-82l26 172h160q23 0 50.5 -19.5t49 -54.5t32 -85t-0.5 -112l-59 -372q-16 -117 8 -195.5 t96 -113.5l-22 -150q-84 -35 -134.5 -114t-68.5 -195l-59 -373q-8 -61 -35 -111.5t-59.5 -85t-66.5 -54t-56 -19.5h-160z" />
<glyph unicode="~" d="M141 465q35 41 73 85t82 81t93 61.5t105 24.5q76 0 132 -33t101 -72t82 -71.5t74 -32.5q59 0 102 49t102 127l121 -102q-31 -43 -67.5 -87t-81.5 -80t-95.5 -59.5t-105.5 -23.5q-57 0 -112.5 32.5t-106.5 71.5t-93 72t-75 33q-53 0 -103.5 -44t-111.5 -124z" />
<glyph unicode="&#xa1;" horiz-adv-x="657" d="M154 -528l188 1190h184l-188 -1190h-184zM356 922q8 47 48.5 82.5t89.5 35.5t78.5 -35.5t21.5 -82.5q-8 -49 -48 -84t-89 -35t-79 34.5t-22 84.5z" />
<glyph unicode="&#xa2;" d="M328 772q14 96 58 182t111.5 154t152.5 114t184 60l26 160h98l-26 -156q66 -4 127 -17.5t115 -45.5l-39 -236h-5q-35 57 -93 92t-132 37l-106 -672q78 10 142.5 40t127.5 87l-37 -239q-113 -49 -225 -58l-35 -2l-27 -174h-98l29 183q-90 14 -162 57t-118 108.5 t-64.5 148.5t-3.5 177zM508 670.5q8 -54.5 32.5 -99.5t65.5 -76.5t96 -43.5l103 653q-55 -6 -105.5 -39t-90.5 -80t-66.5 -101.5t-34.5 -103.5q-8 -55 0 -109.5z" />
<glyph unicode="&#xa3;" d="M31 49q72 96 151.5 161.5t200.5 70.5q41 88 56.5 171t-19.5 164h-264l18 119h205q-31 82 -53.5 179.5t-8.5 189.5q16 100 72.5 186t138.5 149.5t178.5 100.5t192.5 37q109 0 192 -35t136 -98.5t76.5 -151.5t11.5 -194l-195 -70l8 57q10 63 -3 120t-45.5 100t-84 67.5 t-116.5 24.5q-63 0 -127 -28t-117 -72t-89 -99t-46 -111q-8 -53 -1 -100t22.5 -90t34.5 -83t34 -79h303l-19 -119h-253q14 -96 -0.5 -176t-57.5 -176l144 -53q41 -16 89 -37.5t95 -21.5q31 0 58.5 14t51 36.5t44 49.5t38.5 51l140 -94q-59 -102 -150.5 -172t-208.5 -70 q-66 0 -130 20.5t-126 47.5q-61 27 -117.5 46t-109.5 19q-72 0 -120 -36t-83 -97z" />
<glyph unicode="&#xa4;" d="M109 233l98 91q-29 63 -42 132.5t3 157.5q14 88 48 158t83 133l-70 90l142 123l82 -90q66 45 142.5 71.5t174.5 26.5t167 -26.5t122 -71.5l106 90l105 -123l-99 -90q31 -63 43.5 -133t-2.5 -158q-16 -88 -49 -157.5t-84 -132.5l70 -91l-141 -122l-80 90 q-66 -45 -143.5 -72t-176.5 -27q-98 0 -166.5 27t-119.5 72l-109 -90zM332 614q-10 -72 8 -135t59 -110t101.5 -75t134.5 -28t143.5 28t126 75t94 110.5t50.5 134.5q12 76 -5.5 140.5t-58.5 110.5t-102.5 72t-139.5 26q-76 0 -146.5 -26t-125.5 -72t-92 -110.5t-47 -140.5z " />
<glyph unicode="&#xa5;" d="M96 532h484l-84 -532h192l84 532h483l19 119h-483l4 21l143 192h371l18 119h-303l412 561h-222l-483 -659l-274 659h-221l235 -561h-303l-18 -119h372l80 -192l-4 -21h-483z" />
<glyph unicode="&#xa6;" horiz-adv-x="827" d="M465 -424h147v850h-147v-850zM465 793h147v852h-147v-852z" />
<glyph unicode="&#xa7;" d="M162 211l6 31h182q-12 -61 -2 -116.5t40 -97.5t79 -65.5t113 -23.5q49 0 97 16t89 47t68.5 74t35.5 94q6 45 -7 79t-39.5 60.5t-60.5 46t-67 37.5l-266 142q-51 29 -94 55t-74 62t-43 85t-2 119q18 113 85 189.5t165 142.5q-35 49 -50.5 105.5t-4.5 121.5q12 78 56 144.5 t105.5 114.5t136 76t150.5 28q78 0 146.5 -22.5t116.5 -66.5t74 -108.5t17 -146.5h-178q4 45 -11 78.5t-44 57t-66.5 35t-78.5 11.5q-43 0 -83 -15.5t-73 -43t-55.5 -65.5t-28.5 -81q-6 -41 4 -71.5t29.5 -55t48.5 -44t59 -36.5l252 -137q43 -25 89 -52.5t81 -63.5t54.5 -82 t9.5 -107q-16 -102 -81 -194.5t-157 -151.5q92 -100 70 -250q-14 -92 -62.5 -165t-117 -124t-151.5 -78.5t-169 -27.5q-98 0 -178 29.5t-133.5 87t-76 139.5t-5.5 184zM403 877q-6 -39 5.5 -68t33 -51.5t49 -39t56.5 -32.5l330 -178q59 35 103 93t54 122q6 37 -3 64.5 t-27.5 48t-44 37t-52.5 30.5l-346 191q-61 -35 -104 -93.5t-54 -123.5z" />
<glyph unicode="&#xa8;" horiz-adv-x="962" d="M346 1298q10 51 51.5 87t94.5 36q51 0 81.5 -35.5t20.5 -87.5q-8 -53 -49 -88.5t-92 -35.5q-53 0 -84 35.5t-23 88.5zM778 1298q10 51 51.5 87t94.5 36q51 0 81.5 -35.5t20.5 -87.5q-8 -53 -49 -88.5t-92 -35.5q-53 0 -84 35.5t-23 88.5z" />
<glyph unicode="&#xa9;" horiz-adv-x="1638" d="M135 772q27 168 113 314.5t212 256t283.5 172t325.5 62.5q170 0 306 -62.5t228.5 -172t132.5 -256t13 -314.5t-113 -314.5t-213 -256t-283.5 -172t-326.5 -62.5q-168 0 -305 62.5t-229.5 172t-131 256t-12.5 314.5zM266 772q-23 -141 11 -265t112 -214t193.5 -142.5 t253.5 -52.5q139 0 269 52.5t236.5 142.5t180 214t96.5 265q23 143 -12 266t-113 214t-191.5 142.5t-252.5 51.5q-137 0 -269.5 -51.5t-239 -142.5t-179 -214t-95.5 -266zM526 778q16 100 60.5 185.5t112 148t155.5 97t193 34.5q143 0 234 -81t97 -224h-125q-6 86 -66.5 130 t-162.5 44q-82 0 -146.5 -28.5t-109.5 -75.5t-71.5 -105.5t-37.5 -120.5q-12 -72 -0.5 -133t45 -106t89 -71t131.5 -26q205 0 280 183h125q-20 -74 -63 -131.5t-101.5 -98.5t-126 -62.5t-137.5 -21.5q-102 0 -179 36t-126 99.5t-66.5 147.5t-3.5 180z" />
<glyph unicode="&#xaa;" horiz-adv-x="684" d="M227 1276q10 59 39 113.5t74 96.5t103.5 66.5t125.5 24.5q70 0 119 -30.5t80 -82.5h2l16 95h121l-92 -574h-121l15 88h-4q-43 -47 -101.5 -77.5t-126.5 -30.5q-72 0 -123 25.5t-82.5 68.5t-43 99t-1.5 118zM346 1272q-12 -82 29 -145.5t135 -63.5q98 0 160.5 61.5 t74.5 147.5q14 86 -28.5 146.5t-141.5 60.5q-45 0 -84.5 -17.5t-69.5 -46.5t-49.5 -65.5t-25.5 -77.5z" />
<glyph unicode="&#xab;" horiz-adv-x="1071" d="M166 655l297 -475l127 84l-242 391l369 408l-101 84zM559 655l297 -475l127 84l-242 391l369 408l-100 84z" />
<glyph unicode="&#xac;" d="M164 612h872l-59 -376h176l88 552h-1048z" />
<glyph unicode="&#xad;" horiz-adv-x="679" d="M209 580h448l25 153h-449z" />
<glyph unicode="&#xae;" horiz-adv-x="1638" d="M135 772q27 168 113 314.5t212 256t283.5 172t325.5 62.5q170 0 306 -62.5t228.5 -172t132.5 -256t13 -314.5t-113 -314.5t-213 -256t-283.5 -172t-326.5 -62.5q-168 0 -305 62.5t-229.5 172t-131 256t-12.5 314.5zM266 772q-23 -141 11 -265t112 -214t193.5 -142.5 t253.5 -52.5q139 0 269 52.5t236.5 142.5t180 214t96.5 265q23 143 -12 266t-113 214t-191.5 142.5t-252.5 51.5q-137 0 -269.5 -51.5t-239 -142.5t-179 -214t-95.5 -266zM557 313l143 906h381q61 0 115.5 -10.5t93.5 -38t57.5 -73.5t8.5 -118q-10 -68 -39 -114t-67 -75.5 t-84 -43t-91 -15.5l162 -418h-150l-163 418h-168l-68 -418h-131zM776 862h139q23 0 47.5 -1t49.5 -1q37 0 72.5 3t64.5 14.5t48.5 32t25.5 55.5q6 43 -7.5 67.5t-39 36.5t-62.5 15t-78 3h-225z" />
<glyph unicode="&#xaf;" horiz-adv-x="1024" d="M346 1282h739l23 139h-739z" />
<glyph unicode="&#xb0;" horiz-adv-x="819" d="M303 1270q10 63 43 118.5t81 97.5t108.5 66.5t123.5 24.5t114.5 -24.5t87.5 -66.5t51.5 -97.5t5.5 -118.5t-43 -119.5t-82.5 -97.5t-108.5 -65.5t-123 -24.5q-63 0 -115.5 24.5t-87 65.5t-50 97t-5.5 120zM406 1270q-14 -88 34.5 -146.5t137.5 -58.5q86 0 154.5 58.5 t82.5 146.5q14 86 -36 145.5t-138 59.5q-43 0 -83 -15.5t-71.5 -43t-53 -65.5t-27.5 -81z" />
<glyph unicode="&#xb1;" d="M68 0h1048l29 176h-1049zM166 621h436l-55 -355h176l55 355h436l29 176h-436l55 354h-176l-55 -354h-436z" />
<glyph unicode="&#xb2;" horiz-adv-x="708" d="M129 618l518 498q37 35 66.5 77t38.5 89q6 37 -6.5 66.5t-36 51t-55 34t-62.5 12.5q-76 0 -132.5 -43t-72.5 -113h-137q33 123 128 199t232 76q63 0 117.5 -20.5t92.5 -57.5t55.5 -88t7.5 -113q-8 -51 -33 -102t-64 -88l-374 -359h385l-19 -119h-649z" />
<glyph unicode="&#xb3;" horiz-adv-x="708" d="M176 860h131q-2 -70 41 -100.5t121 -30.5q74 0 137.5 44t75.5 120q12 78 -38 123t-132 45h-10l18 119q86 0 145.5 33.5t69.5 103.5q10 72 -37 106.5t-110 34.5q-59 0 -110.5 -27.5t-61.5 -87.5h-137q37 115 121.5 174.5t209.5 59.5q59 0 110.5 -17.5t87.5 -49t53.5 -78 t6.5 -105.5q-10 -68 -54 -121t-116 -88q70 -33 98.5 -93t16.5 -136q-10 -66 -45 -117t-85 -87t-112.5 -55.5t-130.5 -19.5q-57 0 -108 17.5t-88 50.5t-55.5 79t-12.5 103z" />
<glyph unicode="&#xb4;" horiz-adv-x="737" d="M340 1163l82 -55l383 305l-156 90z" />
<glyph unicode="&#xb5;" horiz-adv-x="1048" d="M33 -549l237 1507h185l-84 -530q-8 -57 -8.5 -109.5t18 -92.5t58.5 -63.5t108 -23.5t115 23.5t77.5 63.5t48 92.5t25.5 109.5l84 530h184l-86 -550q-16 -98 -53 -179.5t-95.5 -139.5t-140 -90t-188.5 -32q-61 0 -116.5 28t-90.5 62l-94 -606h-184z" />
<glyph unicode="&#xb6;" d="M246 1018q8 92 52 186t114.5 170t163 123t192.5 47h578l-27 -172h-125l-266 -1685h-172l266 1685h-127l-266 -1685h-172l141 893q-86 0 -155.5 29.5t-116.5 86t-67.5 137t-12.5 185.5z" />
<glyph unicode="&#xb7;" horiz-adv-x="591" d="M262 524q6 47 47 83t90 36t78 -36t23 -83q-10 -49 -50 -83.5t-90 -34.5q-49 0 -78.5 34.5t-19.5 83.5z" />
<glyph unicode="&#xb8;" horiz-adv-x="675" d="M127 -315l98 -56l260 277l-137 59z" />
<glyph unicode="&#xb9;" horiz-adv-x="708" d="M358 1425h177l-127 -807h131l145 926h-238z" />
<glyph unicode="&#xba;" horiz-adv-x="663" d="M201 1270q10 66 45 122t86 97t115.5 64.5t134.5 23.5t127 -23.5t96 -64.5t55.5 -97.5t5.5 -121.5q-10 -63 -45 -119.5t-86 -97.5t-115.5 -64.5t-134.5 -23.5t-127 23.5t-95 64.5t-55.5 97t-6.5 120zM322 1270q-12 -80 39 -139.5t141 -59.5q45 0 86 16.5t73.5 43t55 63.5 t28.5 76q14 84 -38 142t-142 58q-45 0 -86 -15t-73.5 -43t-55 -64.5t-28.5 -77.5z" />
<glyph unicode="&#xbb;" horiz-adv-x="1071" d="M170 264l102 -84l449 475l-295 492l-129 -84l242 -408zM563 264l103 -84l448 475l-295 492l-129 -84l242 -408z" />
<glyph unicode="&#xbc;" horiz-adv-x="1775" d="M307 1425h176l-127 -807h131l146 926h-238zM395 25l94 -58l1149 1557l-96 53zM985 135h498l-21 -135h131l21 135h100l21 119h-101l113 715zM1245 254l305 336h6l-53 -336h-258z" />
<glyph unicode="&#xbd;" horiz-adv-x="1775" d="M289 25l1147 1552l96 -53l-1149 -1557zM307 1425l88 119h238l-146 -926h-131l127 807h-176zM1044 0l519 498q37 35 67.5 76.5t36.5 89.5q6 37 -6 66.5t-35.5 51t-55.5 33.5t-63 12q-76 0 -132 -43t-72 -112h-138q35 123 129.5 198.5t231.5 75.5q63 0 117.5 -20.5 t92.5 -57.5t56 -88t8 -112q-10 -51 -34.5 -102.5t-63.5 -88.5l-375 -358h385l-18 -119h-650z" />
<glyph unicode="&#xbe;" horiz-adv-x="1775" d="M219 860h131q-2 -70 41 -100.5t121 -30.5q74 0 137.5 44t75.5 120q12 78 -38 123t-132 45h-10l18 119q86 0 145.5 33.5t69.5 103.5q10 72 -37 106.5t-110 34.5q-59 0 -110.5 -27.5t-61.5 -87.5h-137q37 115 121.5 174.5t209.5 59.5q59 0 110.5 -17.5t87.5 -49t53.5 -78 t6.5 -105.5q-10 -68 -54 -121t-116 -88q70 -33 98.5 -93t16.5 -136q-10 -66 -45 -117t-85 -87t-112.5 -55.5t-130.5 -19.5q-57 0 -108 17.5t-88 50.5t-55.5 79t-12.5 103zM510 25l1147 1552l96 -53l-1149 -1557zM985 135l762 834l-113 -715h101l-21 -119h-100l-21 -135h-131 l21 135h-498zM1245 254h258l53 336h-6z" />
<glyph unicode="&#xbf;" horiz-adv-x="927" d="M57 -186q10 72 49 139t101 115q59 45 132 69.5t140 44.5q59 16 111.5 49t62.5 101q10 61 -24.5 104t-96.5 43q-66 0 -113 -45.5t-57 -111.5h-186q8 68 44 127t90.5 104t119 71.5t129.5 26.5q68 0 124 -25.5t94 -69.5t54.5 -103.5t6.5 -128.5q-12 -74 -42 -123t-72 -83 t-91 -55.5t-101 -39.5q-51 -18 -99 -35t-88 -40.5t-67.5 -56t-35.5 -84.5q-14 -86 31.5 -134t127.5 -48q72 0 132.5 52.5t72.5 123.5q2 16 1 32.5t-3 33.5h193l-9 -68q-6 -76 -46 -139t-98 -109.5t-131 -73t-144 -26.5q-78 0 -140.5 27.5t-104.5 76t-60.5 115t-6.5 144.5z M483 922q8 47 48.5 82.5t89.5 35.5t78.5 -35.5t21.5 -82.5q-8 -49 -48 -84t-89 -35t-79 34.5t-22 84.5z" />
<glyph unicode="&#xc0;" horiz-adv-x="1439" d="M-16 0h206l238 387h709l114 -387h207l-483 1610zM537 563l372 625l176 -625h-548zM735 1948l287 -306l98 56l-200 340z" />
<glyph unicode="&#xc1;" horiz-adv-x="1439" d="M-16 0h206l238 387h709l114 -387h207l-483 1610zM537 563l372 625l176 -625h-548zM858 1698l82 -56l385 306l-156 90z" />
<glyph unicode="&#xc2;" horiz-adv-x="1439" d="M-16 0h206l238 387h709l114 -387h207l-483 1610zM537 563l372 625l176 -625h-548zM670 1741l102 -94l240 196l176 -196l137 94l-283 297z" />
<glyph unicode="&#xc3;" horiz-adv-x="1439" d="M-16 0l991 1610l483 -1610h-207l-114 387h-709l-238 -387h-206zM537 563h548l-176 625zM612 1790l9 10q51 59 107 107.5t138 48.5q53 0 95.5 -15.5t78.5 -37.5q37 -23 71 -39.5t69 -16.5q45 0 81.5 32t63.5 67l84 -80q-47 -72 -114.5 -120t-153.5 -48q-43 0 -83 16.5 t-79 36.5q-37 18 -74 34.5t-78 16.5q-39 0 -75 -30.5t-56 -63.5z" />
<glyph unicode="&#xc4;" horiz-adv-x="1439" d="M-16 0l991 1610l483 -1610h-207l-114 387h-709l-238 -387h-206zM537 563h548l-176 625zM672 1833q8 51 49 87t94 36q51 0 82 -36t23 -87q-10 -53 -51.5 -89t-92.5 -36q-53 0 -83.5 36t-20.5 89zM1104 1833q8 51 49 87t94 36q51 0 82 -36t23 -87q-10 -53 -51 -89t-93 -36 q-53 0 -83.5 36t-20.5 89z" />
<glyph unicode="&#xc5;" horiz-adv-x="1439" d="M-16 0l991 1610l483 -1610h-207l-114 387h-709l-238 -387h-206zM537 563h548l-176 625zM827 1831q12 78 73.5 132t139.5 54t124 -54t34 -132t-75.5 -131t-141.5 -53t-122 53t-32 131zM920 1831q-6 -39 16 -65.5t59 -26.5q39 0 72 26.5t39 65.5t-17.5 66.5t-62.5 27.5 q-37 0 -68.5 -27.5t-37.5 -66.5z" />
<glyph unicode="&#xc6;" horiz-adv-x="2041" d="M0 0h211l238 387h702l109 -387h831l-49 176h-637l-156 584h619l-56 176h-616l-117 432h633l-51 176h-676zM559 563l377 598l172 -598h-549z" />
<glyph unicode="&#xc7;" horiz-adv-x="1353" d="M182 764q27 172 115 320.5t217 258t289 172t330 62.5q102 0 197 -25.5t175 -78.5l-35 -224q-72 74 -173 113t-212 39q-129 0 -248.5 -50.5t-215 -136.5t-160 -200.5t-84.5 -243.5q-20 -127 7.5 -240.5t95 -199.5t171 -136.5t232.5 -50.5q115 0 226.5 41t209.5 119 l-35 -227q-98 -53 -209.5 -81t-214.5 -28q-166 0 -302 61.5t-228 169t-133 253t-15 313.5zM467 -315l221 280l137 -59l-260 -277z" />
<glyph unicode="&#xc8;" horiz-adv-x="1067" d="M147 0h830l29 176h-637l92 584h618l27 176h-619l70 432h637l27 176h-830zM590 1948l287 -306l98 56l-201 340z" />
<glyph unicode="&#xc9;" horiz-adv-x="1067" d="M147 0h830l29 176h-637l92 584h618l27 176h-619l70 432h637l27 176h-830zM672 1698l82 -56l385 306l-156 90z" />
<glyph unicode="&#xca;" horiz-adv-x="1067" d="M147 0h830l29 176h-637l92 584h618l27 176h-619l70 432h637l27 176h-830zM508 1741l102 -94l240 196l176 -196l137 94l-282 297z" />
<glyph unicode="&#xcb;" horiz-adv-x="1067" d="M147 0l244 1544h830l-27 -176h-637l-70 -432h619l-27 -176h-618l-92 -584h637l-29 -176h-830zM510 1833q8 51 49 87t94 36q51 0 82 -36t23 -87q-10 -53 -51 -89t-93 -36q-53 0 -83.5 36t-20.5 89zM942 1833q8 51 49 87t94 36q51 0 82 -36t23 -87q-10 -53 -51 -89t-92 -36 q-53 0 -84 36t-21 89z" />
<glyph unicode="&#xcc;" horiz-adv-x="475" d="M141 0h193l244 1544h-193zM272 1948l287 -306l98 56l-200 340z" />
<glyph unicode="&#xcd;" horiz-adv-x="475" d="M141 0h193l244 1544h-193zM354 1698l82 -56l385 306l-155 90z" />
<glyph unicode="&#xce;" horiz-adv-x="475" d="M141 0h193l244 1544h-193zM186 1741l103 -94l239 196l177 -196l137 94l-283 297z" />
<glyph unicode="&#xcf;" horiz-adv-x="475" d="M141 0l244 1544h193l-244 -1544h-193zM188 1833q8 51 49.5 87t94.5 36q51 0 81.5 -36t22.5 -87q-10 -53 -51 -89t-92 -36q-53 0 -84 36t-21 89zM621 1833q8 51 49 87t94 36q51 0 82 -36t22 -87q-10 -53 -51 -89t-92 -36q-53 0 -84 36t-20 89z" />
<glyph unicode="&#xd0;" horiz-adv-x="1361" d="M117 741l26 164h131l101 639h319q178 0 327.5 -47t253 -142t149.5 -238.5t16 -336.5q-31 -197 -122 -344t-224 -243.5t-300 -144.5t-350 -48h-313l117 741h-131zM352 176h68q147 0 284.5 30t249 99.5t189.5 184t104 282.5q27 170 -14 283.5t-131 183.5t-218 99.5 t-276 29.5h-67l-74 -463h274l-26 -164h-275z" />
<glyph unicode="&#xd1;" horiz-adv-x="1607" d="M129 0l256 1618l967 -1215l180 1141h192l-254 -1607l-966 1214l-182 -1151h-193zM696 1790l9 10q51 59 107 107.5t138 48.5q53 0 95 -15.5t79 -37.5q37 -23 71 -39.5t69 -16.5q45 0 81.5 32t63.5 67l84 -80q-47 -72 -114.5 -120t-153.5 -48q-43 0 -83 16.5t-79 36.5 q-37 18 -74 34.5t-78 16.5q-39 0 -75 -30.5t-56 -63.5z" />
<glyph unicode="&#xd2;" horiz-adv-x="1695" d="M162 772q27 166 113.5 312.5t214.5 256t285 173t323 63.5t303 -63.5t230 -173t134 -256t15 -312.5q-27 -172 -115 -319.5t-215 -255t-283.5 -169t-324.5 -61.5t-305.5 61.5t-229.5 169t-132 255t-13 319.5zM354 772q-20 -131 10.5 -245.5t101.5 -198.5t175 -132.5 t229 -48.5t245 48.5t217.5 132.5t166 198.5t88.5 245.5q20 127 -7.5 240.5t-96 198.5t-174 135.5t-240.5 50.5t-257 -50.5t-217 -135.5t-157.5 -198.5t-83.5 -240.5zM883 1948l184 90l201 -340l-99 -56z" />
<glyph unicode="&#xd3;" horiz-adv-x="1695" d="M162 772q27 166 113.5 312.5t214.5 256t285 173t323 63.5t303 -63.5t230 -173t134 -256t15 -312.5q-27 -172 -115 -319.5t-215 -255t-283.5 -169t-324.5 -61.5t-305.5 61.5t-229.5 169t-132 255t-13 319.5zM354 772q-20 -131 10.5 -245.5t101.5 -198.5t175 -132.5 t229 -48.5t245 48.5t217.5 132.5t166 198.5t88.5 245.5q20 127 -7.5 240.5t-96 198.5t-174 135.5t-240.5 50.5t-257 -50.5t-217 -135.5t-157.5 -198.5t-83.5 -240.5zM965 1698l311 340l156 -90l-385 -306z" />
<glyph unicode="&#xd4;" horiz-adv-x="1695" d="M162 772q27 166 113.5 312.5t214.5 256t285 173t323 63.5t303 -63.5t230 -173t134 -256t15 -312.5q-27 -172 -115 -319.5t-215 -255t-283.5 -169t-324.5 -61.5t-305.5 61.5t-229.5 169t-132 255t-13 319.5zM354 772q-20 -131 10.5 -245.5t101.5 -198.5t175 -132.5 t229 -48.5t245 48.5t217.5 132.5t166 198.5t88.5 245.5q20 127 -7.5 240.5t-96 198.5t-174 135.5t-240.5 50.5t-257 -50.5t-217 -135.5t-157.5 -198.5t-83.5 -240.5zM797 1741l372 297l283 -297l-137 -94l-176 196l-240 -196z" />
<glyph unicode="&#xd5;" horiz-adv-x="1695" d="M162 772q27 166 113.5 312.5t214.5 256t285 173t323 63.5t303 -63.5t230 -173t134 -256t15 -312.5q-27 -172 -115 -319.5t-215 -255t-283.5 -169t-324.5 -61.5t-305.5 61.5t-229.5 169t-132 255t-13 319.5zM354 772q-20 -131 10.5 -245.5t101.5 -198.5t175 -132.5 t229 -48.5t245 48.5t217.5 132.5t166 198.5t88.5 245.5q20 127 -7.5 240.5t-96 198.5t-174 135.5t-240.5 50.5t-257 -50.5t-217 -135.5t-157.5 -198.5t-83.5 -240.5zM739 1790l9 10q51 59 107 107.5t138 48.5q53 0 95 -15.5t79 -37.5q37 -23 71 -39.5t69 -16.5q45 0 81.5 32 t63.5 67l84 -80q-47 -72 -114.5 -120t-153.5 -48q-43 0 -83 16.5t-79 36.5q-37 18 -74 34.5t-78 16.5q-39 0 -75 -30.5t-56 -63.5z" />
<glyph unicode="&#xd6;" horiz-adv-x="1695" d="M162 772q27 166 113.5 312.5t214.5 256t285 173t323 63.5t303 -63.5t230 -173t134 -256t15 -312.5q-27 -172 -115 -319.5t-215 -255t-283.5 -169t-324.5 -61.5t-305.5 61.5t-229.5 169t-132 255t-13 319.5zM354 772q-20 -131 10.5 -245.5t101.5 -198.5t175 -132.5 t229 -48.5t245 48.5t217.5 132.5t166 198.5t88.5 245.5q20 127 -7.5 240.5t-96 198.5t-174 135.5t-240.5 50.5t-257 -50.5t-217 -135.5t-157.5 -198.5t-83.5 -240.5zM799 1833q8 51 49 87t94 36q51 0 82 -36t23 -87q-10 -53 -51.5 -89t-92.5 -36q-53 0 -84 36t-20 89z M1231 1833q8 51 49 87t94 36q51 0 82 -36t23 -87q-10 -53 -51.5 -89t-92.5 -36q-53 0 -83.5 36t-20.5 89z" />
<glyph unicode="&#xd7;" d="M88 125l102 -125l465 399l338 -399l144 125l-336 399l461 400l-103 125l-465 -400l-338 400l-143 -125l338 -400z" />
<glyph unicode="&#xd8;" horiz-adv-x="1695" d="M20 43l246 209q-72 104 -100.5 236.5t-3.5 283.5q27 166 113.5 312.5t214.5 256t285 173t323 63.5q152 0 277.5 -52t217.5 -145l228 195l92 -109l-232 -196q66 -104 93.5 -230.5t5.5 -267.5q-27 -172 -115 -319.5t-215 -255t-283.5 -169t-324.5 -61.5q-145 0 -267 46 t-215 130l-245 -209zM354 772q-18 -111 1.5 -209t70.5 -176l1018 866q-66 68 -161 106t-214 38q-135 0 -257 -50.5t-217 -135.5t-157.5 -198.5t-83.5 -240.5zM516 276q68 -59 158 -94t196 -35q125 0 245 48.5t217.5 132.5t166 198.5t88.5 245.5q31 211 -57 369z" />
<glyph unicode="&#xd9;" horiz-adv-x="1370" d="M211 567l154 977h192l-143 -911q-14 -94 -12.5 -182.5t32.5 -156t97.5 -107.5t177.5 -40t189.5 40t131.5 107.5t84 156t45 182.5l144 911h192l-154 -977q-20 -127 -75.5 -236.5t-141.5 -190.5t-198.5 -127t-245.5 -46t-230.5 46t-157 127t-81 190.5t-0.5 236.5zM721 1948 l184 90l201 -340l-98 -56z" />
<glyph unicode="&#xda;" horiz-adv-x="1370" d="M211 567l154 977h192l-143 -911q-14 -94 -12.5 -182.5t32.5 -156t97.5 -107.5t177.5 -40t189.5 40t131.5 107.5t84 156t45 182.5l144 911h192l-154 -977q-20 -127 -75.5 -236.5t-141.5 -190.5t-198.5 -127t-245.5 -46t-230.5 46t-157 127t-81 190.5t-0.5 236.5zM803 1698 l311 340l156 -90l-385 -306z" />
<glyph unicode="&#xdb;" horiz-adv-x="1370" d="M211 567l154 977h192l-143 -911q-14 -94 -12.5 -182.5t32.5 -156t97.5 -107.5t177.5 -40t189.5 40t131.5 107.5t84 156t45 182.5l144 911h192l-154 -977q-20 -127 -75.5 -236.5t-141.5 -190.5t-198.5 -127t-245.5 -46t-230.5 46t-157 127t-81 190.5t-0.5 236.5zM635 1741 l373 297l282 -297l-137 -94l-176 196l-240 -196z" />
<glyph unicode="&#xdc;" horiz-adv-x="1370" d="M211 567l154 977h192l-143 -911q-14 -94 -12.5 -182.5t32.5 -156t97.5 -107.5t177.5 -40t189.5 40t131.5 107.5t84 156t45 182.5l144 911h192l-154 -977q-20 -127 -75.5 -236.5t-141.5 -190.5t-198.5 -127t-245.5 -46t-230.5 46t-157 127t-81 190.5t-0.5 236.5zM637 1833 q8 51 49 87t94 36q51 0 82 -36t23 -87q-10 -53 -51 -89t-93 -36q-53 0 -83.5 36t-20.5 89zM1069 1833q8 51 49 87t94 36q51 0 82 -36t23 -87q-10 -53 -51 -89t-92 -36q-53 0 -84 36t-21 89z" />
<glyph unicode="&#xdd;" horiz-adv-x="1173" d="M231 1544l367 -872l-106 -672h192l107 672l641 872h-222l-483 -659l-274 659h-222zM766 1698l82 -56l385 306l-156 90z" />
<glyph unicode="&#xde;" horiz-adv-x="1013" d="M147 0l244 1544h193l-45 -287h28q178 0 293 -29.5t178.5 -87t81 -140t0.5 -189.5q-18 -123 -75.5 -208t-140.5 -139t-184.5 -79t-211.5 -25h-111l-57 -360h-193zM424 532h61q74 0 149 9.5t138.5 40t108.5 86t59 147.5q14 90 -15.5 144.5t-87 82t-130 35.5t-144.5 8h-51z " />
<glyph unicode="&#xdf;" horiz-adv-x="1187" d="M139 0l125 791h-82l27 172h82l49 303q18 117 57 215t103.5 169.5t158 111.5t220.5 40q94 0 169.5 -32.5t127 -91t73 -140.5t4.5 -178q-35 -227 -249 -342q72 -25 123 -75t81.5 -116.5t39.5 -143.5t-3 -155q-18 -117 -78.5 -219t-149.5 -178t-197.5 -120t-223.5 -44h-25 l29 172q80 0 157 31t140.5 84t107.5 124t56 150q14 90 -6.5 158t-66.5 116t-114.5 73.5t-152.5 31.5l29 180q59 0 113.5 21.5t97.5 60.5t72.5 90.5t37.5 110.5q10 57 -4 104.5t-45 82t-76 54t-100 19.5q-100 0 -162.5 -48t-97.5 -120.5t-51.5 -157.5t-28.5 -159l-182 -1145 h-185z" />
<glyph unicode="&#xe0;" horiz-adv-x="1138" d="M130 289q-15 94 1 196q16 98 61.5 189.5t115 160t159.5 110.5t195 42q106 0 183 -51t120 -137h4l24 159h185l-152 -958h-184l24 150h-4q-70 -82 -161 -132.5t-195 -50.5q-111 0 -188.5 42t-125 114t-62.5 166zM313 479q-10 -68 0.5 -130t41 -111.5t81.5 -78t125 -28.5 q76 0 138.5 27.5t109.5 76t76.5 112t42.5 132.5q10 70 0 132.5t-43 109.5t-86.5 74.5t-126.5 27.5q-72 0 -132.5 -28.5t-107.5 -76.5t-77.5 -109.5t-41.5 -129.5zM549 1413l184 90l203 -340l-98 -55z" />
<glyph unicode="&#xe1;" horiz-adv-x="1138" d="M130 289q-15 94 1 196q16 98 61.5 189.5t115 160t159.5 110.5t195 42q106 0 183 -51t120 -137h4l24 159h185l-152 -958h-184l24 150h-4q-70 -82 -161 -132.5t-195 -50.5q-111 0 -188.5 42t-125 114t-62.5 166zM313 479q-10 -68 0.5 -130t41 -111.5t81.5 -78t125 -28.5 q76 0 138.5 27.5t109.5 76t76.5 112t42.5 132.5q10 70 0 132.5t-43 109.5t-86.5 74.5t-126.5 27.5q-72 0 -132.5 -28.5t-107.5 -76.5t-77.5 -109.5t-41.5 -129.5zM623 1163l309 340l155 -90l-382 -305z" />
<glyph unicode="&#xe2;" horiz-adv-x="1138" d="M130 289q-15 94 1 196q16 98 61.5 189.5t115 160t159.5 110.5t195 42q106 0 183 -51t120 -137h4l24 159h185l-152 -958h-184l24 150h-4q-70 -82 -161 -132.5t-195 -50.5q-111 0 -188.5 42t-125 114t-62.5 166zM313 479q-10 -68 0.5 -130t41 -111.5t81.5 -78t125 -28.5 q76 0 138.5 27.5t109.5 76t76.5 112t42.5 132.5q10 70 0 132.5t-43 109.5t-86.5 74.5t-126.5 27.5q-72 0 -132.5 -28.5t-107.5 -76.5t-77.5 -109.5t-41.5 -129.5zM432 1206l373 297l282 -297l-135 -94l-178 197l-237 -197z" />
<glyph unicode="&#xe3;" horiz-adv-x="1138" d="M130 289q-15 94 1 196q16 98 61.5 189.5t115 160t159.5 110.5t195 42q106 0 183 -51t120 -137h4l24 159h185l-152 -958h-184l24 150h-4q-70 -82 -161 -132.5t-195 -50.5q-111 0 -188.5 42t-125 114t-62.5 166zM313 479q-10 -68 0.5 -130t41 -111.5t81.5 -78t125 -28.5 q76 0 138.5 27.5t109.5 76t76.5 112t42.5 132.5q10 70 0 132.5t-43 109.5t-86.5 74.5t-126.5 27.5q-72 0 -132.5 -28.5t-107.5 -76.5t-77.5 -109.5t-41.5 -129.5zM377 1255l8 11q51 59 107.5 107t138.5 48q53 0 95 -15t79 -38t70.5 -39t68.5 -16q45 0 81 31.5t65 66.5 l84 -80q-47 -72 -115 -120t-154 -48q-43 0 -83 16.5t-79 37.5q-37 18 -73.5 34.5t-77.5 16.5q-39 0 -75 -30.5t-56 -63.5z" />
<glyph unicode="&#xe4;" horiz-adv-x="1138" d="M130 289q-15 94 1 196q16 98 61.5 189.5t115 160t159.5 110.5t195 42q106 0 183 -51t120 -137h4l24 159h185l-152 -958h-184l24 150h-4q-70 -82 -161 -132.5t-195 -50.5q-111 0 -188.5 42t-125 114t-62.5 166zM313 479q-10 -68 0.5 -130t41 -111.5t81.5 -78t125 -28.5 q76 0 138.5 27.5t109.5 76t76.5 112t42.5 132.5q10 70 0 132.5t-43 109.5t-86.5 74.5t-126.5 27.5q-72 0 -132.5 -28.5t-107.5 -76.5t-77.5 -109.5t-41.5 -129.5zM434 1298q10 51 51.5 87t94.5 36q51 0 81.5 -35.5t20.5 -87.5q-8 -53 -49 -88.5t-92 -35.5q-53 0 -84 35.5 t-23 88.5zM866 1298q10 51 51.5 87t94.5 36q51 0 81.5 -35.5t20.5 -87.5q-8 -53 -49 -88.5t-92 -35.5q-53 0 -84 35.5t-23 88.5z" />
<glyph unicode="&#xe5;" horiz-adv-x="1138" d="M130 289q-15 94 1 196q16 98 61.5 189.5t115 160t159.5 110.5t195 42q106 0 183 -51t120 -137h4l24 159h185l-152 -958h-184l24 150h-4q-70 -82 -161 -132.5t-195 -50.5q-111 0 -188.5 42t-125 114t-62.5 166zM313 479q-10 -68 0.5 -130t41 -111.5t81.5 -78t125 -28.5 q76 0 138.5 27.5t109.5 76t76.5 112t42.5 132.5q10 70 0 132.5t-43 109.5t-86.5 74.5t-126.5 27.5q-72 0 -132.5 -28.5t-107.5 -76.5t-77.5 -109.5t-41.5 -129.5zM594 1317q12 78 73.5 132t139.5 54t124 -54t34 -132t-75 -131t-140 -53q-78 0 -123 53t-33 131zM686 1317 q-6 -39 17.5 -65.5t60.5 -26.5q39 0 70.5 26.5t37.5 65.5t-17.5 66.5t-61.5 27.5q-37 0 -69 -27.5t-38 -66.5z" />
<glyph unicode="&#xe6;" horiz-adv-x="1652" d="M98 281q12 78 51 138t95.5 101t125 61.5t142.5 20.5q78 0 150.5 -19.5t125.5 -68.5l11 66q39 248 -213 247q-66 0 -133.5 -5t-133.5 -25l25 164q74 14 147.5 20t145.5 6q45 0 92 -9t88 -28.5t74 -49.5t49 -71q76 78 177.5 118t211.5 40q115 0 192.5 -40t123 -108.5 t57.5 -161.5t-4 -200l-4 -28h-731q-8 -61 2 -119t40.5 -102t80 -70.5t114.5 -26.5q106 0 179 50t139 136l141 -88q-88 -125 -217 -193.5t-271 -68.5q-111 0 -196.5 49.5t-143.5 128.5q-74 -92 -182 -135t-213 -43q-70 0 -136.5 18.5t-115.5 57.5t-73.5 98.5t-12.5 139.5z M270 285q-6 -43 12.5 -73t50.5 -47.5t71.5 -25.5t74.5 -8q37 0 80 8t81 27.5t66.5 50.5t34.5 74q8 43 -12 72.5t-54 48t-75 26.5t-76 8q-37 0 -77.5 -9t-77.5 -29.5t-65 -50t-34 -72.5zM997 588h537q2 109 -56.5 174t-168.5 65q-109 0 -193 -67.5t-119 -171.5z" />
<glyph unicode="&#xe7;" horiz-adv-x="903" d="M127 471q18 111 73.5 206t136.5 163.5t183.5 107.5t212.5 39q66 0 130.5 -15t113.5 -48l-37 -238q-92 129 -254 129q-68 0 -130 -27.5t-112.5 -73.5t-85 -107.5t-45.5 -127.5q-12 -74 3.5 -136t52.5 -107.5t93 -71t130 -25.5q80 0 150.5 34t131.5 93l-38 -235 q-68 -35 -135.5 -49.5t-139.5 -14.5q-106 0 -193 39t-146.5 106.5t-85 160t-9.5 198.5zM242 -315l221 280l137 -59l-260 -277z" />
<glyph unicode="&#xe8;" horiz-adv-x="999" d="M127 471q18 111 62 205t114 163.5t163 108.5t210 39q115 0 192.5 -40t122.5 -108.5t57.5 -161.5t-4.5 -200l-4 -28h-731q-8 -61 2.5 -119t41 -102t79.5 -70.5t115 -26.5q106 0 179 50t138 136l142 -88q-88 -125 -217.5 -193.5t-270.5 -68.5q-111 0 -191.5 39t-130 106.5 t-67.5 160t-2 198.5zM340 588h537q2 109 -56.5 174t-169.5 65q-109 0 -192.5 -67.5t-118.5 -171.5zM479 1413l185 90l202 -340l-98 -55z" />
<glyph unicode="&#xe9;" horiz-adv-x="999" d="M127 471q18 111 62 205t114 163.5t163 108.5t210 39q115 0 192.5 -40t122.5 -108.5t57.5 -161.5t-4.5 -200l-4 -28h-731q-8 -61 2.5 -119t41 -102t79.5 -70.5t115 -26.5q106 0 179 50t138 136l142 -88q-88 -125 -217.5 -193.5t-270.5 -68.5q-111 0 -191.5 39t-130 106.5 t-67.5 160t-2 198.5zM340 588h537q2 109 -56.5 174t-169.5 65q-109 0 -192.5 -67.5t-118.5 -171.5zM553 1163l309 340l156 -90l-383 -305z" />
<glyph unicode="&#xea;" horiz-adv-x="999" d="M127 471q18 111 62 205t114 163.5t163 108.5t210 39q115 0 192.5 -40t122.5 -108.5t57.5 -161.5t-4.5 -200l-4 -28h-731q-8 -61 2.5 -119t41 -102t79.5 -70.5t115 -26.5q106 0 179 50t138 136l142 -88q-88 -125 -217.5 -193.5t-270.5 -68.5q-111 0 -191.5 39t-130 106.5 t-67.5 160t-2 198.5zM340 588h537q2 109 -56.5 174t-169.5 65q-109 0 -192.5 -67.5t-118.5 -171.5zM362 1206l373 297l283 -297l-135 -94l-178 197l-238 -197z" />
<glyph unicode="&#xeb;" horiz-adv-x="999" d="M127 471q18 111 62 205t114 163.5t163 108.5t210 39q115 0 192.5 -40t122.5 -108.5t57.5 -161.5t-4.5 -200l-4 -28h-731q-8 -61 2.5 -119t41 -102t79.5 -70.5t115 -26.5q106 0 179 50t138 136l142 -88q-88 -125 -217.5 -193.5t-270.5 -68.5q-111 0 -191.5 39t-130 106.5 t-67.5 160t-2 198.5zM340 588h537q2 109 -56.5 174t-169.5 65q-109 0 -192.5 -67.5t-118.5 -171.5zM365 1298q10 51 51 87t94 36q51 0 82 -35.5t20 -87.5q-8 -53 -49 -88.5t-92 -35.5q-53 0 -84 35.5t-22 88.5zM797 1298q10 51 51 87t94 36q51 0 82 -35.5t20 -87.5 q-8 -53 -49 -88.5t-92 -35.5q-53 0 -84 35.5t-22 88.5z" />
<glyph unicode="&#xec;" horiz-adv-x="520" d="M168 0h184l152 958h-185zM209 1413l289 -305l98 55l-203 340z" />
<glyph unicode="&#xed;" horiz-adv-x="520" d="M168 0h184l152 958h-185zM293 1163l82 -55l383 305l-156 90z" />
<glyph unicode="&#xee;" horiz-adv-x="520" d="M123 1206l104 -94l238 197l178 -197l135 94l-282 297zM168 0h184l152 958h-185z" />
<glyph unicode="&#xef;" horiz-adv-x="520" d="M125 1298q10 51 51 87t94 36q51 0 82 -35.5t21 -87.5q-8 -53 -49 -88.5t-93 -35.5q-53 0 -83.5 35.5t-22.5 88.5zM168 0l151 958h185l-152 -958h-184zM557 1298q10 51 51 87t94 36q51 0 82 -35.5t21 -87.5q-8 -53 -49 -88.5t-92 -35.5q-53 0 -84 35.5t-23 88.5z" />
<glyph unicode="&#xf0;" horiz-adv-x="1105" d="M117 477q16 109 70.5 202t134 161.5t180 107.5t207.5 39q86 0 131 -24.5t75 -44.5q-82 246 -213 450l-329 -172l-72 111l324 170q-45 61 -93.5 114.5t-99.5 100.5l133 104q111 -88 228 -231l323 170l68 -113l-314 -166q72 -102 130.5 -218t97.5 -237.5t53 -244.5t-4 -240 q-20 -131 -76.5 -232.5t-136.5 -172t-179.5 -107.5t-207.5 -37q-106 0 -193.5 39t-145.5 107.5t-83 162t-8 201.5zM301 477q-10 -68 5.5 -128t52 -106t93 -73t123.5 -27q68 0 132.5 27t115.5 73t87 106.5t46 127.5q10 68 -5 129.5t-52 106.5t-93 71.5t-124 26.5 t-132.5 -26.5t-115.5 -71.5t-87 -106.5t-46 -129.5z" />
<glyph unicode="&#xf1;" horiz-adv-x="1071" d="M127 0l152 958h184l-21 -129h4q55 78 140.5 118t173.5 40q102 0 162.5 -31.5t90 -88t33 -132.5t-11.5 -164l-90 -571h-184l86 549q10 61 12 111.5t-14.5 87t-54 56t-109.5 19.5q-88 0 -142.5 -35.5t-85 -91t-46 -123t-25.5 -133.5l-70 -440h-184zM344 1255l8 11 q51 59 107.5 107t138.5 48q53 0 95 -15t79 -38t71 -39t68 -16q45 0 81 31.5t65 66.5l84 -80q-47 -72 -115 -120t-154 -48q-43 0 -82.5 16.5t-78.5 37.5q-37 18 -74 34.5t-78 16.5q-39 0 -75 -30.5t-56 -63.5z" />
<glyph unicode="&#xf2;" horiz-adv-x="1105" d="M117 477q16 109 70.5 202t134 161.5t180.5 107.5t207 39q109 0 195.5 -39t145 -107.5t83 -161.5t8.5 -202t-71.5 -202t-135.5 -161.5t-179.5 -107.5t-207.5 -39q-106 0 -193.5 39t-145.5 107.5t-83 162t-8 201.5zM301 477q-10 -68 5.5 -128t52 -106t93 -73t123.5 -27 q68 0 132.5 27t115.5 73t87 106.5t46 127.5q10 68 -5 129.5t-52 106.5t-93 71.5t-124 26.5t-132.5 -26.5t-115.5 -71.5t-87 -106.5t-46 -129.5zM481 1413l185 90l202 -340l-98 -55z" />
<glyph unicode="&#xf3;" horiz-adv-x="1105" d="M117 477q16 109 70.5 202t134 161.5t180.5 107.5t207 39q109 0 195.5 -39t145 -107.5t83 -161.5t8.5 -202t-71.5 -202t-135.5 -161.5t-179.5 -107.5t-207.5 -39q-106 0 -193.5 39t-145.5 107.5t-83 162t-8 201.5zM301 477q-10 -68 5.5 -128t52 -106t93 -73t123.5 -27 q68 0 132.5 27t115.5 73t87 106.5t46 127.5q10 68 -5 129.5t-52 106.5t-93 71.5t-124 26.5t-132.5 -26.5t-115.5 -71.5t-87 -106.5t-46 -129.5zM606 1163l309 340l156 -90l-383 -305z" />
<glyph unicode="&#xf4;" horiz-adv-x="1105" d="M117 477q16 109 70.5 202t134 161.5t180.5 107.5t207 39q109 0 195.5 -39t145 -107.5t83 -161.5t8.5 -202t-71.5 -202t-135.5 -161.5t-179.5 -107.5t-207.5 -39q-106 0 -193.5 39t-145.5 107.5t-83 162t-8 201.5zM301 477q-10 -68 5.5 -128t52 -106t93 -73t123.5 -27 q68 0 132.5 27t115.5 73t87 106.5t46 127.5q10 68 -5 129.5t-52 106.5t-93 71.5t-124 26.5t-132.5 -26.5t-115.5 -71.5t-87 -106.5t-46 -129.5zM416 1206l372 297l283 -297l-135 -94l-178 197l-238 -197z" />
<glyph unicode="&#xf5;" horiz-adv-x="1105" d="M117 477q16 109 70.5 202t134 161.5t180.5 107.5t207 39q109 0 195.5 -39t145 -107.5t83 -161.5t8.5 -202t-71.5 -202t-135.5 -161.5t-179.5 -107.5t-207.5 -39q-106 0 -193.5 39t-145.5 107.5t-83 162t-8 201.5zM301 477q-10 -68 5.5 -128t52 -106t93 -73t123.5 -27 q68 0 132.5 27t115.5 73t87 106.5t46 127.5q10 68 -5 129.5t-52 106.5t-93 71.5t-124 26.5t-132.5 -26.5t-115.5 -71.5t-87 -106.5t-46 -129.5zM360 1255l9 11q51 59 107 107t138 48q53 0 95.5 -15t78.5 -38q37 -23 71 -39t69 -16q45 0 80.5 31.5t64.5 66.5l84 -80 q-47 -72 -114.5 -120t-153.5 -48q-43 0 -83 16.5t-79 37.5q-37 18 -74 34.5t-78 16.5q-39 0 -75 -30.5t-56 -63.5z" />
<glyph unicode="&#xf6;" horiz-adv-x="1105" d="M117 477q16 109 70.5 202t134 161.5t180.5 107.5t207 39q109 0 195.5 -39t145 -107.5t83 -161.5t8.5 -202t-71.5 -202t-135.5 -161.5t-179.5 -107.5t-207.5 -39q-106 0 -193.5 39t-145.5 107.5t-83 162t-8 201.5zM301 477q-10 -68 5.5 -128t52 -106t93 -73t123.5 -27 q68 0 132.5 27t115.5 73t87 106.5t46 127.5q10 68 -5 129.5t-52 106.5t-93 71.5t-124 26.5t-132.5 -26.5t-115.5 -71.5t-87 -106.5t-46 -129.5zM418 1298q10 51 51 87t94 36q51 0 82 -35.5t21 -87.5q-8 -53 -49.5 -88.5t-92.5 -35.5q-53 0 -83.5 35.5t-22.5 88.5zM850 1298 q10 51 51 87t94 36q51 0 82 -35.5t21 -87.5q-8 -53 -49 -88.5t-93 -35.5q-53 0 -83.5 35.5t-22.5 88.5z" />
<glyph unicode="&#xf7;" d="M137 436l27 176h1048l-26 -176h-1049zM485 125q8 53 51.5 91t96.5 38t84 -38t22 -91q-10 -53 -52 -89t-95 -36t-85 36t-22 89zM610 920q10 53 52.5 91t95.5 38t84.5 -38t21.5 -91q-8 -53 -51 -89t-96 -36t-84 35.5t-23 89.5z" />
<glyph unicode="&#xf8;" horiz-adv-x="1105" d="M18 18l160 138q-41 63 -59.5 145t-1.5 176q16 109 70.5 202t134 161.5t180 107.5t207.5 39q92 0 166.5 -27.5t134.5 -78.5l145 125l80 -88l-148 -130q37 -63 52.5 -142t1.5 -169q-16 -109 -71.5 -202t-135.5 -161.5t-179.5 -107.5t-207.5 -39q-88 0 -162 25.5t-127 73.5 l-164 -144zM301 477q-16 -106 29 -188l530 461q-35 29 -80 45t-98 16q-68 0 -132.5 -26.5t-115.5 -71.5t-87 -106.5t-46 -129.5zM408 197q72 -53 167 -54q68 0 132.5 27t115.5 73t87 106.5t46 127.5q17 100 -22 176z" />
<glyph unicode="&#xf9;" horiz-adv-x="1048" d="M178 228q-10 81 6 180l86 550h185l-84 -530q-8 -57 -8.5 -109.5t18 -92.5t58.5 -63.5t108 -23.5t115 23.5t77.5 63.5t48 92.5t25.5 109.5l84 530h184l-86 -550q-16 -98 -53 -179.5t-95.5 -139.5t-140 -90t-188.5 -32q-106 0 -178 32t-112 90t-50 139zM453 1413l184 90 l203 -340l-99 -55z" />
<glyph unicode="&#xfa;" horiz-adv-x="1048" d="M178 228q-10 81 6 180l86 550h185l-84 -530q-8 -57 -8.5 -109.5t18 -92.5t58.5 -63.5t108 -23.5t115 23.5t77.5 63.5t48 92.5t25.5 109.5l84 530h184l-86 -550q-16 -98 -53 -179.5t-95.5 -139.5t-140 -90t-188.5 -32q-106 0 -178 32t-112 90t-50 139zM578 1163l309 340 l155 -90l-383 -305z" />
<glyph unicode="&#xfb;" horiz-adv-x="1048" d="M178 228q-10 81 6 180l86 550h185l-84 -530q-8 -57 -8.5 -109.5t18 -92.5t58.5 -63.5t108 -23.5t115 23.5t77.5 63.5t48 92.5t25.5 109.5l84 530h184l-86 -550q-16 -98 -53 -179.5t-95.5 -139.5t-140 -90t-188.5 -32q-106 0 -178 32t-112 90t-50 139zM387 1206l373 297 l282 -297l-135 -94l-178 197l-237 -197z" />
<glyph unicode="&#xfc;" horiz-adv-x="1048" d="M178 228q-10 81 6 180l86 550h185l-84 -530q-8 -57 -8.5 -109.5t18 -92.5t58.5 -63.5t108 -23.5t115 23.5t77.5 63.5t48 92.5t25.5 109.5l84 530h184l-86 -550q-16 -98 -53 -179.5t-95.5 -139.5t-140 -90t-188.5 -32q-106 0 -178 32t-112 90t-50 139zM389 1298 q10 51 51.5 87t94.5 36q51 0 81.5 -35.5t20.5 -87.5q-8 -53 -49 -88.5t-92 -35.5q-53 0 -84 35.5t-23 88.5zM821 1298q10 51 51.5 87t94.5 36q51 0 81.5 -35.5t20.5 -87.5q-8 -53 -49 -88.5t-92 -35.5q-53 0 -84 35.5t-23 88.5z" />
<glyph unicode="&#xfd;" horiz-adv-x="991" d="M-51 -549h209l1013 1507h-206l-398 -608l-227 608h-215l313 -794zM590 1163l82 -55l383 305l-156 90z" />
<glyph unicode="&#xfe;" horiz-adv-x="1138" d="M27 -549l366 2327h185l-154 -979h4q72 86 163 137t200 51q104 0 181 -42t124 -110.5t65.5 -159.5t1.5 -190q-16 -102 -62 -196t-116 -166t-162 -114t-202 -42q-102 0 -178 50.5t-117 132.5h-4l-111 -699h-184zM362 479q-10 -68 0.5 -130t41 -111.5t81.5 -78t125 -28.5 q76 0 138.5 27.5t109.5 76t77 112t42 132.5q10 70 0 132.5t-43 109.5t-86 74.5t-127 27.5q-72 0 -132.5 -28.5t-107.5 -76.5t-77.5 -109.5t-41.5 -129.5z" />
<glyph unicode="&#xff;" horiz-adv-x="991" d="M-51 -549l489 713l-313 794h215l227 -608l398 608h206l-1013 -1507h-209zM381 1298q10 51 51 87t94 36q51 0 82 -35.5t21 -87.5q-8 -53 -49 -88.5t-93 -35.5q-53 0 -83.5 35.5t-22.5 88.5zM813 1298q10 51 51 87t94 36q51 0 82 -35.5t21 -87.5q-8 -53 -49 -88.5 t-92 -35.5q-53 0 -84 35.5t-23 88.5z" />
<glyph unicode="&#x152;" horiz-adv-x="2340" d="M162 772q27 166 113.5 312.5t214.5 256t285 173t323 63.5q88 -2 173 -22.5t160.5 -58.5t137 -93t100.5 -129h4l41 270h809l-26 -176h-635l-70 -432h616l-26 -176h-617l-92 -584h635l-29 -176h-809l41 258h-4q-129 -141 -304 -217t-361 -74q-168 0 -305.5 61.5t-229.5 169 t-132 255t-13 319.5zM354 772q-20 -131 10.5 -245.5t101.5 -198.5t175 -132.5t229 -48.5t245 48.5t217.5 132.5t166 198.5t88.5 245.5q20 127 -7.5 240.5t-96 198.5t-174 135.5t-240.5 50.5t-257 -50.5t-217 -135.5t-157.5 -198.5t-83.5 -240.5z" />
<glyph unicode="&#x153;" horiz-adv-x="1837" d="M117 477q16 109 70.5 202t134 161.5t180 107.5t207.5 39q117 -4 220 -59.5t156 -155.5q160 205 428 215q115 0 193 -40t123 -108.5t57 -161.5t-4 -200l-4 -28h-731q-8 -61 2 -119t41 -102t80 -70.5t114 -26.5q106 0 179 50t139 136l141 -88q-86 -123 -215 -192.5 t-278 -69.5q-119 0 -217.5 55.5t-141.5 155.5q-82 -98 -198.5 -154.5t-245.5 -56.5q-106 0 -193.5 39t-145.5 107.5t-83 162t-8 201.5zM301 477q-10 -68 5.5 -128t52 -106t93 -73t123.5 -27q68 0 132.5 27t115.5 73t87 106.5t46 127.5q10 68 -5 129.5t-52 106.5t-93 71.5 t-124 26.5t-132.5 -26.5t-115.5 -71.5t-87 -106.5t-46 -129.5zM1176 588h536q2 109 -56.5 174t-168.5 65q-109 0 -192.5 -67.5t-118.5 -171.5z" />
<glyph unicode="&#x178;" horiz-adv-x="1173" d="M231 1544h222l274 -659l483 659h222l-641 -872l-107 -672h-192l106 672zM563 1833q8 51 49.5 87t94.5 36q51 0 81.5 -36t22.5 -87q-10 -53 -51 -89t-92 -36q-53 0 -84 36t-21 89zM995 1833q8 51 49.5 87t94.5 36q51 0 81.5 -36t22.5 -87q-10 -53 -51 -89t-92 -36 q-53 0 -84 36t-21 89z" />
<glyph unicode="&#x2c6;" horiz-adv-x="962" d="M344 1206l105 -94l237 197l178 -197l135 94l-282 297z" />
<glyph unicode="&#x2dc;" horiz-adv-x="1044" d="M330 1255l8 11q51 59 107.5 107t138.5 48q53 0 95 -15t79 -38t70.5 -39t68.5 -16q45 0 81 31.5t64 66.5l84 -80q-47 -72 -114.5 -120t-153.5 -48q-43 0 -83 16.5t-79 37.5q-37 18 -73.5 34.5t-77.5 16.5q-39 0 -75 -30.5t-56 -63.5z" />
<glyph unicode="&#x2000;" horiz-adv-x="1019" />
<glyph unicode="&#x2001;" horiz-adv-x="2038" />
<glyph unicode="&#x2002;" horiz-adv-x="1019" />
<glyph unicode="&#x2003;" horiz-adv-x="2038" />
<glyph unicode="&#x2004;" horiz-adv-x="679" />
<glyph unicode="&#x2005;" horiz-adv-x="509" />
<glyph unicode="&#x2006;" horiz-adv-x="339" />
<glyph unicode="&#x2007;" horiz-adv-x="339" />
<glyph unicode="&#x2008;" horiz-adv-x="254" />
<glyph unicode="&#x2009;" horiz-adv-x="407" />
<glyph unicode="&#x200a;" horiz-adv-x="113" />
<glyph unicode="&#x2010;" horiz-adv-x="679" d="M209 580h448l25 153h-449z" />
<glyph unicode="&#x2011;" horiz-adv-x="679" d="M209 580h448l25 153h-449z" />
<glyph unicode="&#x2012;" horiz-adv-x="679" d="M209 580h448l25 153h-449z" />
<glyph unicode="&#x2013;" horiz-adv-x="1024" d="M92 580h1024l25 153h-1024z" />
<glyph unicode="&#x2014;" horiz-adv-x="2048" d="M358 580h1516l24 153h-1515z" />
<glyph unicode="&#x2018;" horiz-adv-x="567" d="M287 1030l151 -63l314 563l-107 47z" />
<glyph unicode="&#x2019;" horiz-adv-x="567" d="M217 1014l109 -47l358 546l-152 64z" />
<glyph unicode="&#x201a;" horiz-adv-x="567" d="M59 -319l107 -48l358 547l-149 64z" />
<glyph unicode="&#x201c;" horiz-adv-x="899" d="M287 1030l151 -63l314 563l-107 47zM627 1030l151 -63l314 563l-107 47z" />
<glyph unicode="&#x201d;" horiz-adv-x="899" d="M209 1014l108 -47l359 546l-152 64zM549 1014l108 -47l359 546l-152 64z" />
<glyph unicode="&#x201e;" horiz-adv-x="899" d="M51 -319l107 -48l358 547l-149 64zM391 -319l107 -48l358 547l-149 64z" />
<glyph unicode="&#x2022;" d="M330 772q12 80 53 150.5t101.5 123t136 83t155.5 30.5t145.5 -30.5t109.5 -83t63.5 -123t7.5 -150.5t-54 -150.5t-103.5 -123t-136.5 -82t-155 -29.5t-144.5 29.5t-109.5 82t-63.5 123t-5.5 150.5z" />
<glyph unicode="&#x2026;" horiz-adv-x="2048" d="M236 86q8 47 48 83t89 36t78.5 -36t21.5 -83q-8 -49 -49 -84t-90 -35t-78 35t-20 84zM920 86q8 47 48 83t89 36t78.5 -36t21.5 -83q-8 -49 -49 -84t-90 -35t-78 35t-20 84zM1604 86q8 47 48 83t89 36t78.5 -36t21.5 -83q-8 -49 -49 -84t-90 -35t-78 35t-20 84z" />
<glyph unicode="&#x202f;" horiz-adv-x="407" />
<glyph unicode="&#x2030;" horiz-adv-x="2273" d="M240 18l1151 1559l84 -53l-1149 -1557zM240 1225q12 74 51 138t95 111.5t125.5 75t143.5 27.5t134.5 -27.5t102.5 -75t61.5 -112t7.5 -137.5q-12 -74 -51.5 -137.5t-96.5 -110.5t-127 -75t-141 -28q-72 0 -133.5 28t-103.5 75t-61.5 110.5t-6.5 137.5zM362 1225 q-8 -47 5.5 -88t41 -72t67.5 -49.5t87 -18.5t93 18.5t84 49.5t63.5 72t34.5 88q8 47 -5.5 89t-41 72.5t-68.5 49t-88 18.5t-93 -18.5t-83 -49t-62.5 -72.5t-34.5 -89zM758 317q12 74 51 138.5t95.5 111.5t126 75t143.5 28t134 -28t102 -75t61.5 -111.5t7.5 -138.5t-51 -137 t-96.5 -110t-128 -75t-142.5 -28t-133.5 28t-102.5 75t-60.5 110.5t-6.5 136.5zM881 317q-8 -47 5 -88t40.5 -71.5t67.5 -49t87 -18.5t93.5 18.5t84 49t63.5 71.5t34 88q6 47 -6.5 89.5t-40 73t-68.5 49t-88 18.5t-93 -18.5t-84 -49t-63.5 -72.5t-31.5 -90zM1561 317 q12 74 51 138.5t95 111.5t125.5 75t143.5 28t134.5 -28t102.5 -75t61.5 -111.5t6.5 -138.5q-12 -74 -51 -137t-96 -110t-128 -75t-142 -28q-72 0 -133.5 28t-102.5 75t-60.5 110.5t-6.5 136.5zM1683 317q-8 -47 5.5 -88t41 -71.5t67.5 -49t87 -18.5t93 18.5t84 49t63.5 71.5 t34.5 88q6 47 -6.5 89.5t-40 73t-68.5 49t-88 18.5t-93 -18.5t-84 -49t-63.5 -72.5t-32.5 -90z" />
<glyph unicode="&#x2039;" horiz-adv-x="688" d="M150 655l296 -475l127 84l-241 391l368 408l-100 84z" />
<glyph unicode="&#x203a;" horiz-adv-x="688" d="M197 264l102 -84l449 475l-295 492l-129 -84l241 -408z" />
<glyph unicode="&#x205f;" horiz-adv-x="509" />
<glyph unicode="&#x20ac;" d="M143 551l70 141h98q0 16 2 39t6 45q4 20 7.5 42t7.5 38h-144l70 141h109q37 127 93 233.5t134 183.5t179.5 119t225.5 42q123 0 205 -29.5t119 -64.5l-29 -178q-41 43 -112.5 75.5t-186.5 32.5q-88 0 -159.5 -30.5t-127 -86t-94 -131.5t-63.5 -166h604l-70 -141h-575 q-8 -41 -14 -82t-11 -82h519l-70 -141h-453q-10 -207 69 -313.5t245 -106.5q113 0 192.5 31t138.5 78l-30 -183q-43 -33 -132 -60.5t-218 -27.5q-223 0 -339 140.5t-106 441.5h-160z" />
<glyph unicode="&#x2122;" horiz-adv-x="1925" d="M293 1413h282l-114 -731h131l115 731h282l21 131h-697zM1032 682h131l115 731h4l172 -731h80l410 731h4l-115 -731h131l135 862h-213l-352 -608l-152 608h-215z" />
<glyph unicode="&#x25fc;" horiz-adv-x="962" d="M0 0v963h963v-963h-963z" />
<glyph unicode="&#xfb01;" horiz-adv-x="1048" d="M164 0l125 786h-84l26 172h84l74 467q12 78 38 146.5t70 120t108.5 81t152.5 29.5q70 1 125 -24l-29 -187q-27 12 -57.5 25.5t-59.5 13.5q-49 0 -79.5 -27.5t-49 -67.5t-28 -85t-15.5 -80l-65 -412h254l-27 -172h-254l-125 -786h-184zM696 0l152 958h184l-151 -958h-185z M883 1397q10 53 52 91t95 38t85 -38t22 -91q-8 -53 -51.5 -89t-96.5 -36t-84 35.5t-22 89.5z" />
<glyph unicode="&#xfb02;" horiz-adv-x="1017" d="M164 0l125 786h-84l26 172h84l74 467q12 78 38 146.5t70 120t108.5 81t152.5 29.5q70 1 125 -24l-29 -187q-27 12 -57.5 25.5t-59.5 13.5q-49 0 -79.5 -27.5t-49 -67.5t-28 -85t-15.5 -80l-65 -412h254l-27 -172h-254l-125 -786h-184zM698 0l281 1778h184l-280 -1778 h-185z" />
<glyph horiz-adv-x="684" d="M227 1276q10 59 39 113.5t74 96.5t103.5 66.5t125.5 24.5q70 0 119 -30.5t80 -82.5h2l16 95h121l-92 -574h-121l15 88h-4q-43 -47 -101.5 -77.5t-126.5 -30.5q-72 0 -123 25.5t-82.5 68.5t-43 99t-1.5 118zM346 1272q-12 -82 29 -145.5t135 -63.5q98 0 160.5 61.5 t74.5 147.5q14 86 -28.5 146.5t-141.5 60.5q-45 0 -84.5 -17.5t-69.5 -46.5t-49.5 -65.5t-25.5 -77.5z" />
<glyph horiz-adv-x="663" d="M201 1270q10 66 45 122t86 97t115.5 64.5t134.5 23.5t127 -23.5t96 -64.5t55.5 -97.5t5.5 -121.5q-10 -63 -45 -119.5t-86 -97.5t-115.5 -64.5t-134.5 -23.5t-127 23.5t-95 64.5t-55.5 97t-6.5 120zM322 1270q-12 -80 39 -139.5t141 -59.5q45 0 86 16.5t73.5 43t55 63.5 t28.5 76q14 84 -38 142t-142 58q-45 0 -86 -15t-73.5 -43t-55 -64.5t-28.5 -77.5z" />
</font>
</defs>
</svg>
