<?xml version="1.0" encoding="utf-8"?>
<!-- Generator: Adobe Illustrator 15.1.0, SVG Export Plug-In . SVG Version: 6.00 Build 0)  -->
<!DOCTYPE svg PUBLIC "-//W3C//DTD SVG 1.1//EN" "http://www.w3.org/Graphics/SVG/1.1/DTD/svg11.dtd">
<svg version="1.1" id="Capa_1" xmlns="http://www.w3.org/2000/svg" xmlns:xlink="http://www.w3.org/1999/xlink" x="0px" y="0px"
	 width="64.029px" height="59.518px" viewBox="0 0 64.029 59.518" enable-background="new 0 0 64.029 59.518" xml:space="preserve">
<g>
	<path fill="#E73E51" d="M5.06,6.619C6.6,1.607,8.024,0,11.68,0h45.729c3.656,0,6.621,2.965,6.621,6.619v46.278
		c0,3.656-2.964,6.621-6.621,6.621H11.68c-3.656,0-5.606-2.362-6.62-6.621L0,28.174L5.06,6.619z"/>
	<path fill="#575756" d="M17.823,52.304c-1.166,0-2.113-0.946-2.113-2.111V31.201c-0.002-1.166,0.942-2.114,2.107-2.114
		l32.922-0.003c1.166-0.001,2.111,0.945,2.111,2.108l0.003,18.995c0.001,1.165-0.945,2.108-2.109,2.111L17.823,52.304z"/>
	<g>
		<g>
			<path fill="#FFFFFF" d="M10.816,12.875c-0.103-0.322-0.165-0.696-0.165-1.319s0.062-0.997,0.165-1.319
				c0.256-0.79,0.883-1.246,1.746-1.246c0.863,0,1.489,0.457,1.746,1.246c0.103,0.322,0.165,0.696,0.165,1.319
				s-0.062,0.997-0.165,1.319c-0.257,0.789-0.883,1.246-1.746,1.246C11.699,14.122,11.072,13.665,10.816,12.875z M14.02,12.771
				c0.092-0.291,0.144-0.634,0.144-1.215c0-0.582-0.051-0.925-0.144-1.215c-0.215-0.675-0.749-1.059-1.458-1.059
				c-0.708,0-1.243,0.384-1.458,1.059c-0.093,0.291-0.144,0.634-0.144,1.215c0,0.581,0.051,0.924,0.144,1.215
				c0.215,0.675,0.75,1.06,1.458,1.06C13.271,13.831,13.804,13.447,14.02,12.771z"/>
			<path fill="#FFFFFF" d="M15.754,15.888c-0.062,0-0.103-0.042-0.103-0.104V9.199c0-0.062,0.042-0.104,0.103-0.104h0.103
				c0.062,0,0.103,0.042,0.103,0.104v0.716h0.011c0.237-0.529,0.678-0.924,1.551-0.924c0.873,0,1.406,0.395,1.653,1.173
				c0.134,0.415,0.174,0.893,0.174,1.392s-0.041,0.976-0.174,1.392c-0.247,0.779-0.781,1.173-1.653,1.173
				c-0.874,0-1.314-0.395-1.551-0.924h-0.011v2.586c0,0.062-0.041,0.104-0.103,0.104H15.754z M18.886,12.845
				c0.113-0.354,0.154-0.852,0.154-1.288c0-0.437-0.041-0.936-0.154-1.288c-0.205-0.634-0.677-0.986-1.385-0.986
				c-0.678,0-1.191,0.322-1.408,0.986c-0.092,0.291-0.134,0.707-0.134,1.288c0,0.581,0.042,0.997,0.134,1.288
				c0.216,0.664,0.729,0.986,1.408,0.986C18.209,13.831,18.681,13.478,18.886,12.845z"/>
			<path fill="#FFFFFF" d="M20.334,12.875c-0.103-0.322-0.165-0.696-0.165-1.319s0.062-0.997,0.165-1.319
				c0.257-0.79,0.883-1.246,1.745-1.246c0.863,0,1.49,0.457,1.747,1.246c0.103,0.322,0.164,0.696,0.164,1.319
				s-0.061,0.997-0.164,1.319c-0.257,0.789-0.884,1.246-1.747,1.246C21.218,14.122,20.592,13.665,20.334,12.875z M23.538,12.771
				c0.093-0.291,0.145-0.634,0.145-1.215c0-0.582-0.052-0.925-0.145-1.215c-0.215-0.675-0.749-1.059-1.458-1.059
				c-0.709,0-1.242,0.384-1.458,1.059c-0.092,0.291-0.144,0.634-0.144,1.215c0,0.581,0.051,0.924,0.144,1.215
				c0.216,0.675,0.749,1.06,1.458,1.06C22.789,13.831,23.323,13.447,23.538,12.771z"/>
			<path fill="#FFFFFF" d="M25.273,14.018c-0.062,0-0.103-0.042-0.103-0.104V9.199c0-0.062,0.041-0.104,0.103-0.104h0.103
				c0.062,0,0.103,0.042,0.103,0.104v0.738h0.011c0.153-0.551,0.605-0.945,1.324-0.945c0.38,0,0.729,0.125,0.965,0.301
				c0.042,0.031,0.052,0.083,0.021,0.135L27.738,9.51c-0.041,0.053-0.103,0.053-0.154,0.021c-0.236-0.146-0.493-0.25-0.812-0.25
				c-0.955,0-1.294,0.903-1.294,1.879v2.752c0,0.063-0.041,0.104-0.103,0.104H25.273z"/>
			<path fill="#FFFFFF" d="M29.986,14.039c-0.883,0-1.221-0.301-1.221-1.288V9.448c0-0.042-0.021-0.062-0.062-0.062h-0.595
				c-0.062,0-0.103-0.042-0.103-0.104V9.199c0-0.062,0.042-0.104,0.103-0.104h0.595c0.042,0,0.062-0.021,0.062-0.062V7.579
				c0-0.062,0.041-0.104,0.103-0.104h0.103c0.062,0,0.103,0.041,0.103,0.104v1.454c0,0.042,0.021,0.062,0.062,0.062h1.027
				c0.062,0,0.103,0.042,0.103,0.104v0.083c0,0.062-0.041,0.104-0.103,0.104h-1.027c-0.042,0-0.062,0.021-0.062,0.062v3.282
				c0,0.82,0.247,1.017,0.924,1.017h0.165c0.062,0,0.103,0.042,0.103,0.104v0.083c0,0.062-0.041,0.103-0.103,0.103H29.986z"/>
			<path fill="#FFFFFF" d="M34.422,14.018c-0.062,0-0.102-0.042-0.102-0.104v-0.695h-0.01c-0.237,0.571-0.802,0.903-1.479,0.903
				c-1.099,0-1.695-0.633-1.695-1.9V9.199c0-0.062,0.041-0.104,0.104-0.104h0.102c0.062,0,0.103,0.042,0.103,0.104v2.95
				c0,1.163,0.453,1.682,1.407,1.682c0.801,0,1.47-0.561,1.47-1.526V9.199c0-0.062,0.04-0.104,0.102-0.104h0.104
				c0.062,0,0.103,0.042,0.103,0.104v4.714c0,0.063-0.041,0.104-0.103,0.104H34.422z"/>
			<path fill="#FFFFFF" d="M39.496,14.018c-0.062,0-0.104-0.042-0.104-0.104v-2.949c0-1.164-0.471-1.682-1.427-1.682
				c-0.811,0-1.489,0.561-1.489,1.526v3.105c0,0.063-0.041,0.104-0.104,0.104h-0.103c-0.062,0-0.103-0.042-0.103-0.104V9.199
				c0-0.062,0.042-0.104,0.103-0.104h0.103c0.062,0,0.104,0.042,0.104,0.104v0.695h0.01c0.246-0.571,0.801-0.903,1.499-0.903
				c1.099,0,1.715,0.633,1.715,1.9v3.022c0,0.063-0.041,0.104-0.103,0.104H39.496z"/>
			<path fill="#FFFFFF" d="M41.21,7.579c-0.062,0-0.103-0.042-0.103-0.104V7.059c0-0.062,0.041-0.104,0.103-0.104h0.246
				c0.062,0,0.103,0.042,0.103,0.104v0.416c0,0.062-0.042,0.104-0.103,0.104H41.21z M41.282,14.018
				c-0.062,0-0.103-0.042-0.103-0.104V9.199c0-0.062,0.041-0.104,0.103-0.104h0.103c0.062,0,0.103,0.042,0.103,0.104v4.714
				c0,0.063-0.041,0.104-0.103,0.104H41.282z"/>
			<path fill="#FFFFFF" d="M46.16,14.018c-0.062,0-0.103-0.042-0.103-0.104v-0.716h-0.01c-0.236,0.53-0.677,0.924-1.551,0.924
				c-0.873,0-1.407-0.395-1.653-1.173c-0.133-0.416-0.175-0.893-0.175-1.392s0.042-0.977,0.175-1.392
				c0.247-0.779,0.78-1.173,1.653-1.173c0.874,0,1.314,0.395,1.551,0.924h0.01V7.059c0-0.062,0.041-0.104,0.103-0.104h0.103
				c0.062,0,0.103,0.042,0.103,0.104v6.854c0,0.063-0.04,0.104-0.103,0.104H46.16z M45.924,12.845
				c0.092-0.292,0.133-0.707,0.133-1.288c0-0.582-0.041-0.997-0.133-1.288c-0.216-0.665-0.729-0.986-1.407-0.986
				c-0.708,0-1.182,0.353-1.387,0.986c-0.113,0.353-0.154,0.852-0.154,1.288c0,0.436,0.042,0.935,0.154,1.288
				c0.205,0.633,0.678,0.986,1.387,0.986C45.195,13.831,45.708,13.509,45.924,12.845z"/>
			<path fill="#FFFFFF" d="M50.935,14.018c-0.062,0-0.103-0.042-0.103-0.104v-0.591h-0.01c-0.174,0.446-0.718,0.799-1.571,0.799
				c-1.017,0-1.633-0.509-1.633-1.433c0-0.935,0.636-1.413,1.807-1.413h1.346c0.041,0,0.061-0.021,0.061-0.062V10.58
				c0-0.935-0.286-1.298-1.354-1.298c-0.658,0-1.018,0.145-1.274,0.394c-0.051,0.052-0.103,0.052-0.144,0.021l-0.072-0.062
				c-0.062-0.051-0.051-0.103-0.01-0.145c0.298-0.312,0.791-0.498,1.5-0.498c1.17,0,1.664,0.374,1.664,1.588v3.333
				c0,0.063-0.042,0.104-0.104,0.104H50.935z M50.832,12.564v-0.936c0-0.041-0.02-0.062-0.061-0.062h-1.325
				c-1.068,0-1.52,0.374-1.52,1.122c0,0.727,0.493,1.142,1.366,1.142C50.196,13.831,50.832,13.302,50.832,12.564z"/>
			<path fill="#FFFFFF" d="M55.751,14.018c-0.062,0-0.103-0.042-0.103-0.104v-0.716h-0.011c-0.236,0.53-0.677,0.924-1.55,0.924
				c-0.874,0-1.406-0.395-1.652-1.173c-0.134-0.416-0.176-0.893-0.176-1.392s0.042-0.977,0.176-1.392
				c0.246-0.779,0.779-1.173,1.652-1.173c0.873,0,1.314,0.395,1.55,0.924h0.011V7.059c0-0.062,0.041-0.104,0.103-0.104h0.103
				c0.062,0,0.103,0.042,0.103,0.104v6.854c0,0.063-0.04,0.104-0.103,0.104H55.751z M55.515,12.845
				c0.091-0.292,0.133-0.707,0.133-1.288c0-0.582-0.042-0.997-0.133-1.288c-0.216-0.665-0.73-0.986-1.408-0.986
				c-0.708,0-1.181,0.353-1.386,0.986c-0.114,0.353-0.155,0.852-0.155,1.288c0,0.436,0.041,0.935,0.155,1.288
				c0.205,0.633,0.678,0.986,1.386,0.986C54.785,13.831,55.299,13.509,55.515,12.845z"/>
		</g>
		<g>
			<path fill="#FFFFFF" d="M10.573,17.349c0-0.262,0.161-0.437,0.431-0.437h3.776c0.292,0,0.475,0.197,0.475,0.448
				c0,0.262-0.183,0.458-0.475,0.458h-3.183c-0.043,0-0.064,0.022-0.064,0.066v2.183c0,0.043,0.021,0.065,0.064,0.065h2.654
				c0.292,0,0.475,0.197,0.475,0.448c0,0.263-0.184,0.458-0.475,0.458h-2.654c-0.043,0-0.064,0.022-0.064,0.066v2.26
				c0,0.044,0.021,0.065,0.064,0.065h3.183c0.292,0,0.475,0.197,0.475,0.448c0,0.262-0.183,0.459-0.475,0.459h-3.776
				c-0.27,0-0.431-0.175-0.431-0.437V17.349z"/>
			<path fill="#FFFFFF" d="M18.212,21.345h-0.01l-1.716,2.785c-0.107,0.174-0.237,0.262-0.41,0.262c-0.27,0-0.464-0.197-0.464-0.447
				c0-0.099,0.022-0.197,0.086-0.307l1.964-3.166l-1.77-2.861c-0.065-0.109-0.087-0.207-0.087-0.306
				c0-0.251,0.194-0.448,0.464-0.448c0.173,0,0.302,0.087,0.41,0.263l1.521,2.478h0.01l1.534-2.478
				c0.106-0.176,0.236-0.263,0.409-0.263c0.27,0,0.465,0.196,0.465,0.448c0,0.099-0.022,0.196-0.087,0.306l-1.791,2.861l1.964,3.166
				c0.065,0.109,0.087,0.208,0.087,0.307c0,0.25-0.194,0.447-0.465,0.447c-0.172,0-0.302-0.088-0.41-0.262L18.212,21.345z"/>
			<path fill="#FFFFFF" d="M21.214,20.625c0-1.059,0.032-1.54,0.205-2.075c0.367-1.135,1.208-1.758,2.449-1.758
				c0.939,0,1.737,0.458,2.148,1.212c0.053,0.087,0.086,0.207,0.086,0.306c0,0.272-0.195,0.448-0.442,0.448
				c-0.183,0-0.313-0.088-0.432-0.273c-0.346-0.524-0.755-0.786-1.36-0.786c-0.809,0-1.294,0.458-1.51,1.146
				c-0.119,0.36-0.173,0.797-0.173,1.78s0.054,1.419,0.173,1.78c0.216,0.688,0.701,1.146,1.51,1.146c0.604,0,1.014-0.262,1.36-0.786
				c0.119-0.185,0.249-0.272,0.432-0.272c0.248,0,0.442,0.175,0.442,0.448c0,0.098-0.033,0.219-0.086,0.306
				c-0.411,0.753-1.208,1.211-2.148,1.211c-1.241,0-2.082-0.623-2.449-1.757C21.247,22.164,21.214,21.684,21.214,20.625z"/>
			<path fill="#FFFFFF" d="M27.01,17.382c0-0.328,0.194-0.524,0.474-0.524c0.281,0,0.486,0.196,0.486,0.524v5.983
				c0,0.044,0.022,0.065,0.065,0.065h3.183c0.292,0,0.475,0.197,0.475,0.448c0,0.262-0.184,0.459-0.475,0.459h-3.745
				c-0.291,0-0.463-0.186-0.463-0.481V17.382z"/>
			<path fill="#FFFFFF" d="M36.193,17.382c0-0.328,0.195-0.524,0.486-0.524c0.281,0,0.475,0.196,0.475,0.524v4.356
				c0,1.812-1.025,2.718-2.601,2.718c-1.555,0-2.59-0.906-2.59-2.718v-4.356c0-0.328,0.195-0.524,0.486-0.524
				c0.281,0,0.474,0.196,0.474,0.524v4.356c0,1.201,0.659,1.812,1.641,1.812c0.971,0,1.629-0.611,1.629-1.812V17.382z"/>
			<path fill="#FFFFFF" d="M38.309,23.758c-0.15-0.109-0.237-0.251-0.237-0.426c0-0.241,0.183-0.459,0.464-0.459
				c0.108,0,0.215,0.044,0.302,0.099c0.528,0.338,1.123,0.578,1.824,0.578c1.036,0,1.64-0.501,1.64-1.267
				c0-0.633-0.345-1.026-1.532-1.211l-0.356-0.054c-1.479-0.229-2.169-0.896-2.169-2.064c0-1.321,0.929-2.162,2.396-2.162
				c0.787,0,1.499,0.229,1.941,0.501c0.184,0.121,0.259,0.263,0.259,0.427c0,0.24-0.184,0.437-0.431,0.437
				c-0.097,0-0.217-0.043-0.314-0.088c-0.463-0.207-0.949-0.371-1.489-0.371c-0.928,0-1.392,0.513-1.392,1.201
				c0,0.622,0.377,1.016,1.521,1.19l0.357,0.055c1.478,0.229,2.18,0.895,2.18,2.084c0,1.289-0.907,2.228-2.687,2.228
				C39.636,24.457,38.827,24.119,38.309,23.758z"/>
			<path fill="#FFFFFF" d="M44.213,17.382c0-0.328,0.194-0.524,0.485-0.524c0.28,0,0.475,0.196,0.475,0.524v6.485
				c0,0.328-0.195,0.525-0.475,0.525c-0.292,0-0.485-0.197-0.485-0.525V17.382z"/>
			<path fill="#FFFFFF" d="M48.583,22.764h0.032l1.803-5.524c0.075-0.252,0.236-0.382,0.453-0.382c0.27,0,0.464,0.196,0.464,0.458
				c0,0.066-0.011,0.142-0.043,0.241l-2.126,6.277c-0.139,0.394-0.291,0.558-0.593,0.558c-0.291,0-0.453-0.164-0.582-0.558
				l-2.126-6.277c-0.032-0.099-0.043-0.175-0.043-0.241c0-0.262,0.194-0.458,0.464-0.458c0.227,0,0.377,0.13,0.464,0.382
				L48.583,22.764z"/>
			<path fill="#FFFFFF" d="M51.023,23.726l2.255-6.322c0.118-0.35,0.302-0.546,0.626-0.546c0.323,0,0.528,0.196,0.647,0.546
				l2.222,6.322c0.022,0.065,0.043,0.141,0.043,0.219c0,0.272-0.205,0.447-0.453,0.447c-0.216,0-0.388-0.12-0.464-0.349
				l-0.497-1.431h-3.01l-0.496,1.431c-0.076,0.229-0.248,0.349-0.463,0.349c-0.248,0-0.453-0.175-0.453-0.447
				C50.98,23.867,51.001,23.791,51.023,23.726z M55.09,21.717l-1.165-3.374h-0.033l-1.187,3.374H55.09z"/>
		</g>
	</g>
	<g>
		<defs>
			<path id="SVGID_1_" d="M18.1,52.304c-1.166,0-2.113-0.946-2.113-2.111V31.201c-0.002-1.166,0.942-2.114,2.107-2.114l32.922-0.003
				c1.166-0.001,2.111,0.945,2.111,2.108l0.003,18.995c0.001,1.165-0.945,2.108-2.109,2.111L18.1,52.304z"/>
		</defs>
		<clipPath id="SVGID_2_">
			<use xlink:href="#SVGID_1_"  overflow="visible"/>
		</clipPath>
		<rect x="47" y="48" clip-path="url(#SVGID_2_)" fill="#DD052B" width="6" height="5"/>
		<rect x="47" y="41" clip-path="url(#SVGID_2_)" fill="#DBDCDE" width="6" height="7"/>
		<rect x="47" y="35" clip-path="url(#SVGID_2_)" fill="#FFD300" width="6" height="6"/>
		<rect x="47" y="28" clip-path="url(#SVGID_2_)" fill="#771469" width="6" height="7"/>
	</g>
	<path fill="#FFFFFF" d="M32.766,48.052c0-0.095-0.12-0.124-0.12-0.124c-1.204-0.228-2.328-1.079-3.177-1.972
		c-1.389-1.465-2.552-3.33-3-4.197c-0.136-0.316,0.057-0.35,0.057-0.35l-0.001-0.001c2.357-0.897,2.756-3.245,2.761-3.886
		c0.013-2.98-2.805-3.873-5.344-3.883c-0.959-0.007-1.28,0.071-2.279,0.067c-1.162-0.006-1.862-0.089-2.041-0.089
		c-0.159,0-0.261,0.14-0.263,0.299c-0.004,0.72,1.641-0.492,1.63,1.905l-0.046,9.583c-0.009,2.22-1.565,1.596-1.569,2.133
		c0,0.178,0.201,0.245,0.319,0.248c0.581,0.002,1.239-0.08,2.182-0.075c1.183,0.004,1.481,0.091,2.162,0.095
		c0.497,0.001,0.58-0.101,0.58-0.239c0.004-0.681-2.102,0.347-2.087-2.529l0.047-10.107c0.003-0.598,0.441-0.595,1.08-0.594
		c2.304,0.011,4.118,1.302,4.147,3.72c0.018,1.642-1.216,3.197-3.258,3.186c-0.72-0.002-0.562-0.045-0.724-0.045
		c-0.095-0.002-0.198,0.038-0.198,0.175c-0.001,0.188,0.147,0.28,0.318,0.33c0.224,0.096,0.74,0.185,1.272,1.013h0.001
		c1.354,2.238,2.873,5.591,6.373,5.608C32.894,48.327,32.764,48.173,32.766,48.052z"/>
</g>
</svg>
